<svg id="svg" version="1.1" xmlns="http://www.w3.org/2000/svg" xmlns:xlink="http://www.w3.org/1999/xlink" width="400" height="400" viewBox="0, 0, 400,400"><g id="svgg"><path id="path0" d="M77.729 107.041 C 77.594 107.393,77.780 110.858,78.144 114.741 C 78.507 118.623,79.433 129.000,80.201 137.800 C 80.969 146.600,81.868 156.680,82.198 160.200 C 82.528 163.720,83.711 176.860,84.826 189.400 C 85.942 201.940,87.008 213.910,87.195 216.000 C 87.382 218.090,88.095 226.190,88.778 234.000 C 90.113 249.258,90.573 254.329,91.191 260.600 C 91.408 262.800,92.219 272.070,92.994 281.200 C 93.769 290.330,94.674 300.500,95.005 303.800 C 95.336 307.100,96.142 316.100,96.795 323.800 C 98.162 339.907,99.593 355.419,99.825 356.637 C 99.992 357.517,99.505 357.355,114.200 361.425 C 116.840 362.156,123.320 363.936,128.600 365.381 C 133.880 366.826,138.740 368.179,139.400 368.388 C 140.060 368.597,143.885 369.675,147.900 370.784 C 151.915 371.893,158.485 373.713,162.500 374.829 C 174.043 378.038,186.436 381.470,193.600 383.443 L 200.200 385.260 218.400 380.202 C 228.410 377.419,240.785 373.986,245.900 372.571 C 251.015 371.157,259.469 368.816,264.686 367.368 C 292.560 359.635,297.141 358.366,298.683 357.955 C 300.259 357.534,300.378 357.402,300.575 355.853 C 300.911 353.198,301.530 346.602,302.587 334.400 C 303.131 328.130,303.766 320.930,303.999 318.400 C 304.569 312.212,304.923 308.192,306.570 289.200 C 307.902 273.839,308.297 269.545,309.239 260.200 C 309.573 256.880,310.791 243.049,312.796 219.800 C 313.659 209.784,316.455 178.563,317.183 170.800 C 317.627 166.070,318.363 157.880,318.818 152.600 C 320.288 135.558,320.745 130.405,321.808 118.856 C 322.382 112.617,322.756 107.262,322.639 106.956 C 322.289 106.046,78.079 106.130,77.729 107.041 M277.339 157.992 C 277.525 158.171,277.473 160.361,277.222 162.859 C 276.334 171.732,276.027 175.073,275.559 181.000 C 275.273 184.613,274.864 187.359,274.531 187.903 L 273.977 188.807 215.762 188.796 C 152.881 188.784,156.841 188.683,157.057 190.290 C 157.227 191.565,157.614 195.810,158.814 209.597 C 159.350 215.749,159.841 219.505,160.134 219.691 C 160.390 219.854,185.564 219.991,216.076 219.994 C 253.258 219.998,271.636 220.134,271.804 220.407 C 271.943 220.631,271.857 222.926,271.614 225.507 C 270.738 234.801,270.418 238.278,270.007 243.000 C 269.777 245.640,269.052 253.830,268.395 261.200 C 267.739 268.570,266.837 278.740,266.392 283.800 C 265.946 288.860,265.403 294.890,265.184 297.200 C 264.965 299.510,264.528 304.264,264.214 307.765 C 263.854 311.765,263.448 314.323,263.121 314.649 C 262.834 314.935,257.650 316.536,251.600 318.207 C 238.941 321.704,228.424 324.624,226.400 325.203 C 223.941 325.907,211.190 329.453,205.482 331.020 L 199.964 332.535 194.482 331.022 C 191.467 330.190,188.460 329.345,187.800 329.144 C 186.481 328.743,176.791 326.045,165.000 322.796 C 158.336 320.960,154.300 319.836,140.251 315.904 C 136.434 314.836,136.582 315.122,135.986 307.600 C 135.497 301.439,135.093 296.812,134.446 290.000 C 133.219 277.061,132.359 265.883,132.553 265.378 C 132.859 264.581,162.869 264.505,163.497 265.300 C 163.714 265.575,164.016 267.420,164.169 269.400 C 164.541 274.218,165.115 280.601,165.570 285.000 C 165.775 286.980,165.956 289.009,165.972 289.509 C 166.007 290.634,166.254 290.736,174.000 292.820 C 177.410 293.738,181.370 294.807,182.800 295.196 C 184.230 295.585,186.930 296.308,188.800 296.802 C 190.670 297.297,194.022 298.217,196.249 298.848 C 199.410 299.742,200.551 299.909,201.449 299.609 C 202.082 299.398,204.220 298.791,206.200 298.262 C 227.749 292.502,232.719 291.147,233.437 290.836 C 234.320 290.454,234.432 289.711,235.600 276.400 C 236.646 264.479,236.882 261.925,237.225 258.800 C 237.430 256.930,237.598 254.455,237.599 253.300 L 237.600 251.200 184.614 251.200 C 131.960 251.200,131.625 251.195,131.198 250.396 C 130.790 249.633,130.568 247.612,129.616 236.000 C 129.391 233.250,128.832 226.860,128.374 221.800 C 127.917 216.740,127.382 210.800,127.185 208.600 C 126.989 206.400,126.645 202.710,126.420 200.400 C 126.196 198.090,125.638 191.790,125.180 186.400 C 124.723 181.010,124.179 174.710,123.972 172.400 C 122.902 160.468,122.784 157.858,123.296 157.502 C 123.933 157.060,276.874 157.546,277.339 157.992 " stroke="none" fill="#e55425" fill-rule="evenodd"></path><path id="path1" d="M130.960 19.358 C 128.185 20.650,127.064 22.310,126.892 25.383 C 126.655 29.606,129.214 31.819,135.933 33.202 C 138.671 33.766,139.707 34.456,139.322 35.460 C 138.960 36.403,133.954 36.010,131.716 34.863 C 129.385 33.668,129.154 33.729,127.190 36.058 L 125.454 38.116 126.508 39.022 C 131.199 43.058,142.614 42.813,145.821 38.608 C 149.437 33.867,146.170 28.561,138.800 27.203 C 134.819 26.469,133.681 25.679,134.880 24.480 C 135.761 23.599,138.602 24.081,142.465 25.768 C 143.730 26.321,146.738 21.760,145.756 20.778 C 143.325 18.348,134.872 17.536,130.960 19.358 M81.600 21.793 L 81.600 24.800 84.757 24.800 C 88.667 24.800,88.400 24.137,88.400 33.848 L 88.400 41.630 92.100 41.515 L 95.800 41.400 96.000 33.200 L 96.200 25.000 99.400 24.800 L 102.600 24.600 102.600 21.800 L 102.600 19.000 92.100 18.893 L 81.600 18.787 81.600 21.793 M105.200 30.207 L 105.200 41.614 114.900 41.507 L 124.600 41.400 124.600 38.600 L 124.600 35.800 118.600 35.600 L 112.600 35.400 112.600 34.200 L 112.600 33.000 118.000 32.800 L 123.400 32.600 123.522 30.237 C 123.678 27.207,123.691 27.214,117.500 27.206 L 112.400 27.200 112.400 26.000 L 112.400 24.800 117.767 24.800 C 124.685 24.800,124.400 24.939,124.400 21.557 L 124.400 18.800 114.800 18.800 L 105.200 18.800 105.200 30.207 M148.984 19.720 C 148.856 20.233,148.806 21.541,148.875 22.627 L 149.000 24.600 152.064 24.716 C 156.119 24.870,155.964 24.526,156.091 33.630 L 156.200 41.400 159.700 41.516 L 163.200 41.631 163.200 33.665 C 163.200 24.424,162.992 24.888,167.218 24.719 L 170.200 24.600 170.200 21.800 L 170.200 19.000 159.709 18.893 L 149.219 18.787 148.984 19.720 M186.494 30.061 L 186.600 41.400 191.800 41.527 C 203.422 41.810,208.766 38.262,208.791 30.246 C 208.818 21.930,204.997 19.086,193.494 18.861 L 186.387 18.722 186.494 30.061 M211.803 19.670 C 211.678 20.182,211.626 25.280,211.688 31.000 L 211.800 41.400 215.400 41.400 L 219.000 41.400 219.200 38.400 C 219.497 33.949,220.584 33.948,223.502 38.396 L 225.604 41.600 229.602 41.600 C 234.286 41.600,234.215 41.756,231.400 37.670 C 228.846 33.963,228.836 33.914,230.347 32.838 C 234.749 29.703,234.270 22.707,229.464 19.954 C 227.891 19.052,227.367 18.993,219.915 18.870 L 212.030 18.740 211.803 19.670 M236.181 19.306 C 236.074 19.584,236.035 24.669,236.093 30.606 L 236.200 41.400 239.800 41.400 L 243.400 41.400 243.506 30.100 L 243.612 18.800 239.994 18.800 C 237.445 18.800,236.317 18.950,236.181 19.306 M245.600 19.174 C 245.600 19.395,247.511 24.306,249.847 30.088 C 252.183 35.869,254.182 40.825,254.290 41.100 C 254.460 41.535,262.000 41.905,262.000 41.478 C 262.000 41.412,263.980 36.434,266.400 30.418 C 268.820 24.402,270.800 19.327,270.800 19.140 C 270.800 18.953,269.024 18.800,266.854 18.800 L 262.909 18.800 262.278 20.500 C 261.931 21.435,261.070 23.910,260.364 26.000 C 259.199 29.449,258.263 31.244,257.872 30.776 C 257.790 30.679,256.817 27.990,255.709 24.800 L 253.695 19.000 249.647 18.886 C 247.129 18.815,245.600 18.924,245.600 19.174 M273.200 30.207 L 273.200 41.614 282.900 41.507 L 292.600 41.400 292.600 38.600 L 292.600 35.800 286.600 35.600 L 280.600 35.400 280.600 34.200 L 280.600 33.000 286.000 32.800 L 291.400 32.600 291.519 30.112 C 291.661 27.126,291.904 27.242,285.200 27.098 L 280.600 27.000 280.600 26.000 L 280.600 25.000 285.600 24.902 C 292.765 24.762,292.400 24.939,292.400 21.592 L 292.400 18.800 282.800 18.800 L 273.200 18.800 273.200 30.207 M295.387 19.290 C 295.277 19.577,295.235 24.669,295.293 30.606 L 295.400 41.400 299.000 41.400 L 302.600 41.400 302.713 36.673 C 302.854 30.749,302.887 30.749,307.734 36.800 L 311.419 41.400 314.810 41.400 L 318.200 41.400 318.200 30.200 L 318.200 19.000 314.600 19.000 L 311.000 19.000 310.800 23.368 C 310.548 28.865,310.533 28.866,306.183 23.479 L 302.566 19.000 299.076 18.884 C 296.491 18.799,295.535 18.904,295.387 19.290 M224.550 25.250 C 227.878 26.766,225.628 29.794,221.373 29.525 L 219.400 29.400 219.276 27.670 C 219.080 24.948,221.475 23.849,224.550 25.250 M199.241 26.112 C 203.529 28.989,200.879 35.541,195.600 35.113 L 194.200 35.000 194.086 30.626 C 194.023 28.220,194.062 26.015,194.173 25.726 C 194.515 24.835,197.700 25.078,199.241 26.112 M172.400 31.157 C 172.400 34.503,172.218 34.400,178.153 34.400 C 183.319 34.400,183.600 34.253,183.600 31.553 C 183.600 28.299,183.786 28.400,177.757 28.400 L 172.400 28.400 172.400 31.157 M93.043 49.033 C 92.675 49.992,92.764 98.924,93.135 99.509 C 93.383 99.899,95.359 99.992,101.629 99.909 L 109.800 99.800 109.908 91.031 C 110.042 80.187,109.208 81.200,118.000 81.200 C 126.792 81.200,125.958 80.187,126.092 91.031 L 126.200 99.800 134.244 99.908 C 140.701 99.995,142.379 99.907,142.747 99.463 C 143.084 99.058,143.179 92.219,143.103 73.755 L 143.000 48.600 134.500 48.492 L 126.000 48.384 126.000 57.143 C 126.000 67.682,126.785 66.703,118.287 66.765 C 109.158 66.832,110.000 67.805,110.000 57.186 L 110.000 48.400 101.643 48.400 C 94.391 48.400,93.253 48.484,93.043 49.033 M149.200 55.400 L 149.200 62.400 156.124 62.400 C 165.466 62.400,164.378 59.906,164.499 81.600 L 164.600 99.800 173.000 99.800 L 181.400 99.800 181.504 81.346 L 181.608 62.891 182.504 62.651 C 182.997 62.519,186.415 62.408,190.100 62.405 L 196.800 62.400 196.800 55.400 L 196.800 48.400 173.000 48.400 L 149.200 48.400 149.200 55.400 M202.897 74.100 L 203.000 99.800 211.000 99.800 L 219.000 99.800 219.101 88.000 C 219.157 81.510,219.299 75.943,219.416 75.629 C 219.758 74.715,220.470 75.648,226.007 84.257 C 228.804 88.606,231.261 92.220,231.467 92.289 C 231.674 92.358,233.273 90.209,235.021 87.513 C 241.191 78.000,243.004 75.401,243.400 75.499 C 243.650 75.562,243.875 80.134,244.000 87.699 L 244.200 99.800 252.400 99.800 L 260.600 99.800 260.600 74.200 L 260.600 48.600 251.743 48.492 L 242.887 48.385 240.911 51.492 C 239.824 53.202,237.442 57.084,235.617 60.120 C 231.566 66.861,231.959 66.886,227.538 59.600 C 225.602 56.410,223.266 52.585,222.345 51.100 L 220.671 48.400 211.733 48.400 L 202.794 48.400 202.897 74.100 M268.987 48.892 C 268.880 49.171,268.839 60.740,268.896 74.600 L 269.000 99.800 289.600 99.800 L 310.200 99.800 310.309 92.700 L 310.418 85.600 298.658 85.600 C 289.317 85.600,286.806 85.490,286.453 85.064 C 286.145 84.693,285.976 79.016,285.904 66.564 L 285.800 48.600 277.491 48.492 C 271.061 48.408,269.137 48.499,268.987 48.892 M123.346 161.900 C 123.493 164.265,123.794 168.000,124.014 170.200 C 124.234 172.400,124.587 176.360,124.798 179.000 C 125.009 181.640,125.276 184.520,125.391 185.400 C 125.507 186.280,125.968 191.410,126.416 196.800 C 126.864 202.190,127.505 209.570,127.841 213.200 C 128.176 216.830,128.610 221.600,128.805 223.800 C 128.999 226.000,129.343 229.780,129.569 232.200 C 129.795 234.620,130.243 239.613,130.564 243.296 C 130.886 246.979,131.261 250.174,131.398 250.396 C 131.564 250.665,149.333 250.800,184.344 250.800 C 223.166 250.800,237.160 250.920,237.495 251.255 C 237.758 251.518,237.879 252.486,237.782 253.555 C 237.690 254.570,237.423 257.560,237.190 260.200 C 236.956 262.840,236.589 266.890,236.375 269.200 C 236.161 271.510,235.716 276.460,235.387 280.200 C 234.365 291.819,234.890 290.671,230.000 291.984 C 228.130 292.486,225.430 293.221,224.000 293.617 C 222.570 294.012,216.581 295.632,210.690 297.217 L 199.981 300.098 193.690 298.410 C 190.231 297.482,186.860 296.561,186.200 296.363 C 184.741 295.927,181.421 295.029,173.000 292.792 C 165.257 290.736,165.776 291.128,165.455 287.100 C 164.454 274.523,163.644 265.995,163.418 265.629 C 163.237 265.336,158.331 265.200,147.922 265.200 L 132.691 265.200 132.920 268.900 C 133.153 272.686,135.226 296.686,136.002 304.600 C 136.239 307.020,136.541 310.222,136.672 311.715 C 136.974 315.164,133.517 313.817,163.200 322.046 C 165.510 322.687,168.030 323.387,168.800 323.601 C 169.570 323.816,172.810 324.716,176.000 325.600 C 179.190 326.484,182.430 327.384,183.200 327.599 C 183.970 327.813,186.580 328.534,189.000 329.200 C 191.420 329.866,194.030 330.585,194.800 330.798 C 199.893 332.206,200.241 332.263,201.600 331.911 C 202.941 331.564,221.939 326.317,235.400 322.577 C 250.673 318.334,256.015 316.857,259.338 315.957 C 263.666 314.786,263.397 315.308,264.175 306.588 C 264.528 302.635,264.989 297.510,265.200 295.200 C 265.410 292.890,265.773 288.840,266.007 286.200 C 266.240 283.560,266.601 279.600,266.809 277.400 C 267.016 275.200,267.552 269.170,268.000 264.000 C 268.448 258.830,268.984 252.800,269.191 250.600 C 269.399 248.400,269.758 244.440,269.989 241.800 C 270.848 231.992,271.270 227.311,271.595 224.004 C 271.778 222.136,271.844 220.471,271.740 220.304 C 271.637 220.137,246.464 220.000,215.800 220.000 C 171.634 220.000,159.981 219.896,159.729 219.500 C 159.554 219.225,159.288 217.650,159.138 216.000 C 158.988 214.350,158.682 211.020,158.457 208.600 C 157.450 197.764,157.056 192.845,157.029 190.800 L 157.000 188.600 215.787 188.400 L 274.575 188.200 274.848 186.600 C 274.999 185.720,275.324 182.480,275.570 179.400 C 276.115 172.605,276.739 165.700,277.197 161.411 C 277.384 159.657,277.451 158.082,277.345 157.911 C 277.239 157.740,242.486 157.600,200.115 157.600 L 123.078 157.600 123.346 161.900 " stroke="none" fill="#f3f4f4" fill-rule="evenodd"></path><path id="path2" d="M0.000 200.000 L 0.000 400.000 200.000 400.000 L 400.000 400.000 400.000 200.000 L 400.000 0.000 200.000 0.000 L 0.000 0.000 0.000 200.000 M141.422 18.148 C 146.691 19.551,147.686 20.873,145.581 23.674 C 144.712 24.831,144.000 25.899,144.000 26.046 C 144.000 26.756,142.621 26.694,141.132 25.918 C 139.139 24.879,134.998 24.393,135.277 25.231 C 135.376 25.528,136.974 26.145,138.828 26.604 C 144.662 28.046,147.247 29.927,147.787 33.123 C 149.158 41.240,137.922 45.536,128.164 40.625 C 125.436 39.252,125.200 39.249,125.200 40.587 C 125.200 42.315,124.717 42.400,114.949 42.400 C 107.035 42.400,105.564 42.307,105.029 41.771 C 104.209 40.952,104.071 19.289,104.880 18.480 C 105.562 17.798,124.038 17.798,124.720 18.480 C 124.996 18.756,125.200 20.080,125.200 21.600 C 125.200 25.211,125.219 25.200,118.720 25.200 C 113.467 25.200,113.200 25.239,113.200 26.000 C 113.200 26.758,113.467 26.800,118.320 26.800 C 124.235 26.800,124.400 26.883,124.400 29.847 C 124.400 33.327,124.619 33.200,118.600 33.200 C 114.297 33.200,113.243 33.312,113.060 33.787 C 112.709 34.703,113.165 34.788,118.641 34.828 C 123.838 34.866,125.200 35.153,125.200 36.214 C 125.200 37.226,125.853 36.862,127.379 35.000 C 129.104 32.894,129.098 32.896,131.799 34.217 C 133.177 34.891,134.660 35.262,136.197 35.317 C 139.739 35.444,139.323 34.661,135.311 33.650 C 128.776 32.003,126.454 30.179,126.091 26.409 C 125.476 20.010,133.063 15.922,141.422 18.148 M102.791 18.386 C 103.380 18.758,103.533 24.598,102.969 25.166 C 102.841 25.295,101.356 25.490,99.668 25.600 L 96.600 25.800 96.491 33.570 C 96.362 42.807,96.561 42.400,92.180 42.400 C 87.412 42.400,87.600 42.771,87.600 33.371 L 87.600 25.600 84.680 25.600 C 82.942 25.600,81.566 25.406,81.280 25.120 C 80.613 24.453,80.630 18.535,81.300 18.265 C 82.220 17.894,102.190 18.006,102.791 18.386 M170.320 18.480 C 170.988 19.148,170.958 24.571,170.283 25.131 C 169.999 25.367,168.514 25.614,166.983 25.680 L 164.200 25.800 164.095 33.600 C 163.972 42.775,164.163 42.400,159.600 42.400 C 155.037 42.400,155.228 42.775,155.105 33.600 L 155.000 25.800 152.217 25.680 C 150.686 25.614,149.201 25.367,148.917 25.131 C 148.242 24.571,148.212 19.148,148.880 18.480 C 149.563 17.797,169.637 17.797,170.320 18.480 M199.410 18.436 C 211.114 20.599,213.512 35.363,203.000 40.527 C 199.316 42.337,187.967 43.218,186.416 41.815 C 185.581 41.058,185.675 18.854,186.516 18.320 C 187.248 17.855,196.727 17.940,199.410 18.436 M229.557 19.402 C 234.731 22.250,235.601 29.609,231.153 32.898 C 229.657 34.004,229.696 34.419,231.528 36.917 C 235.371 42.157,235.303 42.384,229.874 42.394 C 225.511 42.401,225.368 42.323,222.960 38.623 C 220.440 34.750,220.000 34.744,220.000 38.586 C 220.000 42.192,219.760 42.400,215.600 42.400 C 210.849 42.400,211.200 43.389,211.200 30.019 C 211.200 21.163,211.317 18.415,211.700 18.244 C 213.691 17.355,227.462 18.248,229.557 19.402 M243.920 18.480 C 244.729 19.289,244.591 40.952,243.771 41.771 C 243.033 42.509,237.644 42.666,236.374 41.986 C 235.422 41.477,235.147 19.413,236.080 18.480 C 236.379 18.181,237.858 18.000,240.000 18.000 C 242.142 18.000,243.621 18.181,243.920 18.480 M253.964 18.556 C 254.217 18.862,255.122 21.187,255.974 23.723 C 258.437 31.054,257.997 31.103,260.694 23.200 C 262.577 17.681,262.203 18.000,266.800 18.000 C 272.336 18.000,272.301 17.263,267.352 29.625 C 261.616 43.952,262.723 42.400,258.239 42.400 C 255.725 42.400,254.367 42.236,254.100 41.900 C 252.822 40.295,244.681 18.720,245.223 18.377 C 246.194 17.763,253.428 17.911,253.964 18.556 M292.720 18.480 C 293.391 19.151,293.353 24.175,292.673 24.739 C 292.364 24.996,289.848 25.223,286.573 25.288 C 281.936 25.381,281.000 25.501,281.000 26.000 C 281.000 26.497,281.892 26.619,286.174 26.713 C 292.241 26.844,292.400 26.928,292.400 29.969 C 292.400 33.137,292.281 33.200,286.320 33.200 C 283.504 33.200,281.200 33.275,281.200 33.367 C 281.200 33.459,281.091 33.819,280.957 34.167 C 280.743 34.726,281.387 34.800,286.477 34.800 C 293.293 34.800,293.200 34.747,293.200 38.600 C 293.200 40.276,293.003 41.637,292.720 41.920 C 291.915 42.725,273.845 42.588,273.029 41.771 C 272.209 40.952,272.071 19.289,272.880 18.480 C 273.562 17.798,292.038 17.798,292.720 18.480 M303.303 19.072 C 303.796 19.661,304.749 20.786,305.419 21.572 C 306.090 22.357,307.371 23.939,308.267 25.086 C 310.303 27.695,310.400 27.580,310.400 22.576 C 310.400 17.807,310.216 18.000,314.753 18.000 C 319.072 18.000,318.800 17.175,318.800 30.266 C 318.800 43.319,319.121 42.400,314.565 42.400 C 311.490 42.400,311.147 42.130,306.312 35.905 C 303.386 32.138,303.192 32.215,303.326 37.101 C 303.464 42.126,303.234 42.400,298.880 42.400 C 294.524 42.400,294.800 43.226,294.800 30.200 C 294.800 17.121,294.491 18.000,299.083 18.000 C 302.196 18.000,302.462 18.067,303.303 19.072 M194.597 26.469 C 194.463 27.002,194.409 28.960,194.477 30.819 L 194.600 34.200 196.200 34.309 C 202.166 34.715,202.438 26.519,196.486 25.721 C 194.994 25.521,194.818 25.591,194.597 26.469 M220.077 27.300 C 220.214 29.188,221.700 29.750,224.123 28.829 C 226.640 27.872,225.215 25.600,222.097 25.600 L 219.954 25.600 220.077 27.300 M183.576 27.977 C 184.372 28.480,184.356 33.929,183.557 34.435 C 182.680 34.990,172.650 34.890,172.080 34.320 C 171.448 33.688,171.448 28.712,172.080 28.080 C 172.657 27.503,182.685 27.413,183.576 27.977 M110.410 48.626 C 110.624 49.190,110.800 53.330,110.800 57.826 L 110.800 66.000 117.978 66.000 L 125.157 66.000 125.278 57.185 C 125.379 49.877,125.503 48.305,126.000 47.991 C 127.008 47.355,142.615 47.495,143.154 48.145 C 143.482 48.540,143.578 55.753,143.503 74.445 L 143.400 100.200 134.801 100.308 C 124.144 100.442,125.200 101.519,125.200 90.524 L 125.200 82.000 118.000 82.000 L 110.800 82.000 110.800 90.174 C 110.800 94.670,110.624 98.810,110.410 99.374 L 110.020 100.400 101.843 100.400 C 97.345 100.400,93.381 100.291,93.033 100.157 C 92.201 99.838,92.052 48.908,92.880 48.080 C 93.223 47.737,95.744 47.600,101.690 47.600 L 110.020 47.600 110.410 48.626 M196.826 48.014 C 197.771 48.520,198.037 61.803,197.120 62.720 C 196.785 63.055,194.621 63.200,189.953 63.200 C 186.275 63.200,182.981 63.309,182.633 63.443 C 182.069 63.659,182.000 65.651,182.000 81.800 C 182.000 97.949,181.931 99.941,181.367 100.157 C 180.097 100.645,164.465 100.428,164.150 99.919 C 163.986 99.654,163.859 91.419,163.867 81.619 C 163.878 69.059,163.752 63.713,163.441 63.506 C 163.199 63.344,159.824 63.209,155.943 63.206 C 149.880 63.201,148.851 63.111,148.643 62.567 C 148.165 61.322,148.374 48.586,148.880 48.080 C 149.513 47.447,195.648 47.383,196.826 48.014 M220.887 48.100 C 221.238 48.375,223.601 52.020,226.138 56.200 C 228.674 60.380,230.997 64.134,231.300 64.542 C 231.803 65.220,232.206 64.696,235.918 58.542 C 238.155 54.834,240.576 50.900,241.298 49.800 L 242.611 47.800 251.005 47.687 C 255.622 47.625,259.805 47.673,260.300 47.794 L 261.200 48.015 261.200 73.965 C 261.200 97.258,261.135 99.939,260.567 100.157 C 260.219 100.291,256.454 100.400,252.200 100.400 C 247.946 100.400,244.181 100.291,243.833 100.157 C 243.276 99.944,243.200 98.527,243.200 88.357 C 243.200 82.001,243.065 76.801,242.900 76.803 C 242.735 76.805,240.274 80.405,237.432 84.803 C 233.969 90.161,232.033 92.800,231.566 92.800 C 231.103 92.800,229.372 90.485,226.407 85.900 C 223.952 82.105,221.515 78.460,220.991 77.800 L 220.038 76.600 220.019 88.020 C 220.005 96.347,219.870 99.570,219.520 99.920 C 218.842 100.598,203.158 100.598,202.480 99.920 C 201.786 99.226,201.786 48.774,202.480 48.080 C 203.175 47.385,219.995 47.403,220.887 48.100 M285.935 47.951 C 286.367 48.225,286.472 51.675,286.484 66.041 C 286.492 75.803,286.586 84.018,286.692 84.295 C 286.842 84.686,289.547 84.800,298.629 84.800 C 309.829 84.800,310.391 84.836,310.786 85.574 C 311.623 87.137,311.314 99.511,310.426 99.986 C 309.098 100.697,269.400 100.543,268.682 99.825 C 267.798 98.941,267.913 48.552,268.800 47.992 C 269.544 47.521,285.198 47.484,285.935 47.951 M323.304 106.500 C 323.408 106.775,323.169 110.600,322.772 115.000 C 322.376 119.400,321.678 127.320,321.222 132.600 C 320.287 143.419,319.977 146.890,318.831 159.400 C 318.387 164.240,317.658 172.430,317.211 177.600 C 316.764 182.770,316.230 188.800,316.025 191.000 C 315.819 193.200,315.012 202.290,314.231 211.200 C 313.450 220.110,312.628 229.380,312.405 231.800 C 312.181 234.220,311.824 238.090,311.611 240.400 C 311.398 242.710,311.032 246.580,310.799 249.000 C 310.565 251.420,309.738 260.690,308.960 269.600 C 307.214 289.598,307.044 291.519,305.992 303.200 C 305.527 308.370,304.810 316.470,304.400 321.200 C 302.320 345.161,301.119 357.432,300.825 357.731 C 300.645 357.912,297.642 358.858,294.149 359.831 C 290.657 360.804,284.290 362.580,280.000 363.779 C 271.709 366.094,245.556 373.327,239.200 375.061 C 234.955 376.220,224.568 379.100,214.000 382.050 C 210.150 383.124,205.711 384.363,204.135 384.802 C 200.264 385.880,199.767 385.843,193.155 383.971 C 189.990 383.075,186.500 382.104,185.400 381.814 C 184.300 381.523,170.350 377.645,154.400 373.197 C 138.450 368.749,124.860 364.973,124.200 364.806 C 119.665 363.662,100.474 358.251,99.936 357.964 C 99.227 357.586,98.970 356.361,98.600 351.600 C 98.316 347.934,97.788 341.932,96.982 333.200 C 96.647 329.570,96.203 324.710,95.995 322.400 C 95.614 318.165,95.497 316.829,93.984 299.400 C 92.565 283.056,92.468 281.979,91.840 275.400 C 91.504 271.880,90.860 264.590,90.408 259.200 C 89.473 248.059,88.956 242.266,88.408 236.800 C 87.831 231.048,87.279 224.963,86.176 212.200 C 85.625 205.820,85.005 198.710,84.797 196.400 C 84.590 194.090,84.321 191.030,84.201 189.600 C 84.080 188.170,83.800 185.200,83.577 183.000 C 83.129 178.561,80.516 148.987,79.991 142.400 C 79.806 140.090,79.375 135.140,79.031 131.400 C 78.688 127.660,78.219 122.440,77.989 119.800 C 77.760 117.160,77.390 113.151,77.168 110.891 C 76.946 108.631,76.873 106.606,77.006 106.391 C 77.399 105.754,323.063 105.863,323.304 106.500 " stroke="none" fill="#0494bc" fill-rule="evenodd"></path><path id="path3" d="M132.147 18.171 C 125.117 20.370,123.838 28.933,130.089 31.942 C 131.030 32.394,133.380 33.163,135.311 33.650 C 139.323 34.661,139.739 35.444,136.197 35.317 C 134.660 35.262,133.177 34.891,131.799 34.217 C 129.098 32.896,129.104 32.894,127.379 35.000 C 125.853 36.862,125.200 37.226,125.200 36.214 C 125.200 35.153,123.838 34.866,118.641 34.828 C 113.165 34.788,112.709 34.703,113.060 33.787 C 113.243 33.312,114.297 33.200,118.600 33.200 C 124.619 33.200,124.400 33.327,124.400 29.847 C 124.400 26.883,124.235 26.800,118.320 26.800 C 113.467 26.800,113.200 26.758,113.200 26.000 C 113.200 25.239,113.467 25.200,118.720 25.200 C 125.219 25.200,125.200 25.211,125.200 21.600 C 125.200 20.080,124.996 18.756,124.720 18.480 C 124.038 17.798,105.562 17.798,104.880 18.480 C 104.071 19.289,104.209 40.952,105.029 41.771 C 105.564 42.307,107.035 42.400,114.949 42.400 C 124.717 42.400,125.200 42.315,125.200 40.587 C 125.200 39.249,125.436 39.252,128.164 40.625 C 137.922 45.536,149.158 41.240,147.787 33.123 C 147.247 29.927,144.662 28.046,138.828 26.604 C 136.974 26.145,135.376 25.528,135.277 25.231 C 134.998 24.393,139.139 24.879,141.132 25.918 C 142.621 26.694,144.000 26.756,144.000 26.046 C 144.000 25.899,144.712 24.831,145.581 23.674 C 147.409 21.242,147.373 20.936,145.115 19.643 C 141.687 17.680,135.838 17.016,132.147 18.171 M81.300 18.265 C 80.630 18.535,80.613 24.453,81.280 25.120 C 81.566 25.406,82.942 25.600,84.680 25.600 L 87.600 25.600 87.600 33.371 C 87.600 42.771,87.412 42.400,92.180 42.400 C 96.561 42.400,96.362 42.807,96.491 33.570 L 96.600 25.800 99.668 25.600 C 101.356 25.490,102.841 25.295,102.969 25.166 C 103.533 24.598,103.380 18.758,102.791 18.386 C 102.190 18.006,82.220 17.894,81.300 18.265 M148.880 18.480 C 148.212 19.148,148.242 24.571,148.917 25.131 C 149.201 25.367,150.686 25.614,152.217 25.680 L 155.000 25.800 155.105 33.600 C 155.228 42.775,155.037 42.400,159.600 42.400 C 164.163 42.400,163.972 42.775,164.095 33.600 L 164.200 25.800 166.983 25.680 C 168.514 25.614,169.999 25.367,170.283 25.131 C 170.958 24.571,170.988 19.148,170.320 18.480 C 169.637 17.797,149.563 17.797,148.880 18.480 M186.516 18.320 C 185.675 18.854,185.581 41.058,186.416 41.815 C 187.967 43.218,199.316 42.337,203.000 40.527 C 213.512 35.363,211.114 20.599,199.410 18.436 C 196.727 17.940,187.248 17.855,186.516 18.320 M211.700 18.244 C 211.317 18.415,211.200 21.163,211.200 30.019 C 211.200 43.389,210.849 42.400,215.600 42.400 C 219.760 42.400,220.000 42.192,220.000 38.586 C 220.000 34.744,220.440 34.750,222.960 38.623 C 225.368 42.323,225.511 42.401,229.874 42.394 C 235.303 42.384,235.371 42.157,231.528 36.917 C 229.696 34.419,229.657 34.004,231.153 32.898 C 235.601 29.609,234.731 22.250,229.557 19.402 C 227.462 18.248,213.691 17.355,211.700 18.244 M236.080 18.480 C 235.147 19.413,235.422 41.477,236.374 41.986 C 237.644 42.666,243.033 42.509,243.771 41.771 C 244.591 40.952,244.729 19.289,243.920 18.480 C 243.621 18.181,242.142 18.000,240.000 18.000 C 237.858 18.000,236.379 18.181,236.080 18.480 M245.223 18.377 C 244.681 18.720,252.822 40.295,254.100 41.900 C 254.367 42.236,255.725 42.400,258.239 42.400 C 262.723 42.400,261.616 43.952,267.352 29.625 C 272.301 17.263,272.336 18.000,266.800 18.000 C 262.203 18.000,262.577 17.681,260.694 23.200 C 257.997 31.103,258.437 31.054,255.974 23.723 C 255.122 21.187,254.217 18.862,253.964 18.556 C 253.428 17.911,246.194 17.763,245.223 18.377 M272.880 18.480 C 272.071 19.289,272.209 40.952,273.029 41.771 C 273.845 42.588,291.915 42.725,292.720 41.920 C 293.003 41.637,293.200 40.276,293.200 38.600 C 293.200 34.747,293.293 34.800,286.477 34.800 C 281.387 34.800,280.743 34.726,280.957 34.167 C 281.091 33.819,281.200 33.459,281.200 33.367 C 281.200 33.275,283.504 33.200,286.320 33.200 C 292.281 33.200,292.400 33.137,292.400 29.969 C 292.400 26.928,292.241 26.844,286.174 26.713 C 281.892 26.619,281.000 26.497,281.000 26.000 C 281.000 25.501,281.936 25.381,286.573 25.288 C 289.848 25.223,292.364 24.996,292.673 24.739 C 293.353 24.175,293.391 19.151,292.720 18.480 C 292.038 17.798,273.562 17.798,272.880 18.480 M295.280 18.480 C 294.929 18.831,294.800 21.991,294.800 30.200 C 294.800 43.226,294.524 42.400,298.880 42.400 C 303.234 42.400,303.464 42.126,303.326 37.101 C 303.192 32.215,303.386 32.138,306.312 35.905 C 311.147 42.130,311.490 42.400,314.565 42.400 C 319.121 42.400,318.800 43.319,318.800 30.266 C 318.800 17.175,319.072 18.000,314.753 18.000 C 310.216 18.000,310.400 17.807,310.400 22.576 C 310.400 27.580,310.303 27.695,308.267 25.086 C 307.371 23.939,306.090 22.357,305.419 21.572 C 304.749 20.786,303.796 19.661,303.303 19.072 C 302.296 17.869,296.331 17.429,295.280 18.480 M142.700 19.201 C 146.611 20.576,146.861 21.117,144.831 23.806 C 143.548 25.504,142.966 25.987,142.465 25.768 C 138.602 24.081,135.761 23.599,134.880 24.480 C 133.681 25.679,134.819 26.469,138.800 27.203 C 146.170 28.561,149.437 33.867,145.821 38.608 C 142.614 42.813,131.199 43.058,126.508 39.022 L 125.454 38.116 127.190 36.058 C 129.154 33.729,129.385 33.668,131.716 34.863 C 133.954 36.010,138.960 36.403,139.322 35.460 C 139.707 34.456,138.671 33.766,135.933 33.202 C 129.214 31.819,126.655 29.606,126.892 25.383 C 127.227 19.402,134.822 16.432,142.700 19.201 M102.600 21.800 L 102.600 24.600 99.400 24.800 L 96.200 25.000 96.000 33.200 L 95.800 41.400 92.100 41.515 L 88.400 41.630 88.400 33.848 C 88.400 24.137,88.667 24.800,84.757 24.800 L 81.600 24.800 81.600 21.793 L 81.600 18.787 92.100 18.893 L 102.600 19.000 102.600 21.800 M124.400 21.557 C 124.400 24.939,124.685 24.800,117.767 24.800 L 112.400 24.800 112.400 26.000 L 112.400 27.200 117.500 27.206 C 123.691 27.214,123.678 27.207,123.522 30.237 L 123.400 32.600 118.000 32.800 L 112.600 33.000 112.600 34.200 L 112.600 35.400 118.600 35.600 L 124.600 35.800 124.600 38.600 L 124.600 41.400 114.900 41.507 L 105.200 41.614 105.200 30.207 L 105.200 18.800 114.800 18.800 L 124.400 18.800 124.400 21.557 M170.200 21.800 L 170.200 24.600 167.218 24.719 C 162.992 24.888,163.200 24.424,163.200 33.665 L 163.200 41.631 159.700 41.516 L 156.200 41.400 156.091 33.630 C 155.964 24.526,156.119 24.870,152.064 24.716 L 149.000 24.600 148.875 22.627 C 148.806 21.541,148.856 20.233,148.984 19.720 L 149.219 18.787 159.709 18.893 L 170.200 19.000 170.200 21.800 M202.890 20.124 C 207.088 22.186,208.808 25.135,208.791 30.246 C 208.766 38.262,203.422 41.810,191.800 41.527 L 186.600 41.400 186.494 30.061 L 186.387 18.722 193.494 18.861 C 200.336 18.995,200.685 19.042,202.890 20.124 M229.464 19.954 C 234.270 22.707,234.749 29.703,230.347 32.838 C 228.836 33.914,228.846 33.963,231.400 37.670 C 234.215 41.756,234.286 41.600,229.602 41.600 L 225.604 41.600 223.502 38.396 C 220.584 33.948,219.497 33.949,219.200 38.400 L 219.000 41.400 215.400 41.400 L 211.800 41.400 211.688 31.000 C 211.626 25.280,211.678 20.182,211.803 19.670 L 212.030 18.740 219.915 18.870 C 227.367 18.993,227.891 19.052,229.464 19.954 M243.506 30.100 L 243.400 41.400 239.800 41.400 L 236.200 41.400 236.093 30.606 C 235.964 17.548,235.551 18.800,239.994 18.800 L 243.612 18.800 243.506 30.100 M255.709 24.800 C 256.817 27.990,257.790 30.679,257.872 30.776 C 258.263 31.244,259.199 29.449,260.364 26.000 C 261.070 23.910,261.931 21.435,262.278 20.500 L 262.909 18.800 266.854 18.800 C 269.024 18.800,270.800 18.953,270.800 19.140 C 270.800 19.327,268.820 24.402,266.400 30.418 C 263.980 36.434,262.000 41.412,262.000 41.478 C 262.000 41.905,254.460 41.535,254.290 41.100 C 254.182 40.825,252.183 35.869,249.847 30.088 C 247.511 24.306,245.600 19.395,245.600 19.174 C 245.600 18.924,247.129 18.815,249.647 18.886 L 253.695 19.000 255.709 24.800 M292.400 21.592 C 292.400 24.939,292.765 24.762,285.600 24.902 L 280.600 25.000 280.600 26.000 L 280.600 27.000 285.200 27.098 C 291.904 27.242,291.661 27.126,291.519 30.112 L 291.400 32.600 286.000 32.800 L 280.600 33.000 280.600 34.200 L 280.600 35.400 286.600 35.600 L 292.600 35.800 292.600 38.600 L 292.600 41.400 282.900 41.507 L 273.200 41.614 273.200 30.207 L 273.200 18.800 282.800 18.800 L 292.400 18.800 292.400 21.592 M306.183 23.479 C 310.533 28.866,310.548 28.865,310.800 23.368 L 311.000 19.000 314.600 19.000 L 318.200 19.000 318.200 30.200 L 318.200 41.400 314.810 41.400 L 311.419 41.400 307.734 36.800 C 302.887 30.749,302.854 30.749,302.713 36.673 L 302.600 41.400 299.000 41.400 L 295.400 41.400 295.293 30.606 C 295.164 17.527,294.772 18.742,299.076 18.884 L 302.566 19.000 306.183 23.479 M219.625 25.370 C 219.364 25.684,219.207 26.719,219.276 27.670 L 219.400 29.400 221.373 29.525 C 224.870 29.746,226.317 28.804,225.779 26.658 C 225.352 24.958,220.764 23.998,219.625 25.370 M194.173 25.726 C 194.062 26.015,194.023 28.220,194.086 30.626 L 194.200 35.000 195.600 35.113 C 200.879 35.541,203.529 28.989,199.241 26.112 C 197.700 25.078,194.515 24.835,194.173 25.726 M199.162 26.711 C 202.561 29.249,200.475 34.600,196.200 34.309 L 194.600 34.200 194.477 30.819 C 194.277 25.325,195.670 24.104,199.162 26.711 M224.720 26.080 C 226.274 27.634,224.512 29.362,221.623 29.120 C 220.257 29.005,220.195 28.932,220.077 27.300 L 219.954 25.600 222.097 25.600 C 223.276 25.600,224.456 25.816,224.720 26.080 M172.080 28.080 C 171.448 28.712,171.448 33.688,172.080 34.320 C 172.650 34.890,182.680 34.990,183.557 34.435 C 184.356 33.929,184.372 28.480,183.576 27.977 C 182.685 27.413,172.657 27.503,172.080 28.080 M183.357 29.033 C 184.876 32.992,183.511 34.400,178.153 34.400 C 172.218 34.400,172.400 34.503,172.400 31.157 L 172.400 28.400 177.757 28.400 C 182.273 28.400,183.153 28.499,183.357 29.033 M92.880 48.080 C 92.052 48.908,92.201 99.838,93.033 100.157 C 93.381 100.291,97.345 100.400,101.843 100.400 L 110.020 100.400 110.410 99.374 C 110.624 98.810,110.800 94.670,110.800 90.174 L 110.800 82.000 118.000 82.000 L 125.200 82.000 125.200 90.524 C 125.200 101.519,124.144 100.442,134.801 100.308 L 143.400 100.200 143.503 74.445 C 143.578 55.753,143.482 48.540,143.154 48.145 C 142.615 47.495,127.008 47.355,126.000 47.991 C 125.503 48.305,125.379 49.877,125.278 57.185 L 125.157 66.000 117.978 66.000 L 110.800 66.000 110.800 57.826 C 110.800 53.330,110.624 49.190,110.410 48.626 L 110.020 47.600 101.690 47.600 C 95.744 47.600,93.223 47.737,92.880 48.080 M148.880 48.080 C 148.374 48.586,148.165 61.322,148.643 62.567 C 148.851 63.111,149.880 63.201,155.943 63.206 C 159.824 63.209,163.199 63.344,163.441 63.506 C 163.752 63.713,163.878 69.059,163.867 81.619 C 163.859 91.419,163.986 99.654,164.150 99.919 C 164.465 100.428,180.097 100.645,181.367 100.157 C 181.931 99.941,182.000 97.949,182.000 81.800 C 182.000 65.651,182.069 63.659,182.633 63.443 C 182.981 63.309,186.275 63.200,189.953 63.200 C 194.621 63.200,196.785 63.055,197.120 62.720 C 198.037 61.803,197.771 48.520,196.826 48.014 C 195.648 47.383,149.513 47.447,148.880 48.080 M202.480 48.080 C 201.786 48.774,201.786 99.226,202.480 99.920 C 203.158 100.598,218.842 100.598,219.520 99.920 C 219.870 99.570,220.005 96.347,220.019 88.020 L 220.038 76.600 220.991 77.800 C 221.515 78.460,223.952 82.105,226.407 85.900 C 229.372 90.485,231.103 92.800,231.566 92.800 C 232.033 92.800,233.969 90.161,237.432 84.803 C 240.274 80.405,242.735 76.805,242.900 76.803 C 243.065 76.801,243.200 82.001,243.200 88.357 C 243.200 98.527,243.276 99.944,243.833 100.157 C 244.181 100.291,247.946 100.400,252.200 100.400 C 256.454 100.400,260.219 100.291,260.567 100.157 C 261.135 99.939,261.200 97.258,261.200 73.965 L 261.200 48.015 260.300 47.794 C 259.805 47.673,255.622 47.625,251.005 47.687 L 242.611 47.800 241.298 49.800 C 240.576 50.900,238.155 54.834,235.918 58.542 C 232.206 64.696,231.803 65.220,231.300 64.542 C 230.997 64.134,228.674 60.380,226.138 56.200 C 223.601 52.020,221.238 48.375,220.887 48.100 C 219.995 47.403,203.175 47.385,202.480 48.080 M268.800 47.992 C 267.913 48.552,267.798 98.941,268.682 99.825 C 269.400 100.543,309.098 100.697,310.426 99.986 C 311.314 99.511,311.623 87.137,310.786 85.574 C 310.391 84.836,309.829 84.800,298.629 84.800 C 289.547 84.800,286.842 84.686,286.692 84.295 C 286.586 84.018,286.492 75.803,286.484 66.041 C 286.472 51.675,286.367 48.225,285.935 47.951 C 285.198 47.484,269.544 47.521,268.800 47.992 M110.000 57.186 C 110.000 67.805,109.158 66.832,118.287 66.765 C 126.785 66.703,126.000 67.682,126.000 57.143 L 126.000 48.384 134.500 48.492 L 143.000 48.600 143.103 73.755 C 143.179 92.219,143.084 99.058,142.747 99.463 C 142.379 99.907,140.701 99.995,134.244 99.908 L 126.200 99.800 126.092 91.031 C 125.958 80.187,126.792 81.200,118.000 81.200 C 109.208 81.200,110.042 80.187,109.908 91.031 L 109.800 99.800 101.629 99.909 C 95.359 99.992,93.383 99.899,93.135 99.509 C 92.764 98.924,92.675 49.992,93.043 49.033 C 93.253 48.484,94.391 48.400,101.643 48.400 L 110.000 48.400 110.000 57.186 M196.800 55.400 L 196.800 62.400 190.100 62.405 C 186.415 62.408,182.997 62.519,182.504 62.651 L 181.608 62.891 181.504 81.346 L 181.400 99.800 173.000 99.800 L 164.600 99.800 164.499 81.600 C 164.378 59.906,165.466 62.400,156.124 62.400 L 149.200 62.400 149.200 55.400 L 149.200 48.400 173.000 48.400 L 196.800 48.400 196.800 55.400 M222.345 51.100 C 223.266 52.585,225.602 56.410,227.538 59.600 C 231.959 66.886,231.566 66.861,235.617 60.120 C 237.442 57.084,239.824 53.202,240.911 51.492 L 242.887 48.385 251.743 48.492 L 260.600 48.600 260.600 74.200 L 260.600 99.800 252.400 99.800 L 244.200 99.800 244.000 87.699 C 243.875 80.134,243.650 75.562,243.400 75.499 C 243.004 75.401,241.191 78.000,235.021 87.513 C 233.273 90.209,231.674 92.358,231.467 92.289 C 231.261 92.220,228.804 88.606,226.007 84.257 C 220.470 75.648,219.758 74.715,219.416 75.629 C 219.299 75.943,219.157 81.510,219.101 88.000 L 219.000 99.800 211.000 99.800 L 203.000 99.800 202.897 74.100 L 202.794 48.400 211.733 48.400 L 220.671 48.400 222.345 51.100 M285.904 66.564 C 285.976 79.016,286.145 84.693,286.453 85.064 C 286.806 85.490,289.317 85.600,298.658 85.600 L 310.418 85.600 310.309 92.700 L 310.200 99.800 289.600 99.800 L 269.000 99.800 268.896 74.600 C 268.839 60.740,268.880 49.171,268.987 48.892 C 269.137 48.499,271.061 48.408,277.491 48.492 L 285.800 48.600 285.904 66.564 " stroke="none" fill="#54b6d3" fill-rule="evenodd"></path><path id="path4" d="M77.006 106.391 C 76.873 106.606,76.946 108.631,77.168 110.891 C 77.390 113.151,77.760 117.160,77.989 119.800 C 78.219 122.440,78.688 127.660,79.031 131.400 C 79.375 135.140,79.806 140.090,79.991 142.400 C 80.516 148.987,83.129 178.561,83.577 183.000 C 83.800 185.200,84.080 188.170,84.201 189.600 C 84.321 191.030,84.590 194.090,84.797 196.400 C 85.005 198.710,85.625 205.820,86.176 212.200 C 87.279 224.963,87.831 231.048,88.408 236.800 C 88.956 242.266,89.473 248.059,90.408 259.200 C 90.860 264.590,91.504 271.880,91.840 275.400 C 92.468 281.979,92.565 283.056,93.984 299.400 C 95.497 316.829,95.614 318.165,95.995 322.400 C 96.203 324.710,96.647 329.570,96.982 333.200 C 97.788 341.932,98.316 347.934,98.600 351.600 C 98.970 356.361,99.227 357.586,99.936 357.964 C 100.474 358.251,119.665 363.662,124.200 364.806 C 124.860 364.973,138.450 368.749,154.400 373.197 C 170.350 377.645,184.300 381.523,185.400 381.814 C 186.500 382.104,189.990 383.075,193.155 383.971 C 199.767 385.843,200.264 385.880,204.135 384.802 C 205.711 384.363,210.150 383.124,214.000 382.050 C 224.568 379.100,234.955 376.220,239.200 375.061 C 245.556 373.327,271.709 366.094,280.000 363.779 C 284.290 362.580,290.657 360.804,294.149 359.831 C 297.642 358.858,300.645 357.912,300.825 357.731 C 301.119 357.432,302.320 345.161,304.400 321.200 C 304.810 316.470,305.527 308.370,305.992 303.200 C 307.044 291.519,307.214 289.598,308.960 269.600 C 309.738 260.690,310.565 251.420,310.799 249.000 C 311.032 246.580,311.398 242.710,311.611 240.400 C 311.824 238.090,312.181 234.220,312.405 231.800 C 312.628 229.380,313.450 220.110,314.231 211.200 C 315.012 202.290,315.819 193.200,316.025 191.000 C 316.230 188.800,316.764 182.770,317.211 177.600 C 317.658 172.430,318.387 164.240,318.831 159.400 C 319.977 146.890,320.287 143.419,321.222 132.600 C 321.678 127.320,322.376 119.400,322.772 115.000 C 323.169 110.600,323.408 106.775,323.304 106.500 C 323.063 105.863,77.399 105.754,77.006 106.391 M322.639 106.956 C 322.756 107.262,322.382 112.617,321.808 118.856 C 320.745 130.405,320.288 135.558,318.818 152.600 C 318.363 157.880,317.627 166.070,317.183 170.800 C 316.455 178.563,313.659 209.784,312.796 219.800 C 310.791 243.049,309.573 256.880,309.239 260.200 C 308.297 269.545,307.902 273.839,306.570 289.200 C 304.923 308.192,304.569 312.212,303.999 318.400 C 303.766 320.930,303.131 328.130,302.587 334.400 C 301.530 346.602,300.911 353.198,300.575 355.853 C 300.378 357.402,300.259 357.534,298.683 357.955 C 297.141 358.366,292.560 359.635,264.686 367.368 C 259.469 368.816,251.015 371.157,245.900 372.571 C 240.785 373.986,228.410 377.419,218.400 380.202 L 200.200 385.260 193.600 383.443 C 186.436 381.470,174.043 378.038,162.500 374.829 C 158.485 373.713,151.915 371.893,147.900 370.784 C 143.885 369.675,140.060 368.597,139.400 368.388 C 138.740 368.179,133.880 366.826,128.600 365.381 C 123.320 363.936,116.840 362.156,114.200 361.425 C 99.505 357.355,99.992 357.517,99.825 356.637 C 99.593 355.419,98.162 339.907,96.795 323.800 C 96.142 316.100,95.336 307.100,95.005 303.800 C 94.674 300.500,93.769 290.330,92.994 281.200 C 92.219 272.070,91.408 262.800,91.191 260.600 C 90.573 254.329,90.113 249.258,88.778 234.000 C 88.095 226.190,87.382 218.090,87.195 216.000 C 87.008 213.910,85.942 201.940,84.826 189.400 C 83.711 176.860,82.528 163.720,82.198 160.200 C 81.868 156.680,80.969 146.600,80.201 137.800 C 79.433 129.000,78.507 118.623,78.144 114.741 C 77.780 110.858,77.594 107.393,77.729 107.041 C 78.079 106.130,322.289 106.046,322.639 106.956 M142.870 157.500 C 153.578 157.559,171.218 157.559,182.070 157.500 C 192.921 157.441,184.160 157.392,162.600 157.392 C 141.040 157.392,132.161 157.441,142.870 157.500 M203.700 157.476 C 204.085 157.576,204.715 157.576,205.100 157.476 C 205.485 157.375,205.170 157.293,204.400 157.293 C 203.630 157.293,203.315 157.375,203.700 157.476 M122.901 159.000 C 122.905 159.880,122.987 160.193,123.083 159.695 C 123.179 159.198,123.175 158.478,123.075 158.095 C 122.975 157.713,122.896 158.120,122.901 159.000 M123.309 165.200 C 123.309 166.190,123.387 166.595,123.482 166.100 C 123.578 165.605,123.578 164.795,123.482 164.300 C 123.387 163.805,123.309 164.210,123.309 165.200 M124.093 174.000 C 124.093 174.770,124.175 175.085,124.276 174.700 C 124.376 174.315,124.376 173.685,124.276 173.300 C 124.175 172.915,124.093 173.230,124.093 174.000 M124.514 177.400 C 124.517 178.500,124.595 178.903,124.687 178.295 C 124.779 177.686,124.777 176.786,124.682 176.295 C 124.587 175.803,124.511 176.300,124.514 177.400 M125.320 186.800 C 125.320 188.010,125.395 188.505,125.487 187.900 C 125.578 187.295,125.578 186.305,125.487 185.700 C 125.395 185.095,125.320 185.590,125.320 186.800 M157.061 188.700 C 156.959 188.865,157.803 188.948,158.938 188.884 C 162.347 188.694,162.763 188.512,159.924 188.454 C 158.452 188.425,157.164 188.535,157.061 188.700 M190.669 188.700 C 205.887 188.758,230.907 188.758,246.269 188.700 C 261.631 188.642,249.180 188.594,218.600 188.594 C 188.020 188.594,175.451 188.642,190.669 188.700 M125.720 192.000 C 125.720 193.210,125.795 193.705,125.887 193.100 C 125.978 192.495,125.978 191.505,125.887 190.900 C 125.795 190.295,125.720 190.790,125.720 192.000 M157.314 194.600 C 157.317 195.700,157.395 196.103,157.487 195.495 C 157.579 194.886,157.577 193.986,157.482 193.495 C 157.387 193.003,157.311 193.500,157.314 194.600 M126.114 196.200 C 126.117 197.300,126.195 197.703,126.287 197.095 C 126.379 196.486,126.377 195.586,126.282 195.095 C 126.187 194.603,126.111 195.100,126.114 196.200 M157.709 200.000 C 157.709 200.990,157.787 201.395,157.882 200.900 C 157.978 200.405,157.978 199.595,157.882 199.100 C 157.787 198.605,157.709 199.010,157.709 200.000 M126.520 201.200 C 126.520 202.410,126.595 202.905,126.687 202.300 C 126.778 201.695,126.778 200.705,126.687 200.100 C 126.595 199.495,126.520 199.990,126.520 201.200 M158.114 203.800 C 158.117 204.900,158.195 205.303,158.287 204.695 C 158.379 204.086,158.377 203.186,158.282 202.695 C 158.187 202.203,158.111 202.700,158.114 203.800 M158.520 209.200 C 158.520 210.410,158.595 210.905,158.687 210.300 C 158.778 209.695,158.778 208.705,158.687 208.100 C 158.595 207.495,158.520 207.990,158.520 209.200 M127.301 210.200 C 127.305 211.080,127.387 211.393,127.483 210.895 C 127.579 210.398,127.575 209.678,127.475 209.295 C 127.375 208.913,127.296 209.320,127.301 210.200 M159.293 217.600 C 159.293 218.370,159.375 218.685,159.476 218.300 C 159.576 217.915,159.576 217.285,159.476 216.900 C 159.375 216.515,159.293 216.830,159.293 217.600 M128.501 222.600 C 128.505 223.480,128.587 223.793,128.683 223.295 C 128.779 222.798,128.775 222.078,128.675 221.695 C 128.575 221.313,128.496 221.720,128.501 222.600 M128.893 228.000 C 128.893 228.770,128.975 229.085,129.076 228.700 C 129.176 228.315,129.176 227.685,129.076 227.300 C 128.975 226.915,128.893 227.230,128.893 228.000 M129.309 231.200 C 129.309 232.190,129.387 232.595,129.482 232.100 C 129.578 231.605,129.578 230.795,129.482 230.300 C 129.387 229.805,129.309 230.210,129.309 231.200 M129.714 236.600 C 129.717 237.700,129.795 238.103,129.887 237.495 C 129.979 236.886,129.977 235.986,129.882 235.495 C 129.787 235.003,129.711 235.500,129.714 236.600 M130.120 240.800 C 130.120 242.010,130.195 242.505,130.287 241.900 C 130.378 241.295,130.378 240.305,130.287 239.700 C 130.195 239.095,130.120 239.590,130.120 240.800 M130.520 246.000 C 130.520 247.210,130.595 247.705,130.687 247.100 C 130.778 246.495,130.778 245.505,130.687 244.900 C 130.595 244.295,130.520 244.790,130.520 246.000 M131.541 250.901 C 131.707 251.067,155.593 251.157,184.621 251.101 L 237.400 251.000 184.320 250.800 C 155.126 250.690,131.376 250.736,131.541 250.901 M132.561 265.358 C 132.443 265.665,132.418 266.610,132.506 267.458 C 132.657 268.919,132.669 268.900,132.733 267.095 L 132.800 265.190 148.082 265.295 L 163.364 265.400 163.642 266.400 C 163.875 267.238,163.927 267.267,163.960 266.580 C 164.045 264.827,163.801 264.800,147.907 264.800 C 135.332 264.800,132.739 264.894,132.561 265.358 M132.901 272.600 C 132.905 273.480,132.987 273.793,133.083 273.295 C 133.179 272.798,133.175 272.078,133.075 271.695 C 132.975 271.313,132.896 271.720,132.901 272.600 M164.501 275.400 C 164.505 276.280,164.587 276.593,164.683 276.095 C 164.779 275.598,164.775 274.878,164.675 274.495 C 164.575 274.113,164.496 274.520,164.501 275.400 M133.320 276.400 C 133.320 277.610,133.395 278.105,133.487 277.500 C 133.578 276.895,133.578 275.905,133.487 275.300 C 133.395 274.695,133.320 275.190,133.320 276.400 M133.714 281.400 C 133.717 282.500,133.795 282.903,133.887 282.295 C 133.979 281.686,133.977 280.786,133.882 280.295 C 133.787 279.803,133.711 280.300,133.714 281.400 M165.314 284.200 C 165.317 285.300,165.395 285.703,165.487 285.095 C 165.579 284.486,165.577 283.586,165.482 283.095 C 165.387 282.603,165.311 283.100,165.314 284.200 M134.109 285.600 C 134.109 286.590,134.187 286.995,134.282 286.500 C 134.378 286.005,134.378 285.195,134.282 284.700 C 134.187 284.205,134.109 284.610,134.109 285.600 M165.664 288.820 C 165.602 290.198,166.146 291.200,166.956 291.200 C 167.175 291.200,167.059 290.975,166.699 290.700 C 166.339 290.425,165.974 289.570,165.886 288.800 L 165.728 287.400 165.664 288.820 M134.514 291.000 C 134.517 292.100,134.595 292.503,134.687 291.895 C 134.779 291.286,134.777 290.386,134.682 289.895 C 134.587 289.403,134.511 289.900,134.514 291.000 M171.400 292.400 C 171.840 292.589,172.470 292.744,172.800 292.744 C 173.178 292.744,173.104 292.617,172.600 292.400 C 172.160 292.211,171.530 292.056,171.200 292.056 C 170.822 292.056,170.896 292.183,171.400 292.400 M192.200 298.000 C 192.640 298.189,193.270 298.344,193.600 298.344 C 193.978 298.344,193.904 298.217,193.400 298.000 C 192.960 297.811,192.330 297.656,192.000 297.656 C 191.622 297.656,191.696 297.783,192.200 298.000 M135.293 299.600 C 135.293 300.370,135.375 300.685,135.476 300.300 C 135.576 299.915,135.576 299.285,135.476 298.900 C 135.375 298.515,135.293 298.830,135.293 299.600 M136.520 312.000 C 136.520 313.210,136.595 313.705,136.687 313.100 C 136.778 312.495,136.778 311.505,136.687 310.900 C 136.595 310.295,136.520 310.790,136.520 312.000 M141.800 316.400 C 142.240 316.589,142.870 316.744,143.200 316.744 C 143.578 316.744,143.504 316.617,143.000 316.400 C 142.560 316.211,141.930 316.056,141.600 316.056 C 141.222 316.056,141.296 316.183,141.800 316.400 M185.000 328.400 C 185.440 328.589,186.070 328.744,186.400 328.744 C 186.778 328.744,186.704 328.617,186.200 328.400 C 185.760 328.211,185.130 328.056,184.800 328.056 C 184.422 328.056,184.496 328.183,185.000 328.400 M196.600 331.600 C 197.040 331.789,197.670 331.944,198.000 331.944 C 198.378 331.944,198.304 331.817,197.800 331.600 C 197.360 331.411,196.730 331.256,196.400 331.256 C 196.022 331.256,196.096 331.383,196.600 331.600 " stroke="none" fill="#7c6c6c" fill-rule="evenodd"></path></g></svg>