<svg id="svg" version="1.1" xmlns="http://www.w3.org/2000/svg" xmlns:xlink="http://www.w3.org/1999/xlink" width="400" height="400" viewBox="0, 0, 400,400"><g id="svgg"><path id="path0" d="M157.700 140.700 L 115.200 140.804 115.200 142.825 C 115.200 143.936,115.370 146.051,115.578 147.523 C 115.786 148.995,116.143 152.360,116.372 155.000 C 117.079 163.151,118.082 173.394,118.185 173.508 C 118.239 173.567,135.004 173.635,155.441 173.659 C 175.879 173.682,205.020 173.814,220.200 173.951 L 247.800 174.200 247.769 177.200 C 247.751 178.850,247.530 182.450,247.276 185.200 C 247.022 187.950,246.538 193.350,246.199 197.200 C 245.252 207.976,245.168 208.558,244.481 209.100 C 243.980 209.495,231.023 209.600,182.747 209.600 C 142.557 209.600,121.563 209.737,121.401 209.999 C 121.265 210.218,121.334 212.153,121.554 214.299 C 121.774 216.445,122.144 220.315,122.377 222.900 C 122.949 229.257,123.567 235.970,123.913 239.600 L 124.200 242.600 183.000 242.803 C 215.340 242.915,241.871 243.050,241.957 243.103 C 242.145 243.219,241.968 245.464,240.440 262.400 C 240.231 264.710,239.756 270.020,239.384 274.200 C 237.996 289.797,239.261 287.546,230.600 289.824 C 224.385 291.459,218.608 293.016,207.677 296.001 C 198.699 298.452,200.405 298.576,185.600 294.399 C 184.830 294.182,182.490 293.552,180.400 293.000 C 178.310 292.448,175.970 291.818,175.200 291.600 C 174.430 291.383,171.190 290.487,168.000 289.609 C 160.633 287.583,161.381 288.862,160.399 276.600 C 159.384 263.914,159.213 262.099,158.973 261.473 C 158.689 260.734,126.292 260.404,125.840 261.135 C 125.726 261.320,125.793 262.625,125.989 264.035 C 126.185 265.446,126.552 269.120,126.805 272.200 C 127.337 278.693,129.347 301.076,130.059 308.443 L 130.546 313.487 134.573 314.589 C 139.911 316.049,142.405 316.786,143.519 317.232 C 144.024 317.434,144.849 317.600,145.352 317.600 C 145.855 317.600,146.394 317.727,146.549 317.882 C 146.796 318.129,152.425 319.671,155.200 320.251 C 155.750 320.366,156.560 320.612,157.000 320.797 C 157.440 320.982,159.240 321.518,161.000 321.989 C 162.760 322.460,165.190 323.124,166.400 323.465 C 167.610 323.807,169.140 324.231,169.800 324.408 C 171.074 324.749,177.654 326.581,180.000 327.247 C 182.112 327.847,185.660 328.819,193.800 331.027 C 195.780 331.565,198.030 332.195,198.800 332.428 C 199.873 332.753,200.714 332.711,202.400 332.247 C 203.610 331.915,206.580 331.093,209.000 330.422 C 211.420 329.751,214.480 328.911,215.800 328.557 C 217.120 328.202,218.560 327.768,219.000 327.593 C 219.440 327.418,220.880 326.995,222.200 326.652 C 225.853 325.703,228.959 324.868,231.500 324.151 C 232.765 323.795,236.050 322.887,238.800 322.135 C 241.550 321.382,244.340 320.609,245.000 320.416 C 245.660 320.224,247.730 319.676,249.600 319.200 C 251.470 318.723,253.360 318.182,253.800 317.997 C 254.240 317.812,255.050 317.570,255.600 317.460 C 256.882 317.204,266.121 314.609,268.838 313.743 C 269.364 313.575,269.597 312.088,270.166 305.270 C 270.545 300.721,271.023 295.905,271.228 294.567 C 271.433 293.229,271.600 291.212,271.600 290.084 C 271.600 288.956,271.775 286.720,271.990 285.116 C 272.204 283.512,272.653 278.870,272.987 274.800 C 273.322 270.730,273.776 265.375,273.998 262.900 C 274.863 253.216,275.230 249.165,275.779 243.200 C 276.092 239.790,276.542 234.750,276.777 232.000 C 277.013 229.250,277.403 224.930,277.643 222.400 C 278.054 218.074,278.245 215.979,279.171 205.600 C 279.377 203.290,279.836 198.160,280.192 194.200 C 280.547 190.240,280.999 185.020,281.195 182.600 C 281.878 174.173,282.384 168.590,282.604 167.047 C 282.726 166.192,282.998 163.312,283.207 160.647 C 283.416 157.981,283.857 152.830,284.186 149.200 C 284.514 145.570,284.787 142.105,284.792 141.500 L 284.800 140.400 242.500 140.498 C 219.235 140.552,181.075 140.643,157.700 140.700 " stroke="none" fill="#f2f3f4" fill-rule="evenodd"></path><path id="path1" d="M126.800 34.003 L 126.800 60.807 148.700 60.703 L 170.600 60.600 170.600 50.800 L 170.600 41.000 158.300 40.894 L 146.000 40.788 146.000 33.594 L 146.000 26.400 157.767 26.400 C 164.239 26.400,169.819 26.291,170.167 26.157 C 170.719 25.945,170.800 24.721,170.800 16.557 L 170.800 7.200 148.800 7.200 L 126.800 7.200 126.800 34.003 M175.696 24.700 L 175.800 42.200 188.200 42.409 L 200.600 42.617 188.580 42.709 C 179.871 42.775,176.428 42.932,176.080 43.280 C 175.325 44.035,175.408 60.266,176.171 61.029 C 176.946 61.804,219.148 61.892,219.920 61.120 C 220.729 60.311,220.597 25.681,219.781 24.779 C 219.222 24.162,219.222 24.035,219.781 23.476 C 220.297 22.960,220.400 21.561,220.400 15.029 L 220.400 7.200 197.996 7.200 L 175.592 7.200 175.696 24.700 M225.467 7.467 C 225.133 7.800,225.110 40.901,225.443 41.767 C 225.656 42.323,227.208 42.411,238.143 42.494 L 250.600 42.588 238.625 42.700 C 228.191 42.798,226.556 42.897,225.925 43.468 C 225.187 44.136,224.799 58.263,225.452 60.700 L 225.693 61.600 247.447 61.600 L 269.200 61.600 269.200 34.400 L 269.200 7.200 247.467 7.200 C 235.513 7.200,225.613 7.320,225.467 7.467 " stroke="none" fill="#040404" fill-rule="evenodd"></path><path id="path2" d="M63.600 90.813 C 63.600 98.277,63.692 99.660,64.200 99.855 C 64.697 100.046,64.800 101.136,64.800 106.219 C 64.800 109.877,64.961 112.453,65.200 112.600 C 65.431 112.743,65.600 114.911,65.600 117.744 C 65.600 120.437,65.771 122.811,65.979 123.020 C 66.188 123.229,66.390 125.349,66.428 127.731 C 66.480 130.995,66.633 132.114,67.048 132.274 C 67.474 132.437,67.600 133.563,67.600 137.209 C 67.600 139.858,67.768 141.992,67.983 142.067 C 68.201 142.143,68.389 144.865,68.420 148.400 C 68.451 151.810,68.623 154.780,68.803 155.000 C 68.983 155.220,69.219 157.611,69.327 160.313 C 69.435 163.015,69.712 165.453,69.942 165.730 C 70.172 166.007,70.390 168.253,70.426 170.722 C 70.463 173.190,70.652 175.309,70.846 175.429 C 71.041 175.549,71.201 177.932,71.202 180.724 C 71.204 184.377,71.368 186.112,71.785 186.912 C 72.194 187.696,72.383 189.556,72.424 193.210 C 72.458 196.149,72.638 198.300,72.842 198.174 C 73.121 198.002,73.473 206.271,73.247 207.700 C 73.221 207.865,73.380 208.000,73.600 208.000 C 73.842 208.000,74.001 209.702,74.002 212.300 C 74.004 215.332,74.181 216.938,74.602 217.746 C 75.054 218.612,75.200 220.342,75.200 224.846 C 75.200 228.549,75.351 230.800,75.600 230.800 C 75.845 230.800,76.000 232.724,76.000 235.771 C 76.000 239.657,76.131 240.874,76.600 241.343 C 77.054 241.797,77.200 242.927,77.200 245.998 C 77.200 248.228,77.367 250.365,77.571 250.746 C 77.776 251.128,77.979 253.951,78.024 257.020 C 78.069 260.089,78.258 262.794,78.445 263.032 C 78.632 263.269,78.804 265.657,78.827 268.338 C 78.859 271.958,79.015 273.358,79.435 273.778 C 79.858 274.201,80.000 275.535,80.000 279.091 C 80.000 281.703,80.171 284.011,80.380 284.220 C 80.589 284.429,80.789 286.710,80.825 289.288 C 80.873 292.736,81.037 294.099,81.445 294.437 C 81.874 294.794,82.000 296.287,82.000 301.025 C 82.000 304.679,82.162 307.253,82.400 307.400 C 82.629 307.541,82.800 309.596,82.800 312.200 C 82.800 314.804,82.971 316.859,83.200 317.000 C 83.428 317.141,83.600 319.174,83.600 321.735 C 83.600 325.009,83.757 326.446,84.181 327.051 C 84.615 327.671,84.776 329.328,84.820 333.640 C 84.852 336.808,85.028 339.583,85.211 339.807 C 85.394 340.031,85.588 342.409,85.642 345.091 C 85.716 348.696,85.879 350.022,86.271 350.172 C 86.669 350.325,86.800 351.564,86.800 355.187 C 86.800 358.129,86.955 360.000,87.200 360.000 C 87.420 360.000,87.600 360.540,87.600 361.200 C 87.600 362.000,87.800 362.400,88.200 362.400 C 88.530 362.400,88.800 362.580,88.800 362.800 C 88.800 363.020,88.935 363.162,89.100 363.115 C 89.265 363.068,89.760 363.224,90.200 363.462 C 90.640 363.699,91.610 363.906,92.355 363.922 C 93.100 363.937,93.901 364.141,94.135 364.375 C 94.369 364.609,94.934 364.800,95.391 364.800 C 95.848 364.800,96.577 365.048,97.011 365.351 C 97.445 365.654,98.332 365.902,98.983 365.901 C 99.634 365.900,100.234 366.102,100.317 366.350 C 100.399 366.597,101.037 366.806,101.733 366.813 C 102.430 366.820,103.349 367.090,103.776 367.413 C 104.204 367.736,105.228 368.000,106.053 368.000 C 106.878 368.000,107.664 368.180,107.800 368.400 C 107.936 368.620,108.667 368.800,109.424 368.800 C 110.181 368.800,110.800 368.972,110.800 369.182 C 110.800 369.392,111.475 369.672,112.300 369.804 C 113.125 369.936,114.113 370.214,114.495 370.422 C 114.877 370.630,116.012 370.800,117.018 370.800 C 118.024 370.800,118.757 370.945,118.647 371.123 C 118.538 371.301,119.189 371.490,120.095 371.544 C 121.000 371.597,121.935 371.883,122.171 372.178 C 122.590 372.702,123.745 373.012,127.000 373.471 C 127.880 373.596,128.690 373.837,128.800 374.009 C 128.910 374.180,129.717 374.434,130.593 374.572 C 131.468 374.711,132.359 374.999,132.573 375.213 C 132.786 375.426,133.543 375.600,134.256 375.600 C 134.969 375.600,135.664 375.780,135.800 376.000 C 135.936 376.220,136.847 376.400,137.824 376.400 C 139.031 376.400,139.568 376.560,139.500 376.900 C 139.434 377.231,140.042 377.441,141.300 377.522 C 142.345 377.589,143.200 377.814,143.200 378.022 C 143.200 378.230,143.815 378.400,144.567 378.400 C 145.318 378.400,145.998 378.593,146.076 378.829 C 146.155 379.065,147.025 379.336,148.010 379.431 C 148.994 379.526,149.860 379.782,149.933 380.002 C 150.007 380.221,150.952 380.400,152.033 380.400 C 153.115 380.400,154.000 380.580,154.000 380.800 C 154.000 381.020,154.429 381.200,154.954 381.200 C 155.479 381.200,156.424 381.469,157.054 381.798 C 157.684 382.126,158.695 382.396,159.300 382.398 C 159.905 382.399,160.400 382.580,160.400 382.800 C 160.400 383.020,161.195 383.200,162.167 383.200 C 163.138 383.200,163.999 383.398,164.080 383.639 C 164.160 383.881,165.079 384.175,166.122 384.292 C 167.165 384.410,168.115 384.662,168.233 384.853 C 168.351 385.044,168.977 385.200,169.624 385.200 C 170.271 385.200,170.800 385.380,170.800 385.600 C 170.800 385.820,171.700 386.000,172.800 386.000 C 174.311 386.000,174.800 386.147,174.800 386.600 C 174.800 387.044,175.267 387.200,176.600 387.200 C 177.590 387.200,178.400 387.380,178.400 387.600 C 178.400 387.820,179.019 388.000,179.776 388.000 C 180.533 388.000,181.264 388.180,181.400 388.400 C 181.536 388.620,182.245 388.800,182.975 388.800 C 183.705 388.800,184.526 389.070,184.800 389.400 C 185.118 389.783,186.003 390.000,187.249 390.000 C 188.322 390.000,189.200 390.180,189.200 390.400 C 189.200 390.620,189.811 390.800,190.557 390.800 C 191.395 390.800,192.003 391.030,192.145 391.400 C 192.271 391.730,192.820 392.000,193.364 392.000 C 193.908 392.000,194.464 392.180,194.600 392.400 C 195.358 393.627,208.000 392.406,208.000 391.106 C 208.000 390.938,208.619 390.800,209.376 390.800 C 210.133 390.800,210.864 390.620,211.000 390.400 C 211.136 390.180,212.047 390.000,213.024 390.000 C 214.336 390.000,214.800 389.843,214.800 389.400 C 214.800 388.956,215.267 388.800,216.600 388.800 C 217.590 388.800,218.400 388.620,218.400 388.400 C 218.400 388.180,219.120 388.000,220.000 388.000 C 220.880 388.000,221.600 387.820,221.600 387.600 C 221.600 387.380,222.326 387.200,223.213 387.200 C 224.277 387.200,224.903 386.996,225.055 386.600 C 225.211 386.194,225.847 386.000,227.019 386.000 C 227.973 386.000,228.864 385.820,229.000 385.600 C 229.136 385.380,229.867 385.200,230.624 385.200 C 231.381 385.200,232.000 385.020,232.000 384.800 C 232.000 384.580,232.617 384.400,233.371 384.400 C 234.126 384.400,235.013 384.130,235.343 383.800 C 235.701 383.442,236.679 383.200,237.771 383.200 C 238.777 383.200,239.600 383.020,239.600 382.800 C 239.600 382.580,240.230 382.400,241.000 382.400 C 241.978 382.400,242.400 382.219,242.400 381.800 C 242.400 381.347,242.889 381.200,244.400 381.200 C 245.500 381.200,246.400 381.020,246.400 380.800 C 246.400 380.580,247.195 380.400,248.167 380.400 C 249.138 380.400,249.993 380.237,250.067 380.037 C 250.140 379.837,250.917 379.561,251.793 379.424 C 252.668 379.287,253.559 379.001,253.773 378.787 C 253.986 378.574,254.754 378.400,255.480 378.400 C 256.206 378.400,256.800 378.243,256.800 378.052 C 256.800 377.861,257.632 377.610,258.649 377.496 C 259.667 377.381,260.616 377.097,260.760 376.865 C 260.903 376.633,261.770 376.399,262.686 376.345 C 263.603 376.291,264.262 376.101,264.153 375.923 C 264.043 375.745,264.683 375.600,265.576 375.600 C 266.469 375.600,267.200 375.443,267.200 375.252 C 267.200 375.061,268.049 374.808,269.087 374.691 C 270.125 374.574,271.040 374.281,271.120 374.039 C 271.201 373.798,272.062 373.600,273.033 373.600 C 274.005 373.600,274.800 373.420,274.800 373.200 C 274.800 372.980,275.436 372.800,276.213 372.800 C 277.099 372.800,277.711 372.577,277.855 372.200 C 278.012 371.793,278.650 371.600,279.843 371.600 C 280.809 371.600,281.600 371.420,281.600 371.200 C 281.600 370.980,282.333 370.800,283.229 370.800 C 284.124 370.800,285.119 370.538,285.440 370.217 C 285.761 369.896,286.289 369.736,286.615 369.861 C 286.940 369.986,287.648 369.798,288.189 369.444 C 288.730 369.090,289.808 368.800,290.586 368.800 C 291.364 368.800,292.000 368.620,292.000 368.400 C 292.000 368.180,292.707 368.000,293.571 368.000 C 294.436 368.000,295.406 367.737,295.727 367.415 C 296.049 367.094,297.007 366.789,297.856 366.738 C 298.705 366.687,299.500 366.500,299.623 366.324 C 299.745 366.147,300.375 365.928,301.023 365.837 C 302.242 365.665,304.486 364.949,305.695 364.346 C 306.077 364.156,306.874 364.000,307.466 364.000 C 308.765 364.000,311.200 363.165,311.200 362.720 C 311.200 362.544,311.470 362.400,311.800 362.400 C 312.252 362.400,312.400 361.914,312.400 360.424 C 312.400 359.337,312.580 358.336,312.800 358.200 C 313.030 358.058,313.200 355.939,313.200 353.205 C 313.200 349.708,313.345 348.312,313.750 347.907 C 314.144 347.513,314.322 346.053,314.373 342.791 C 314.413 340.281,314.599 338.040,314.785 337.813 C 314.971 337.586,315.149 334.705,315.181 331.410 C 315.223 327.034,315.383 325.256,315.776 324.810 C 316.146 324.390,316.334 322.833,316.380 319.812 C 316.417 317.399,316.597 315.239,316.779 315.012 C 316.961 314.786,317.140 312.620,317.178 310.200 C 317.215 307.780,317.415 305.629,317.623 305.420 C 317.830 305.211,318.000 302.466,318.000 299.320 C 318.000 295.405,318.140 293.600,318.443 293.600 C 318.686 293.600,318.782 293.330,318.655 293.000 C 318.529 292.670,318.581 292.400,318.772 292.400 C 318.962 292.400,319.144 290.107,319.176 287.303 C 319.207 284.500,319.406 282.034,319.617 281.823 C 319.827 281.613,320.000 279.393,320.000 276.891 C 320.000 273.382,320.137 272.206,320.600 271.743 C 321.066 271.277,321.200 270.082,321.200 266.395 C 321.200 263.784,321.363 261.547,321.561 261.424 C 321.760 261.301,321.948 258.551,321.979 255.313 C 322.010 252.075,322.186 249.330,322.370 249.213 C 322.554 249.096,322.737 246.952,322.775 244.449 C 322.827 241.090,322.996 239.747,323.423 239.320 C 323.858 238.885,324.000 237.625,324.000 234.195 C 324.000 231.595,324.171 229.541,324.400 229.400 C 324.636 229.254,324.800 226.823,324.800 223.456 C 324.800 219.432,324.947 217.613,325.300 217.260 C 325.631 216.929,325.846 215.048,325.936 211.680 C 326.011 208.886,326.236 206.429,326.436 206.220 C 326.636 206.011,326.800 203.806,326.800 201.320 C 326.800 198.573,326.957 196.800,327.200 196.800 C 327.445 196.800,327.600 194.924,327.600 191.971 C 327.600 188.357,327.741 187.002,328.162 186.581 C 328.591 186.152,328.737 184.568,328.778 179.909 C 328.808 176.413,328.996 173.743,329.216 173.667 C 329.431 173.592,329.600 171.557,329.600 169.047 C 329.600 166.515,329.779 164.381,330.010 164.150 C 330.510 163.650,330.746 162.233,331.222 156.855 C 331.424 154.575,331.762 151.245,331.974 149.455 C 332.186 147.665,332.356 144.793,332.352 143.074 C 332.348 141.355,332.526 139.730,332.746 139.465 C 332.967 139.199,333.229 136.779,333.329 134.086 C 333.428 131.393,333.700 128.961,333.932 128.682 C 334.174 128.391,334.361 126.148,334.369 123.437 C 334.378 120.832,334.547 118.498,334.745 118.250 C 334.943 118.003,335.201 115.280,335.318 112.200 C 335.436 109.120,335.709 106.142,335.925 105.581 C 336.144 105.014,336.344 99.561,336.377 93.281 L 336.435 82.000 200.018 82.000 L 63.600 82.000 63.600 90.813 M285.589 142.700 C 285.583 144.405,285.393 147.510,285.166 149.600 C 284.760 153.346,284.319 158.163,283.628 166.400 C 283.435 168.710,282.980 173.750,282.617 177.600 C 281.888 185.338,281.470 190.213,280.815 198.600 C 280.575 201.680,280.203 204.955,279.989 205.877 C 279.775 206.800,279.600 208.849,279.600 210.431 C 279.600 212.013,279.425 214.409,279.211 215.754 C 278.997 217.099,278.621 220.810,278.376 224.000 C 278.130 227.190,277.752 231.690,277.534 234.000 C 277.317 236.310,276.990 240.090,276.808 242.400 C 275.966 253.082,275.613 257.119,275.394 258.600 C 275.164 260.150,274.675 265.726,274.008 274.400 C 273.582 279.924,272.908 287.324,272.422 291.800 C 272.206 293.780,271.740 299.000,271.386 303.400 C 270.439 315.141,270.669 314.492,267.200 315.243 C 265.709 315.567,264.326 315.947,260.800 317.004 C 259.590 317.367,257.970 317.815,257.200 318.000 C 256.430 318.185,254.810 318.633,253.600 318.996 C 250.569 319.905,248.843 320.392,247.200 320.804 C 244.090 321.584,242.159 322.123,241.400 322.423 C 240.960 322.597,240.150 322.832,239.600 322.946 C 239.050 323.059,236.890 323.630,234.800 324.215 C 232.710 324.801,230.460 325.429,229.800 325.612 C 229.140 325.795,227.610 326.241,226.400 326.604 C 225.190 326.967,223.570 327.413,222.800 327.597 C 220.128 328.232,214.996 329.669,214.200 330.003 C 213.760 330.188,212.950 330.431,212.400 330.542 C 211.308 330.763,209.874 331.147,206.200 332.204 C 199.979 333.994,201.208 334.087,190.000 330.982 C 187.910 330.403,185.660 329.785,185.000 329.608 C 184.340 329.431,182.765 328.997,181.500 328.643 C 180.235 328.289,178.248 327.742,177.084 327.427 C 175.920 327.112,174.165 326.574,173.184 326.233 C 172.203 325.891,171.025 325.609,170.567 325.606 C 170.108 325.603,169.607 325.473,169.452 325.318 C 169.297 325.163,167.512 324.611,165.485 324.092 C 163.458 323.572,161.260 322.990,160.600 322.798 C 159.940 322.607,157.779 322.009,155.797 321.471 C 153.815 320.932,150.845 320.107,149.197 319.638 C 147.549 319.168,145.480 318.585,144.600 318.343 C 143.720 318.100,142.100 317.649,141.000 317.340 C 138.179 316.547,136.862 316.180,134.800 315.613 C 128.902 313.989,129.537 315.181,128.608 304.000 C 128.269 299.930,127.818 294.890,127.605 292.800 C 127.393 290.710,127.032 286.840,126.803 284.200 C 126.575 281.560,126.125 276.430,125.804 272.800 C 125.482 269.170,125.170 264.850,125.110 263.200 L 125.000 260.200 142.383 260.200 L 159.765 260.200 160.429 266.400 C 161.454 275.982,162.007 282.401,162.003 284.667 L 162.000 286.734 163.700 287.316 C 165.979 288.097,167.439 288.514,172.400 289.803 C 174.710 290.403,178.130 291.328,180.000 291.859 C 181.870 292.390,184.030 292.985,184.800 293.180 C 189.905 294.479,196.200 296.174,198.457 296.858 C 199.259 297.101,200.127 297.169,200.385 297.009 C 200.644 296.849,202.239 296.364,203.928 295.931 C 205.618 295.499,207.540 294.998,208.200 294.818 C 208.860 294.639,211.110 294.030,213.200 293.465 C 215.290 292.899,217.990 292.167,219.200 291.837 C 220.410 291.507,221.850 291.121,222.400 290.981 C 222.950 290.840,224.210 290.494,225.200 290.211 C 226.190 289.929,227.765 289.496,228.700 289.249 C 237.743 286.860,237.393 287.011,237.447 285.501 C 237.490 284.287,237.719 281.448,238.794 268.800 C 239.028 266.050,239.319 263.440,239.441 263.000 C 239.563 262.560,239.828 260.040,240.030 257.400 C 240.232 254.760,240.554 250.800,240.746 248.600 C 240.938 246.400,240.978 244.468,240.835 244.307 C 240.692 244.146,214.214 243.876,181.996 243.707 L 123.418 243.400 123.129 241.600 C 122.745 239.217,120.757 217.194,120.506 212.558 C 120.314 208.994,120.330 208.912,121.255 208.664 C 121.775 208.525,149.594 208.408,183.076 208.405 C 220.228 208.402,244.043 208.255,244.183 208.027 C 244.310 207.823,244.582 205.348,244.789 202.527 C 244.995 199.707,245.442 194.520,245.782 191.000 C 246.122 187.480,246.515 182.890,246.655 180.800 C 246.795 178.710,247.084 176.662,247.296 176.249 C 248.020 174.843,246.662 174.812,182.500 174.806 C 109.434 174.799,116.803 175.192,116.797 171.300 C 116.795 170.255,116.614 167.830,116.394 165.912 C 116.174 163.994,115.816 160.304,115.598 157.712 C 115.380 155.120,114.942 150.215,114.625 146.812 C 114.217 142.428,114.172 140.474,114.473 140.112 C 114.816 139.699,131.404 139.600,200.249 139.600 L 285.600 139.600 285.589 142.700 " stroke="none" fill="#2652e8" fill-rule="evenodd"></path><path id="path3" d="M114.474 140.111 C 114.085 140.579,114.860 152.609,115.394 154.400 C 115.589 155.055,115.264 149.285,114.820 144.200 C 114.666 142.440,114.617 140.775,114.713 140.500 C 114.850 140.102,132.288 140.000,200.102 140.000 L 285.318 140.000 285.072 143.700 C 284.479 152.617,284.417 154.635,284.787 153.000 C 284.986 152.120,285.278 148.745,285.436 145.500 L 285.723 139.600 200.310 139.600 C 131.496 139.600,114.816 139.699,114.474 140.111 M283.846 158.400 C 283.197 165.422,282.789 169.931,282.418 174.200 C 281.333 186.680,280.743 193.423,280.390 197.400 C 279.641 205.849,279.579 207.090,279.969 205.800 C 280.169 205.140,280.539 201.990,280.791 198.800 C 281.480 190.080,281.890 185.316,282.617 177.600 C 282.980 173.750,283.437 168.710,283.633 166.400 C 283.829 164.090,284.100 160.924,284.236 159.363 C 284.372 157.803,284.410 156.183,284.322 155.763 C 284.233 155.344,284.019 156.530,283.846 158.400 M115.676 157.400 C 115.663 158.500,115.889 161.380,116.178 163.800 C 116.467 166.220,116.712 167.480,116.722 166.600 C 116.732 165.720,116.506 162.840,116.220 160.200 C 115.928 157.509,115.689 156.279,115.676 157.400 M116.850 171.224 C 116.819 172.352,117.040 173.343,117.430 173.824 C 117.776 174.251,117.934 174.357,117.781 174.060 C 117.628 173.762,117.367 172.592,117.201 171.460 L 116.900 169.400 116.850 171.224 M136.400 174.695 C 183.969 174.966,247.600 174.969,247.600 174.700 C 247.600 174.535,218.485 174.443,182.900 174.496 C 147.315 174.549,126.390 174.638,136.400 174.695 M247.054 176.853 C 246.952 177.374,246.567 181.670,246.197 186.400 C 245.828 191.130,245.363 195.978,245.163 197.173 C 244.963 198.369,244.820 200.619,244.845 202.173 C 244.892 205.125,245.238 202.269,246.394 189.400 C 246.631 186.760,247.018 182.744,247.254 180.475 C 247.642 176.746,247.517 174.485,247.054 176.853 M244.382 206.600 L 244.200 208.200 182.400 208.404 C 148.410 208.517,120.527 208.652,120.439 208.704 C 120.242 208.821,120.759 216.812,121.196 220.400 C 121.555 223.360,121.435 219.788,120.936 212.700 C 120.706 209.442,120.741 209.202,121.445 209.229 C 126.871 209.440,244.268 208.692,244.514 208.446 C 244.702 208.258,244.789 207.407,244.710 206.553 L 244.565 205.000 244.382 206.600 M278.892 214.000 C 276.986 234.276,276.621 239.112,277.026 238.708 C 277.150 238.584,277.403 236.529,277.589 234.141 C 278.587 221.323,278.853 218.320,279.246 215.400 C 279.483 213.640,279.614 211.390,279.538 210.400 C 279.448 209.227,279.223 210.482,278.892 214.000 M121.592 224.433 C 121.575 226.368,122.959 240.924,123.115 240.456 C 123.295 239.914,122.003 223.893,121.758 223.633 C 121.671 223.542,121.596 223.902,121.592 224.433 M276.293 242.800 C 274.156 266.458,273.808 271.125,274.214 270.720 C 274.331 270.602,274.589 268.367,274.787 265.753 C 275.684 253.903,276.069 249.619,276.453 247.200 C 276.681 245.770,276.807 243.430,276.733 242.000 L 276.600 239.400 276.293 242.800 M123.322 242.200 L 123.400 243.400 181.987 243.707 C 214.210 243.876,240.692 244.146,240.835 244.307 C 240.978 244.468,240.937 246.400,240.743 248.600 C 240.167 255.145,239.961 259.994,240.387 257.000 C 240.979 252.835,241.645 243.912,241.384 243.651 C 241.246 243.513,214.741 243.310,182.485 243.200 L 123.836 243.000 123.540 242.000 C 123.263 241.069,123.248 241.082,123.322 242.200 M125.006 260.390 C 124.874 260.604,124.950 262.899,125.176 265.490 C 125.402 268.080,125.868 273.530,126.213 277.600 C 126.558 281.670,126.907 285.180,126.988 285.400 C 127.362 286.405,127.123 282.467,126.186 272.163 C 125.228 261.631,125.210 260.982,125.862 260.505 C 126.480 260.053,126.484 260.000,125.900 260.000 C 125.541 260.000,125.139 260.175,125.006 260.390 M135.126 260.300 C 139.376 260.364,146.216 260.364,150.326 260.299 C 154.437 260.234,150.960 260.181,142.600 260.181 C 134.240 260.182,130.877 260.235,135.126 260.300 M158.872 260.464 C 159.241 260.759,159.629 261.450,159.734 262.000 C 159.856 262.646,159.902 262.506,159.862 261.603 C 159.815 260.546,159.605 260.173,159.000 260.067 C 158.267 259.940,158.257 259.973,158.872 260.464 M239.457 262.800 C 239.305 263.790,238.997 266.670,238.773 269.200 C 238.037 277.505,237.494 284.177,237.447 285.501 C 237.393 286.992,237.375 287.000,228.600 289.282 C 227.720 289.511,226.190 289.929,225.200 290.211 C 224.210 290.494,222.950 290.840,222.400 290.981 C 221.850 291.121,220.410 291.507,219.200 291.837 C 217.990 292.167,215.290 292.899,213.200 293.465 C 211.110 294.030,208.860 294.639,208.200 294.818 C 207.540 294.998,205.650 295.498,204.000 295.930 C 202.350 296.361,200.682 296.844,200.293 297.003 C 199.904 297.161,199.094 297.109,198.493 296.886 C 197.892 296.663,195.870 296.083,194.000 295.597 C 192.130 295.111,189.747 294.450,188.705 294.127 C 187.663 293.804,186.518 293.598,186.160 293.670 C 185.803 293.741,188.726 294.660,192.657 295.710 L 199.804 297.621 212.402 294.207 C 219.331 292.330,225.630 290.614,226.400 290.394 C 227.170 290.174,229.870 289.436,232.400 288.753 C 238.255 287.174,237.779 287.989,238.558 278.200 C 238.925 273.580,239.419 268.163,239.654 266.163 C 240.103 262.357,239.943 259.637,239.457 262.800 M160.222 267.400 C 160.325 269.160,160.582 272.400,160.795 274.600 C 161.007 276.800,161.304 280.459,161.453 282.732 C 161.690 286.329,161.834 286.931,162.563 287.382 C 163.550 287.993,167.209 288.924,167.496 288.637 C 167.605 288.528,167.178 288.328,166.547 288.192 C 165.916 288.056,164.635 287.672,163.700 287.339 L 162.000 286.734 162.003 284.667 C 162.007 282.185,161.302 274.193,160.568 268.400 C 160.066 264.438,160.046 264.381,160.222 267.400 M273.488 274.600 C 273.317 276.580,273.004 280.090,272.792 282.400 C 272.100 289.975,271.886 293.403,272.118 293.193 C 272.244 293.080,272.540 290.650,272.777 287.793 C 273.013 284.937,273.403 280.980,273.644 279.000 C 273.885 277.020,274.018 274.410,273.941 273.200 C 273.811 271.178,273.775 271.291,273.488 274.600 M127.282 288.400 C 127.262 289.830,127.395 291.720,127.577 292.600 L 127.908 294.200 127.911 292.400 C 127.912 291.410,127.779 289.520,127.615 288.200 L 127.318 285.800 127.282 288.400 M168.800 289.183 C 172.829 290.447,184.921 293.612,185.088 293.445 C 185.201 293.332,184.778 293.122,184.147 292.979 C 183.516 292.836,181.470 292.288,179.600 291.761 C 172.319 289.709,168.822 288.801,168.322 288.834 C 168.035 288.853,168.250 289.010,168.800 289.183 M271.493 296.800 C 271.331 298.670,271.020 302.270,270.802 304.800 C 269.928 314.946,270.672 313.838,263.400 315.805 C 258.298 317.184,255.693 318.067,257.400 317.838 C 258.060 317.749,259.590 317.377,260.800 317.010 C 264.197 315.982,265.679 315.573,267.200 315.243 C 269.502 314.745,270.350 314.100,270.553 312.695 C 271.013 309.519,272.071 295.682,271.936 294.600 C 271.854 293.940,271.655 294.930,271.493 296.800 M128.060 296.124 C 128.004 297.922,128.989 309.861,129.425 312.661 C 129.625 313.943,131.739 315.243,133.508 315.172 C 133.889 315.157,133.338 314.879,132.284 314.555 C 129.874 313.815,129.822 313.672,129.201 306.200 C 128.330 295.710,128.129 293.938,128.060 296.124 M134.800 315.582 C 135.130 315.805,135.745 315.991,136.167 315.994 C 137.190 316.002,136.871 315.773,135.400 315.444 C 134.524 315.248,134.362 315.285,134.800 315.582 M137.600 316.400 C 137.930 316.613,138.560 316.778,139.000 316.766 L 139.800 316.744 139.000 316.400 C 137.804 315.886,136.805 315.886,137.600 316.400 M141.200 317.400 C 141.970 317.697,142.960 317.941,143.400 317.943 C 143.840 317.945,143.390 317.691,142.400 317.379 C 140.139 316.667,139.333 316.681,141.200 317.400 M144.800 318.400 C 145.130 318.613,145.760 318.778,146.200 318.766 L 147.000 318.744 146.200 318.400 C 145.004 317.886,144.005 317.886,144.800 318.400 M254.298 318.235 C 254.169 318.364,253.464 318.618,252.732 318.800 C 251.999 318.981,249.780 319.579,247.800 320.128 C 245.820 320.677,242.760 321.516,241.000 321.993 C 233.416 324.050,229.453 325.215,229.234 325.454 C 228.918 325.798,230.279 325.495,234.800 324.211 C 236.890 323.618,239.187 323.038,239.904 322.922 C 240.621 322.806,241.306 322.551,241.427 322.356 C 241.548 322.160,242.042 322.001,242.524 322.002 C 243.006 322.003,244.210 321.745,245.200 321.430 C 246.190 321.114,247.720 320.665,248.600 320.433 C 254.319 318.922,256.713 318.071,255.367 318.027 C 254.908 318.012,254.428 318.106,254.298 318.235 M147.800 319.200 C 148.240 319.389,148.870 319.544,149.200 319.544 C 149.578 319.544,149.504 319.417,149.000 319.200 C 148.560 319.011,147.930 318.856,147.600 318.856 C 147.222 318.856,147.296 318.983,147.800 319.200 M151.200 320.200 C 151.970 320.497,152.960 320.739,153.400 320.739 C 153.903 320.739,153.681 320.539,152.800 320.200 C 152.030 319.903,151.040 319.661,150.600 319.661 C 150.097 319.661,150.319 319.861,151.200 320.200 M155.000 321.200 C 156.196 321.714,157.195 321.714,156.400 321.200 C 156.070 320.987,155.440 320.822,155.000 320.834 L 154.200 320.856 155.000 321.200 M158.200 322.063 C 158.860 322.280,159.940 322.608,160.600 322.793 C 166.113 324.332,167.882 324.778,168.400 324.761 C 168.730 324.750,166.570 324.041,163.600 323.186 C 158.817 321.809,155.032 321.022,158.200 322.063 M169.400 325.200 C 169.536 325.420,170.042 325.597,170.524 325.594 C 171.236 325.589,171.288 325.515,170.800 325.200 C 170.012 324.691,169.085 324.691,169.400 325.200 M172.000 325.761 C 172.000 325.850,173.305 326.299,174.900 326.761 C 176.495 327.222,178.353 327.779,179.028 328.000 C 180.335 328.425,181.466 328.533,181.132 328.199 C 180.711 327.778,172.000 325.452,172.000 325.761 M225.600 326.250 C 224.610 326.564,222.180 327.253,220.200 327.782 C 216.113 328.874,208.778 330.916,205.800 331.792 C 199.930 333.518,201.006 333.589,191.035 330.819 C 186.048 329.433,181.855 328.412,181.717 328.550 C 181.579 328.687,181.578 328.800,181.714 328.800 C 181.969 328.800,183.502 329.205,190.000 330.991 C 201.603 334.179,199.411 334.131,209.000 331.403 C 210.320 331.028,211.850 330.635,212.400 330.530 C 212.950 330.425,213.760 330.188,214.200 330.003 C 214.996 329.669,220.128 328.232,222.800 327.597 C 225.375 326.984,228.480 326.053,228.708 325.825 C 229.099 325.434,227.470 325.657,225.600 326.250 " stroke="none" fill="#688df0" fill-rule="evenodd"></path><path id="path4" d="M114.709 140.500 C 114.530 141.005,114.640 142.499,115.785 155.200 C 116.132 159.050,116.605 164.515,116.835 167.345 C 117.065 170.175,117.417 172.920,117.617 173.445 L 117.980 174.400 182.849 174.400 L 247.718 174.400 247.447 177.700 C 247.299 179.515,247.004 182.800,246.793 185.000 C 246.583 187.200,246.215 191.340,245.976 194.200 C 245.738 197.060,245.330 201.470,245.071 204.000 L 244.600 208.600 219.000 208.850 C 204.920 208.988,177.380 209.121,157.800 209.146 C 138.220 209.171,121.860 209.194,121.445 209.196 C 120.610 209.200,120.624 210.368,121.577 220.800 C 121.808 223.330,122.335 229.206,122.749 233.857 C 123.162 238.509,123.623 242.514,123.774 242.757 C 123.972 243.078,140.111 243.200,182.191 243.200 C 214.170 243.200,240.624 243.311,240.978 243.447 C 241.525 243.657,241.593 244.243,241.428 247.347 C 241.281 250.134,241.319 250.573,241.588 249.200 C 241.914 247.535,242.130 243.325,241.900 243.103 C 241.845 243.050,215.340 242.915,183.000 242.803 L 124.200 242.600 123.913 239.600 C 123.619 236.513,123.148 231.391,122.389 223.000 C 122.150 220.360,121.774 216.445,121.554 214.299 C 121.334 212.153,121.265 210.218,121.401 209.999 C 121.563 209.737,142.557 209.600,182.747 209.600 C 231.023 209.600,243.980 209.495,244.481 209.100 C 245.168 208.558,245.252 207.976,246.199 197.200 C 246.538 193.350,247.022 187.950,247.276 185.200 C 247.530 182.450,247.751 178.850,247.769 177.200 L 247.800 174.200 220.200 173.951 C 205.020 173.814,175.879 173.682,155.441 173.659 C 135.004 173.635,118.239 173.567,118.185 173.508 C 118.082 173.394,117.079 163.151,116.372 155.000 C 116.143 152.360,115.786 148.995,115.578 147.523 C 115.370 146.051,115.200 143.958,115.200 142.873 L 115.200 140.900 199.817 140.600 C 246.357 140.436,284.540 140.406,284.668 140.535 C 284.797 140.664,284.596 144.241,284.223 148.484 C 283.285 159.123,283.020 164.927,283.770 158.400 C 284.484 152.182,285.204 143.779,285.202 141.700 L 285.200 140.000 200.043 140.000 C 132.278 140.000,114.849 140.102,114.709 140.500 M282.625 166.500 C 282.005 173.195,281.572 178.071,281.215 182.400 C 281.006 184.930,280.544 190.240,280.188 194.200 C 279.833 198.160,279.373 203.290,279.167 205.600 C 278.960 207.910,278.715 211.330,278.621 213.200 L 278.450 216.600 278.812 213.800 C 279.203 210.778,279.599 206.510,281.408 185.800 C 281.754 181.840,282.210 176.620,282.422 174.200 C 283.202 165.269,283.310 163.600,283.104 163.600 C 282.989 163.600,282.773 164.905,282.625 166.500 M277.890 219.400 C 277.725 220.940,277.405 224.450,277.178 227.200 C 276.502 235.405,276.073 240.237,275.401 247.200 C 275.051 250.830,274.599 255.870,274.397 258.400 C 273.950 263.975,272.985 274.932,272.388 281.200 C 272.147 283.730,271.788 287.780,271.591 290.200 C 271.394 292.620,271.142 295.230,271.032 296.000 C 270.922 296.770,270.526 301.019,270.153 305.442 L 269.475 313.485 268.237 313.916 C 267.557 314.153,266.217 314.550,265.260 314.800 C 264.302 315.049,263.602 315.335,263.703 315.436 C 263.934 315.667,268.078 314.600,269.124 314.041 C 269.976 313.585,270.114 312.824,270.798 304.800 C 271.014 302.270,271.469 297.140,271.808 293.400 C 272.591 284.779,272.969 280.470,273.967 268.800 C 274.757 259.566,275.249 254.148,276.017 246.200 C 277.307 232.841,278.433 219.021,278.321 217.902 C 278.235 217.052,278.086 217.571,277.890 219.400 M240.448 257.300 C 240.177 260.435,239.790 264.530,239.589 266.400 C 239.387 268.270,238.922 273.580,238.555 278.200 C 237.779 287.989,238.255 287.174,232.400 288.753 C 229.870 289.436,227.170 290.174,226.400 290.394 C 225.630 290.614,219.323 292.332,212.384 294.211 L 199.769 297.627 185.584 293.787 C 177.783 291.675,169.451 289.430,167.069 288.797 C 161.535 287.327,161.773 287.586,161.452 282.702 C 161.304 280.446,161.001 276.710,160.778 274.400 C 160.556 272.090,160.210 268.149,160.009 265.642 C 159.809 263.135,159.486 260.926,159.292 260.732 C 158.833 260.273,125.992 260.248,125.534 260.706 C 125.224 261.016,125.678 266.775,128.226 294.800 C 128.556 298.430,128.998 303.560,129.210 306.200 C 129.717 312.544,129.907 313.523,130.717 313.951 C 131.093 314.149,135.810 315.518,141.200 316.993 C 146.590 318.469,151.810 319.907,152.800 320.189 C 153.790 320.471,155.320 320.906,156.200 321.157 C 158.051 321.683,170.045 324.996,173.000 325.797 C 174.100 326.096,176.350 326.724,178.000 327.194 C 179.650 327.663,182.170 328.369,183.600 328.761 C 185.030 329.153,189.332 330.342,193.160 331.404 C 200.774 333.515,200.019 333.492,205.800 331.792 C 208.327 331.049,215.563 329.026,220.000 327.822 C 234.334 323.932,241.583 321.850,241.406 321.673 C 241.192 321.459,236.197 322.741,229.400 324.756 C 228.740 324.952,226.310 325.598,224.000 326.191 C 221.690 326.784,219.440 327.414,219.000 327.591 C 218.560 327.767,217.120 328.202,215.800 328.557 C 214.480 328.911,211.420 329.751,209.000 330.422 C 206.580 331.093,203.610 331.915,202.400 332.247 C 200.714 332.711,199.873 332.753,198.800 332.428 C 198.030 332.195,195.780 331.565,193.800 331.027 C 191.820 330.490,188.760 329.658,187.000 329.179 C 185.240 328.699,183.215 328.147,182.500 327.953 C 181.785 327.759,180.615 327.431,179.900 327.225 C 179.185 327.019,176.890 326.377,174.800 325.798 C 172.710 325.220,170.010 324.469,168.800 324.130 C 166.434 323.468,165.887 323.318,161.000 321.998 C 159.240 321.522,157.440 320.982,157.000 320.797 C 156.560 320.612,155.750 320.366,155.200 320.251 C 152.425 319.671,146.796 318.129,146.549 317.882 C 146.394 317.727,145.855 317.600,145.352 317.600 C 144.849 317.600,144.024 317.434,143.519 317.232 C 142.405 316.786,139.911 316.049,134.573 314.589 L 130.546 313.487 130.059 308.443 C 129.347 301.076,127.337 278.693,126.805 272.200 C 126.552 269.120,126.185 265.446,125.989 264.035 C 125.793 262.625,125.726 261.320,125.840 261.135 C 126.292 260.404,158.689 260.734,158.973 261.473 C 159.214 262.102,159.388 263.945,160.392 276.500 C 161.381 288.879,160.629 287.582,168.000 289.609 C 171.190 290.487,174.430 291.383,175.200 291.600 C 175.970 291.818,178.310 292.448,180.400 293.000 C 182.490 293.552,184.830 294.182,185.600 294.399 C 200.405 298.576,198.699 298.452,207.677 296.001 C 218.608 293.016,224.385 291.459,230.600 289.824 C 238.423 287.766,238.147 287.950,238.454 284.586 C 238.593 283.054,239.013 278.380,239.386 274.200 C 239.759 270.020,240.228 264.800,240.428 262.600 C 241.061 255.652,241.317 251.600,241.125 251.600 C 241.023 251.600,240.718 254.165,240.448 257.300 M259.200 316.481 C 257.770 316.916,256.150 317.359,255.600 317.466 C 255.050 317.573,254.240 317.812,253.800 317.997 C 253.360 318.182,251.470 318.723,249.600 319.200 C 244.377 320.531,243.873 320.676,242.800 321.163 L 241.800 321.617 242.800 321.439 C 243.350 321.341,245.510 320.781,247.600 320.195 C 252.484 318.825,254.149 318.365,259.794 316.820 C 261.550 316.339,263.065 315.868,263.160 315.773 C 263.537 315.397,261.668 315.731,259.200 316.481 " stroke="none" fill="#94a4ec" fill-rule="evenodd"></path></g></svg>