<svg id="svg" version="1.1" xmlns="http://www.w3.org/2000/svg" xmlns:xlink="http://www.w3.org/1999/xlink" width="400" height="385.65400843881855" viewBox="0, 0, 400,385.65400843881855"><g id="svgg"><path id="path0" d="M0.000 192.864 L 0.000 385.728 200.000 385.728 L 400.000 385.728 400.000 192.864 L 400.000 0.000 200.000 0.000 L 0.000 0.000 0.000 192.864 M353.736 18.736 C 354.253 19.359,354.028 25.212,353.322 29.523 C 353.115 30.788,352.945 32.831,352.943 34.063 C 352.941 36.336,352.429 41.727,351.783 46.287 C 351.588 47.666,351.232 51.832,350.992 55.545 C 350.752 59.257,350.311 63.929,350.012 65.926 C 349.714 67.923,349.472 71.047,349.476 72.869 C 349.479 74.691,349.137 79.392,348.715 83.317 C 348.294 87.242,347.763 92.883,347.536 95.853 C 347.309 98.824,346.966 101.948,346.774 102.797 C 346.582 103.645,346.239 107.724,346.010 111.861 C 345.782 115.998,345.422 120.164,345.211 121.119 C 345.001 122.073,344.639 125.545,344.407 128.833 C 344.176 132.122,343.848 136.461,343.679 138.476 C 343.510 140.492,343.183 144.484,342.952 147.348 C 342.721 150.212,342.433 152.816,342.312 153.134 C 342.190 153.452,341.943 156.229,341.762 159.305 C 341.581 162.382,341.169 167.589,340.845 170.878 C 340.522 174.166,340.055 179.460,339.808 182.642 C 339.561 185.824,339.210 188.707,339.030 189.048 C 338.849 189.389,338.678 191.038,338.650 192.713 C 338.622 194.387,338.181 199.619,337.670 204.339 C 337.159 209.059,336.741 213.857,336.741 215.001 C 336.741 216.146,336.467 219.575,336.133 222.620 C 335.471 228.654,335.106 232.967,334.457 242.430 C 334.224 245.824,333.856 249.350,333.640 250.265 C 333.423 251.179,333.070 255.258,332.854 259.329 C 332.639 263.400,332.385 267.165,332.290 267.695 C 331.835 270.238,330.931 279.036,331.084 279.434 C 331.179 279.682,330.848 283.260,330.349 287.387 C 329.850 291.513,329.434 296.365,329.425 298.168 C 329.416 299.971,329.147 303.009,328.827 304.918 C 328.507 306.827,328.073 311.831,327.862 316.036 C 327.652 320.242,327.328 323.974,327.142 324.329 C 326.957 324.685,326.727 326.521,326.632 328.411 C 326.444 332.128,325.546 333.638,323.508 333.666 C 323.042 333.673,321.099 334.121,319.190 334.661 C 317.281 335.202,314.693 335.901,313.439 336.215 C 312.185 336.528,310.675 337.035,310.083 337.341 C 309.491 337.647,308.379 337.898,307.612 337.898 C 306.845 337.898,305.900 338.068,305.512 338.276 C 305.123 338.483,302.488 339.272,299.655 340.029 C 296.821 340.786,293.816 341.671,292.976 341.995 C 292.136 342.319,289.956 342.897,288.132 343.279 C 286.307 343.661,284.279 344.251,283.624 344.589 C 282.970 344.928,281.678 345.313,280.754 345.446 C 278.317 345.796,270.283 347.939,269.737 348.385 C 269.135 348.876,264.449 350.129,260.743 350.791 C 259.146 351.075,256.022 351.915,253.799 352.657 C 251.577 353.399,248.717 354.224,247.445 354.490 C 246.172 354.756,243.134 355.635,240.694 356.444 C 238.255 357.252,235.217 358.096,233.944 358.320 C 231.401 358.767,229.423 359.313,223.326 361.250 C 221.092 361.959,218.202 362.711,216.904 362.920 C 215.605 363.129,214.222 363.479,213.829 363.697 C 213.028 364.143,206.294 366.112,202.593 366.983 C 199.581 367.691,194.337 366.805,188.119 364.537 C 186.888 364.088,183.677 363.128,180.983 362.404 C 178.289 361.680,174.523 360.653,172.613 360.121 C 170.704 359.589,167.493 358.701,165.477 358.148 C 158.803 356.315,157.985 356.081,154.098 354.897 C 151.977 354.251,149.758 353.720,149.168 353.718 C 148.578 353.715,146.755 353.208,145.118 352.592 C 143.480 351.975,141.452 351.353,140.609 351.208 C 139.767 351.064,138.292 350.675,137.331 350.344 C 136.370 350.014,134.455 349.522,133.076 349.253 C 131.697 348.983,129.007 348.242,127.097 347.605 C 123.430 346.382,122.399 346.091,117.454 344.884 C 115.757 344.470,112.719 343.665,110.704 343.095 C 108.689 342.525,106.345 341.896,105.497 341.697 C 103.121 341.139,95.130 338.610,94.696 338.279 C 94.484 338.117,93.616 337.904,92.768 337.805 C 91.104 337.612,88.123 336.863,82.932 335.334 C 81.128 334.803,78.959 334.191,78.110 333.975 C 74.117 332.955,73.295 331.796,73.285 327.175 C 73.284 326.390,73.108 324.672,72.895 323.359 C 72.682 322.045,72.241 317.618,71.915 313.522 C 70.887 300.603,70.602 297.355,69.972 291.418 C 69.635 288.235,69.209 283.028,69.027 279.846 C 68.844 276.663,68.501 272.498,68.265 270.588 C 67.383 263.452,67.169 261.066,67.363 260.559 C 67.473 260.273,67.275 257.899,66.922 255.284 C 66.325 250.851,65.628 243.563,64.790 232.980 C 64.597 230.540,64.261 226.895,64.043 224.879 C 63.825 222.864,63.482 218.872,63.280 216.008 C 63.078 213.144,62.740 209.499,62.529 207.907 C 62.319 206.316,61.956 201.977,61.723 198.264 C 61.491 194.552,61.144 190.386,60.952 189.007 C 60.338 184.585,59.819 179.321,59.411 173.385 C 58.513 160.304,57.854 152.721,57.284 148.891 C 56.953 146.663,56.506 142.150,56.291 138.862 C 55.655 129.111,55.180 123.059,54.777 119.576 C 54.569 117.772,54.228 113.607,54.020 110.318 C 53.813 107.030,53.475 103.558,53.271 102.604 C 53.066 101.649,52.716 98.698,52.493 96.046 C 52.271 93.394,51.816 88.795,51.482 85.824 C 51.148 82.854,50.732 77.734,50.558 74.446 C 50.383 71.157,49.866 65.613,49.408 62.124 C 48.951 58.636,48.656 55.574,48.754 55.320 C 48.951 54.805,48.547 49.633,47.670 41.466 C 47.352 38.496,47.084 34.495,47.075 32.575 C 47.066 30.655,46.901 28.919,46.709 28.717 C 46.424 28.419,46.049 20.720,46.236 19.010 C 46.343 18.030,352.923 17.756,353.736 18.736 " stroke="none" fill="#f5f5f4" fill-rule="evenodd"></path><path id="path1" d="M104.146 81.871 C 104.144 83.654,104.711 90.088,106.073 103.761 C 106.274 105.776,106.646 109.733,106.900 112.553 C 107.154 115.374,107.549 117.804,107.779 117.953 C 108.009 118.103,117.830 118.312,129.605 118.419 L 151.013 118.611 151.013 183.992 L 151.013 249.373 149.277 249.262 C 146.061 249.056,129.891 246.514,129.546 246.160 C 129.326 245.934,128.221 234.304,127.277 222.279 C 127.107 220.106,126.856 217.824,126.721 217.207 L 126.475 216.086 121.000 215.814 C 113.288 215.432,89.226 215.721,88.796 216.201 C 88.595 216.426,88.591 218.189,88.787 220.444 C 88.971 222.565,89.278 226.123,89.467 228.351 C 90.130 236.138,91.797 254.808,92.187 258.824 C 92.404 261.051,92.670 264.089,92.778 265.574 C 92.887 267.059,93.174 269.967,93.416 272.037 L 93.857 275.800 95.241 276.152 C 96.002 276.345,97.232 276.614,97.975 276.749 C 98.717 276.884,100.106 277.162,101.061 277.368 C 104.514 278.112,112.869 279.760,114.754 280.069 C 115.815 280.242,119.807 281.019,123.626 281.795 C 127.445 282.571,131.003 283.289,131.533 283.390 C 134.472 283.954,149.954 287.001,152.748 287.567 C 154.552 287.931,156.818 288.367,157.784 288.535 C 158.750 288.703,160.226 289.020,161.063 289.240 C 162.446 289.604,166.777 290.444,171.263 291.218 C 172.218 291.383,176.539 292.242,180.866 293.128 C 185.319 294.040,188.878 294.593,189.068 294.403 C 189.428 294.043,189.534 81.158,189.174 80.576 C 189.051 80.377,171.037 80.231,146.554 80.231 L 104.147 80.231 104.146 81.871 M212.283 85.053 C 212.284 86.750,212.352 87.397,212.433 86.489 C 212.515 85.582,212.514 84.193,212.431 83.403 C 212.348 82.614,212.281 83.356,212.283 85.053 M305.882 95.901 C 305.882 97.099,305.965 97.230,306.461 96.818 C 306.779 96.554,307.040 95.925,307.040 95.420 C 307.040 94.862,306.813 94.503,306.461 94.503 C 306.053 94.503,305.882 94.916,305.882 95.901 M308.431 95.114 C 308.174 95.783,308.101 101.674,308.353 101.414 C 308.439 101.326,308.611 100.604,308.736 99.810 C 308.861 99.015,309.134 97.627,309.342 96.724 C 309.550 95.821,309.725 94.952,309.730 94.793 C 309.748 94.239,308.663 94.507,308.431 95.114 M304.584 108.305 C 304.355 108.676,304.533 110.641,304.822 110.929 C 304.932 111.039,305.095 110.502,305.185 109.736 C 305.339 108.416,305.006 107.623,304.584 108.305 M305.786 112.081 C 305.627 112.243,305.497 112.968,305.497 113.693 C 305.497 115.212,304.693 115.258,304.322 113.761 C 304.107 112.893,304.076 112.915,303.896 114.079 C 303.686 115.431,305.630 116.054,306.115 114.791 C 306.411 114.019,306.133 111.729,305.786 112.081 M307.340 113.421 C 307.246 114.067,307.313 114.685,307.490 114.794 C 307.666 114.903,307.811 114.375,307.811 113.620 C 307.811 111.937,307.573 111.837,307.340 113.421 M254.848 114.808 C 254.540 115.116,254.888 115.718,255.375 115.718 C 255.574 115.718,255.738 115.458,255.738 115.140 C 255.738 114.543,255.283 114.373,254.848 114.808 M251.880 116.449 C 251.880 117.262,252.879 117.829,253.251 117.228 C 253.511 116.808,252.766 115.718,252.219 115.718 C 252.033 115.718,251.880 116.047,251.880 116.449 M252.147 159.474 C 251.763 159.765,251.589 160.086,251.761 160.188 C 252.219 160.458,253.809 159.783,253.809 159.318 C 253.809 158.764,252.980 158.842,252.147 159.474 M255.529 159.717 C 255.174 160.291,255.586 160.604,256.324 160.320 C 256.665 160.190,256.836 159.908,256.704 159.694 C 256.391 159.188,255.849 159.199,255.529 159.717 M253.809 161.840 C 253.809 162.242,254.090 162.404,254.647 162.322 C 255.882 162.140,256.014 161.234,254.806 161.234 C 254.157 161.234,253.809 161.446,253.809 161.840 M299.922 162.361 C 299.485 163.068,299.822 168.563,300.303 168.563 C 300.872 168.563,301.086 162.572,300.528 162.227 C 300.320 162.098,300.047 162.159,299.922 162.361 M303.077 162.239 C 302.839 162.478,303.139 166.697,303.416 166.988 C 303.499 167.077,303.568 165.992,303.568 164.577 C 303.568 162.017,303.521 161.795,303.077 162.239 M301.543 173.026 C 301.113 173.463,301.193 175.506,301.639 175.506 C 301.851 175.506,302.030 176.070,302.037 176.760 C 302.047 177.845,302.104 177.917,302.465 177.296 C 302.763 176.784,302.763 176.343,302.467 175.754 C 302.239 175.299,302.003 174.434,301.942 173.830 C 301.882 173.226,301.702 172.865,301.543 173.026 M299.787 178.849 C 299.742 180.710,299.539 182.057,299.291 182.139 C 299.060 182.216,298.938 182.795,299.019 183.425 C 299.309 185.684,300.140 181.489,299.997 178.489 L 299.864 175.699 299.787 178.849 M298.939 188.621 C 298.939 189.341,299.042 189.444,299.402 189.084 C 299.762 188.724,299.762 188.518,299.402 188.158 C 299.042 187.798,298.939 187.901,298.939 188.621 M268.595 189.934 C 268.595 190.232,268.827 190.387,269.110 190.279 C 269.392 190.170,269.624 189.926,269.624 189.737 C 269.624 189.547,269.392 189.392,269.110 189.392 C 268.827 189.392,268.595 189.636,268.595 189.934 M211.379 192.263 C 211.379 193.055,212.178 193.444,212.554 192.835 C 212.728 192.553,212.785 192.184,212.681 192.015 C 212.357 191.490,211.379 191.676,211.379 192.263 M214.471 192.575 C 214.475 193.277,214.548 193.332,214.851 192.864 C 215.334 192.116,215.334 191.707,214.851 191.707 C 214.638 191.707,214.467 192.097,214.471 192.575 M256.220 192.348 C 255.444 192.661,255.662 193.160,256.729 193.516 C 257.775 193.865,263.067 193.303,263.067 192.843 C 263.067 192.262,257.442 191.855,256.220 192.348 M237.030 195.184 L 216.972 195.382 240.116 195.442 C 252.845 195.476,263.086 195.444,262.874 195.372 C 261.915 195.045,255.688 194.999,237.030 195.184 M264.609 197.066 C 264.609 197.702,264.858 198.277,265.188 198.404 C 265.634 198.575,265.767 198.319,265.767 197.288 C 265.767 196.356,265.591 195.950,265.188 195.950 C 264.807 195.950,264.609 196.331,264.609 197.066 M297.337 196.143 C 296.908 196.800,297.005 200.738,297.440 200.303 C 297.652 200.091,297.773 198.981,297.708 197.837 C 297.643 196.693,297.476 195.931,297.337 196.143 M299.037 197.300 C 299.041 198.149,299.120 198.450,299.212 197.970 C 299.304 197.491,299.301 196.796,299.204 196.428 C 299.108 196.059,299.032 196.451,299.037 197.300 M267.806 197.507 C 267.734 198.533,267.793 198.607,268.288 198.112 C 268.979 197.422,269.029 196.335,268.370 196.336 C 268.105 196.337,267.851 196.863,267.806 197.507 M263.784 200.680 C 263.586 202.291,264.018 203.493,264.419 202.447 C 264.549 202.108,264.500 201.245,264.309 200.529 L 263.963 199.229 263.784 200.680 M299.808 201.543 C 299.812 202.392,299.891 202.693,299.984 202.213 C 300.076 201.734,300.072 201.039,299.976 200.671 C 299.879 200.302,299.804 200.694,299.808 201.543 M298.273 210.608 C 298.273 211.562,298.348 211.953,298.440 211.475 C 298.532 210.998,298.532 210.217,298.440 209.740 C 298.348 209.262,298.273 209.653,298.273 210.608 M298.016 218.932 C 297.635 219.925,297.749 222.951,298.168 222.951 C 298.382 222.951,298.554 221.922,298.554 220.636 C 298.554 218.264,298.427 217.862,298.016 218.932 M261.257 230.473 C 261.260 231.745,261.332 232.220,261.417 231.526 C 261.503 230.833,261.502 229.792,261.414 229.212 C 261.325 228.632,261.255 229.200,261.257 230.473 M297.100 234.908 C 297.100 235.651,297.179 235.955,297.276 235.583 C 297.374 235.212,297.374 234.605,297.276 234.233 C 297.179 233.862,297.100 234.166,297.100 234.908 M260.446 237.608 C 260.508 238.775,260.728 239.730,260.935 239.730 C 261.565 239.730,261.558 237.209,260.926 236.321 C 260.366 235.534,260.339 235.608,260.446 237.608 M296.239 239.794 C 296.239 241.633,296.303 243.065,296.380 242.977 C 296.712 242.599,296.908 236.451,296.588 236.451 C 296.396 236.451,296.239 237.956,296.239 239.794 M262.804 240.694 C 262.804 242.073,262.874 242.637,262.960 241.948 C 263.045 241.258,263.045 240.130,262.960 239.441 C 262.874 238.751,262.804 239.315,262.804 240.694 M259.595 247.059 C 259.595 247.377,259.855 247.637,260.174 247.637 C 260.559 247.637,260.752 248.023,260.752 248.795 C 260.752 250.131,261.490 250.326,262.206 249.180 C 262.471 248.756,262.531 248.409,262.339 248.409 C 262.147 248.409,261.582 247.978,261.082 247.451 C 260.038 246.351,259.595 246.234,259.595 247.059 M294.859 249.470 C 295.116 252.322,295.853 254.353,295.853 252.207 C 295.853 249.900,295.328 246.480,294.974 246.480 C 294.729 246.480,294.687 247.563,294.859 249.470 M255.855 247.916 C 256.529 248.017,257.098 248.432,257.363 249.015 C 257.949 250.300,258.423 250.191,258.326 248.795 C 258.248 247.684,258.177 247.641,256.509 247.696 C 255.328 247.735,255.119 247.805,255.855 247.916 M250.530 248.795 C 250.834 249.286,253.049 249.286,253.809 248.795 C 254.223 248.527,253.804 248.419,252.340 248.415 C 251.071 248.411,250.383 248.556,250.530 248.795 M254.966 249.566 C 254.966 249.778,255.313 249.952,255.738 249.952 C 256.162 249.952,256.509 249.778,256.509 249.566 C 256.509 249.354,256.162 249.180,255.738 249.180 C 255.313 249.180,254.966 249.354,254.966 249.566 M236.644 251.880 C 236.502 252.110,236.969 252.266,237.801 252.266 C 238.634 252.266,239.101 252.110,238.959 251.880 C 238.827 251.668,238.307 251.495,237.801 251.495 C 237.296 251.495,236.775 251.668,236.644 251.880 M232.015 252.266 C 231.884 252.478,230.963 252.663,229.968 252.676 C 228.476 252.696,228.313 252.763,229.038 253.054 C 229.627 253.291,230.634 253.221,232.086 252.843 C 234.669 252.170,235.080 251.880,233.453 251.880 C 232.793 251.880,232.147 252.054,232.015 252.266 M241.714 252.845 C 241.396 253.163,240.819 253.429,240.433 253.437 C 240.046 253.445,239.310 253.683,238.797 253.967 L 237.865 254.484 238.737 254.951 C 239.730 255.482,241.509 255.180,241.367 254.503 C 241.315 254.256,241.754 253.814,242.341 253.521 C 242.929 253.228,243.309 252.826,243.186 252.627 C 242.866 252.109,242.377 252.181,241.714 252.845 M224.301 253.809 C 224.162 254.033,224.546 254.195,225.220 254.195 C 225.856 254.195,226.484 254.021,226.615 253.809 C 226.754 253.585,226.370 253.423,225.696 253.423 C 225.060 253.423,224.432 253.597,224.301 253.809 M234.716 253.809 C 234.847 254.021,235.204 254.195,235.510 254.195 C 235.815 254.195,236.066 254.021,236.066 253.809 C 236.066 253.597,235.708 253.423,235.271 253.423 C 234.835 253.423,234.584 253.597,234.716 253.809 M228.833 254.280 C 228.356 254.510,227.965 254.851,227.965 255.037 C 227.965 255.583,229.254 255.923,229.421 255.421 C 229.504 255.171,229.982 254.966,230.482 254.966 C 231.706 254.966,232.027 254.340,230.950 254.051 C 229.890 253.767,229.899 253.766,228.833 254.280 M214.812 255.952 C 216.170 256.541,216.657 256.475,216.216 255.763 C 216.077 255.537,215.408 255.359,214.731 255.367 L 213.500 255.382 214.812 255.952 M212.150 256.316 C 212.150 256.635,212.324 256.895,212.536 256.895 C 212.748 256.895,212.922 256.635,212.922 256.316 C 212.922 255.998,212.748 255.738,212.536 255.738 C 212.324 255.738,212.150 255.998,212.150 256.316 M219.865 256.123 C 219.865 256.336,220.516 256.492,221.311 256.471 C 222.602 256.436,222.654 256.399,221.794 256.123 C 220.415 255.682,219.865 255.682,219.865 256.123 M291.996 257.644 C 291.996 258.268,292.151 258.874,292.341 258.991 C 292.750 259.244,293.278 257.409,292.949 256.877 C 292.493 256.138,291.996 256.538,291.996 257.644 M287.092 259.402 C 287.095 260.463,287.170 260.851,287.258 260.265 C 287.347 259.678,287.345 258.810,287.253 258.336 C 287.162 257.862,287.089 258.341,287.092 259.402 M294.480 259.745 C 294.352 260.252,294.417 261.424,294.624 262.349 L 294.999 264.031 295.041 261.427 C 295.083 258.740,294.883 258.139,294.480 259.745 M292.339 262.392 C 292.279 263.079,292.320 266.202,292.402 267.117 C 292.500 268.212,293.104 265.094,293.131 263.356 C 293.151 262.062,292.444 261.202,292.339 262.392 M291.495 268.598 C 291.385 268.883,291.451 269.360,291.640 269.659 C 291.891 270.055,291.986 269.914,291.990 269.142 C 291.997 267.990,291.808 267.782,291.495 268.598 M292.567 272.723 C 292.417 272.965,292.474 273.342,292.694 273.562 C 292.913 273.781,293.001 274.200,292.889 274.493 C 292.777 274.785,292.877 275.024,293.112 275.024 C 293.347 275.024,293.565 274.677,293.597 274.253 C 293.629 273.828,293.672 273.279,293.693 273.031 C 293.746 272.413,292.901 272.182,292.567 272.723 M284.446 275.319 C 284.219 275.475,283.926 275.893,283.795 276.248 C 283.664 276.603,283.156 276.970,282.666 277.063 C 282.076 277.176,282.256 277.251,283.198 277.286 C 283.981 277.315,284.736 277.154,284.875 276.929 C 285.014 276.704,285.556 276.357,286.078 276.158 C 286.601 275.960,286.921 275.623,286.789 275.411 C 286.512 274.962,285.051 274.905,284.446 275.319 M290.260 275.410 C 290.125 275.629,290.449 275.796,291.009 275.796 C 291.552 275.796,291.996 275.622,291.996 275.410 C 291.996 275.198,291.659 275.024,291.247 275.024 C 290.836 275.024,290.391 275.198,290.260 275.410 M261.715 279.413 C 261.069 279.886,261.123 279.950,262.370 280.184 C 263.820 280.456,266.061 279.898,264.995 279.531 C 263.399 278.981,262.357 278.944,261.715 279.413 M273.481 279.267 C 273.163 279.473,272.252 279.644,271.456 279.647 C 270.430 279.651,270.010 279.821,270.010 280.231 C 270.010 280.886,270.614 281.007,270.974 280.424 C 271.105 280.212,271.853 280.033,272.636 280.026 C 273.419 280.020,274.397 279.759,274.809 279.448 C 275.729 278.752,274.531 278.589,273.481 279.267 M256.509 280.553 C 256.509 281.278,256.880 281.563,257.511 281.321 C 258.332 281.006,258.158 280.039,257.281 280.039 C 256.856 280.039,256.509 280.270,256.509 280.553 M267.020 280.690 C 267.392 280.787,267.999 280.787,268.370 280.690 C 268.742 280.593,268.438 280.514,267.695 280.514 C 266.953 280.514,266.649 280.593,267.020 280.690 M214.389 283.317 C 214.272 283.954,214.290 285.342,214.429 286.403 L 214.682 288.332 214.936 286.346 C 215.076 285.254,215.058 283.865,214.896 283.260 L 214.601 282.160 214.389 283.317 M236.451 283.896 C 236.451 284.108,236.809 284.282,237.246 284.282 C 237.682 284.282,237.932 284.108,237.801 283.896 C 237.670 283.684,237.313 283.510,237.007 283.510 C 236.701 283.510,236.451 283.684,236.451 283.896 M243.834 284.294 C 243.172 284.846,243.087 285.053,243.522 285.053 C 243.851 285.053,244.228 284.879,244.359 284.667 C 244.490 284.455,245.031 284.282,245.561 284.282 C 246.106 284.282,246.422 284.114,246.287 283.896 C 245.913 283.290,244.828 283.466,243.834 284.294 M250.439 284.944 C 251.026 285.033,251.893 285.030,252.368 284.939 C 252.842 284.847,252.363 284.775,251.302 284.778 C 250.241 284.781,249.853 284.855,250.439 284.944 M236.066 285.824 C 236.066 286.285,237.115 286.285,238.187 285.824 C 238.806 285.559,238.672 285.488,237.512 285.466 C 236.716 285.451,236.066 285.612,236.066 285.824 M246.191 285.705 C 246.562 285.802,247.170 285.802,247.541 285.705 C 247.912 285.608,247.608 285.528,246.866 285.528 C 246.123 285.528,245.820 285.608,246.191 285.705 M229.508 286.789 C 229.508 287.438,229.579 287.464,230.441 287.133 C 231.303 286.803,231.199 286.210,230.280 286.210 C 229.851 286.210,229.508 286.467,229.508 286.789 M238.766 287.367 C 238.766 287.820,239.062 287.820,240.116 287.367 C 240.799 287.074,240.766 287.033,239.826 287.009 C 239.243 286.994,238.766 287.155,238.766 287.367 M232.980 288.139 C 232.980 288.351,233.414 288.525,233.944 288.525 C 234.474 288.525,234.908 288.351,234.908 288.139 C 234.908 287.927,234.474 287.753,233.944 287.753 C 233.414 287.753,232.980 287.927,232.980 288.139 M211.765 291.610 C 212.525 292.102,214.079 292.102,214.079 291.610 C 214.079 291.398,213.428 291.227,212.633 291.231 C 211.557 291.235,211.334 291.332,211.765 291.610 M218.708 291.610 C 218.708 292.100,219.878 292.100,220.636 291.610 C 221.076 291.327,220.913 291.235,219.961 291.231 C 219.272 291.227,218.708 291.398,218.708 291.610 M216.201 292.382 C 216.069 292.594,216.309 292.768,216.734 292.768 C 217.158 292.768,217.612 292.594,217.743 292.382 C 217.875 292.170,217.635 291.996,217.210 291.996 C 216.786 291.996,216.332 292.170,216.201 292.382 M212.501 293.183 C 212.106 293.434,212.246 293.529,213.018 293.533 C 214.170 293.540,214.378 293.350,213.562 293.037 C 213.278 292.928,212.800 292.994,212.501 293.183 " stroke="none" fill="#2a2a27" fill-rule="evenodd"></path><path id="path2" d="M54.116 19.286 C 50.679 19.392,47.698 19.653,47.493 19.865 C 46.944 20.433,48.661 42.962,50.947 65.188 C 51.132 66.991,51.452 70.463,51.658 72.903 C 52.213 79.486,52.835 86.489,53.250 90.839 C 53.453 92.960,53.868 97.907,54.173 101.832 C 54.477 105.757,54.917 110.791,55.150 113.018 C 55.812 119.351,56.920 131.780,57.455 138.862 C 57.826 143.785,58.344 148.980,59.013 154.484 C 59.220 156.181,59.670 161.389,60.015 166.056 C 60.937 178.551,61.289 182.698,61.702 185.921 C 61.907 187.512,62.256 191.418,62.479 194.600 C 62.879 200.314,63.409 206.333,64.042 212.343 C 64.379 215.541,65.328 226.410,65.946 234.137 C 67.011 247.474,68.561 263.962,68.879 265.350 C 68.997 265.864,69.268 268.554,69.482 271.329 C 69.696 274.104,70.018 278.197,70.198 280.424 C 70.378 282.652,70.712 286.818,70.940 289.682 C 71.571 297.587,72.182 303.723,72.366 304.022 C 72.458 304.170,72.710 307.209,72.928 310.776 C 73.146 314.343,73.498 318.910,73.712 320.926 C 73.925 322.941,74.230 326.000,74.389 327.723 C 74.582 329.821,74.889 331.067,75.318 331.496 C 75.935 332.113,84.331 334.787,88.717 335.764 C 91.087 336.292,96.957 337.871,101.639 339.242 C 103.337 339.738,106.114 340.527,107.811 340.993 C 109.508 341.460,111.938 342.148,113.211 342.523 C 114.484 342.897,116.307 343.415,117.261 343.674 C 118.216 343.932,120.039 344.460,121.311 344.847 C 122.584 345.234,124.233 345.668,124.976 345.813 C 125.718 345.957,127.835 346.579,129.678 347.194 C 131.522 347.809,133.640 348.312,134.385 348.312 C 135.130 348.312,136.139 348.470,136.626 348.662 C 137.113 348.855,138.467 349.404,139.634 349.884 C 140.800 350.364,142.449 350.891,143.298 351.056 C 146.556 351.689,153.779 353.648,158.920 355.293 C 160.935 355.938,163.365 356.610,164.320 356.786 C 165.275 356.963,167.011 357.390,168.177 357.737 C 169.344 358.084,171.340 358.623,172.613 358.937 C 173.886 359.250,175.275 359.667,175.699 359.865 C 176.569 360.269,186.293 362.971,186.878 362.970 C 187.086 362.970,188.127 363.301,189.192 363.706 C 194.112 365.577,199.931 366.614,201.964 365.982 C 203.005 365.659,204.899 365.175,206.172 364.906 C 207.445 364.637,210.048 363.831,211.958 363.114 C 213.867 362.397,215.996 361.811,216.690 361.812 C 217.383 361.812,219.813 361.230,222.090 360.518 C 226.124 359.256,230.826 357.903,233.944 357.107 C 234.793 356.891,236.335 356.385,237.371 355.984 C 238.407 355.584,239.520 355.256,239.844 355.256 C 240.168 355.256,241.317 355.001,242.396 354.691 C 244.882 353.975,249.733 352.649,251.495 352.203 C 252.237 352.015,254.094 351.490,255.620 351.036 C 257.146 350.582,260.846 349.604,263.842 348.863 C 266.837 348.123,269.580 347.356,269.938 347.159 C 270.296 346.962,272.064 346.442,273.867 346.003 C 279.889 344.537,282.565 343.804,283.330 343.411 C 283.747 343.196,284.696 342.910,285.439 342.775 C 286.181 342.639,288.438 342.015,290.453 341.388 C 292.469 340.761,296.982 339.538,300.482 338.670 C 303.983 337.803,307.975 336.757,309.354 336.346 C 314.283 334.876,318.850 333.565,321.697 332.805 C 325.764 331.718,325.196 333.469,326.485 318.033 C 326.822 314.002,327.442 307.319,327.864 303.182 C 328.286 299.045,328.996 291.234,329.441 285.824 C 329.885 280.415,330.402 274.426,330.589 272.517 C 330.775 270.608,331.273 264.619,331.694 259.209 C 332.116 253.799,332.735 247.310,333.070 244.789 C 333.405 242.268,333.849 237.842,334.056 234.953 C 334.263 232.065,334.590 227.878,334.783 225.651 C 335.987 211.729,336.426 206.969,336.771 204.105 C 336.984 202.331,337.331 198.339,337.543 195.233 C 337.754 192.127,338.090 188.110,338.288 186.307 C 338.486 184.503,338.811 180.945,339.010 178.399 C 339.661 170.071,340.582 159.190,340.968 155.256 C 341.177 153.134,341.448 150.096,341.572 148.505 C 341.696 146.914,341.966 144.311,342.172 142.719 C 342.378 141.128,342.805 136.615,343.119 132.690 C 343.434 128.766,343.863 124.079,344.073 122.276 C 344.282 120.473,344.630 116.307,344.845 113.018 C 345.060 109.730,345.577 103.742,345.993 99.711 C 346.894 90.981,347.856 80.568,348.327 74.446 C 348.515 72.006,349.111 65.315,349.651 59.577 C 350.694 48.508,351.275 41.960,351.772 35.680 C 351.940 33.558,352.290 29.159,352.549 25.903 C 352.891 21.605,352.905 19.867,352.597 19.560 C 352.166 19.128,67.695 18.867,54.116 19.286 M216.702 79.417 C 216.926 80.096,213.128 79.821,212.417 79.108 C 212.061 78.750,212.470 78.673,214.241 78.764 C 215.767 78.842,216.584 79.059,216.702 79.417 M189.812 80.060 C 190.247 80.328,190.283 294.297,189.848 294.982 C 189.609 295.358,188.894 295.329,186.479 294.843 C 184.793 294.504,182.980 294.144,182.449 294.044 C 181.919 293.943,179.796 293.520,177.732 293.103 C 175.628 292.678,173.339 292.439,172.524 292.560 C 171.559 292.703,171.324 292.666,171.824 292.450 C 172.683 292.078,173.393 292.263,163.934 290.395 C 160.646 289.745,156.307 288.885,154.291 288.483 C 152.276 288.081,149.759 287.594,148.698 287.400 C 144.366 286.610,134.337 284.603,133.076 284.274 C 132.334 284.080,129.296 283.470,126.326 282.919 C 123.356 282.368,119.624 281.647,118.033 281.316 C 116.442 280.985,114.706 280.633,114.176 280.533 C 113.645 280.434,109.364 279.587,104.662 278.653 C 99.960 277.718,95.751 276.953,95.308 276.953 C 93.803 276.953,92.963 275.622,92.933 273.192 C 92.915 271.697,92.807 271.225,92.603 271.745 C 92.415 272.225,92.300 271.424,92.301 269.624 C 92.301 268.033,92.106 264.474,91.866 261.716 C 91.627 258.959,91.257 254.619,91.044 252.073 C 90.831 249.527,90.491 245.709,90.289 243.587 C 90.088 241.466,89.740 237.734,89.516 235.294 C 89.292 232.854,88.929 229.036,88.709 226.808 C 88.489 224.581,88.271 221.109,88.224 219.094 L 88.139 215.429 107.618 215.429 L 127.097 215.429 127.249 216.779 C 127.388 218.028,127.420 218.057,127.667 217.165 C 127.813 216.635,127.932 218.110,127.930 220.444 C 127.929 222.777,128.116 226.596,128.346 228.930 C 128.576 231.263,128.959 235.342,129.196 237.994 C 129.660 243.179,129.873 244.284,130.352 243.988 C 130.521 243.884,130.986 244.162,131.385 244.606 C 131.785 245.051,132.459 245.556,132.883 245.730 C 133.591 246.019,133.575 246.051,132.690 246.109 C 131.807 246.167,137.440 247.103,144.069 247.999 C 145.554 248.200,147.160 248.482,147.637 248.625 C 148.545 248.896,148.890 248.243,148.023 247.893 C 147.758 247.786,147.921 247.685,148.386 247.668 C 148.851 247.651,149.345 247.453,149.484 247.229 C 149.644 246.970,149.931 247.077,150.266 247.518 C 150.715 248.110,150.797 238.461,150.807 183.700 C 150.820 119.550,150.815 119.186,150.058 119.659 C 149.457 120.035,149.196 120.035,148.824 119.662 C 148.463 119.302,143.617 119.190,128.345 119.190 C 116.135 119.190,108.066 119.044,107.639 118.815 C 106.882 118.411,106.715 117.498,106.045 110.125 C 105.833 107.792,105.501 104.147,105.306 102.025 C 105.111 99.904,104.781 96.258,104.572 93.925 C 103.211 78.723,103.179 80.015,104.918 79.782 C 106.579 79.560,189.441 79.830,189.812 80.060 M209.740 161.301 C 209.684 176.433,209.638 164.166,209.638 134.041 C 209.638 103.915,209.684 91.534,209.740 106.527 C 209.795 121.520,209.795 146.168,209.740 161.301 M311.555 80.328 C 311.757 80.593,311.920 83.934,311.917 87.753 C 311.914 92.937,311.857 93.768,311.694 91.032 L 311.475 87.367 310.978 93.539 C 310.705 96.933,310.326 101.186,310.137 102.989 C 309.947 104.793,309.594 108.611,309.351 111.475 C 309.108 114.339,308.879 117.030,308.842 117.454 C 308.776 118.216,308.423 118.228,280.039 118.425 C 264.233 118.534,251.258 118.664,251.205 118.714 C 251.152 118.764,251.129 127.093,251.154 137.223 C 251.178 147.353,251.282 155.294,251.384 154.870 C 251.633 153.834,252.266 153.188,252.266 153.969 C 252.266 154.301,252.620 155.023,253.053 155.573 L 253.840 156.573 278.367 156.597 C 301.670 156.620,304.276 156.701,303.192 157.371 C 302.914 157.543,303.210 157.749,303.949 157.897 L 305.163 158.140 304.995 162.098 C 304.902 164.275,304.901 165.275,304.992 164.320 C 305.083 163.365,305.338 162.411,305.558 162.199 C 306.066 161.710,305.582 175.142,305.072 175.680 C 304.881 175.881,304.706 176.749,304.683 177.608 L 304.641 179.171 304.308 177.478 C 303.807 174.926,303.679 175.139,303.370 179.037 C 303.214 181.019,303.238 182.660,303.424 182.722 C 303.815 182.852,303.367 194.716,302.852 197.878 C 302.571 199.607,302.497 199.750,302.453 198.650 C 302.335 195.693,301.732 196.330,301.487 199.671 C 301.203 203.560,300.626 209.645,300.082 214.491 C 299.616 218.644,299.623 221.931,300.096 220.829 C 300.689 219.451,300.521 226.111,299.904 228.482 C 299.585 229.703,299.325 232.257,299.325 234.156 C 299.325 236.478,299.181 237.608,298.886 237.608 C 298.583 237.608,298.510 238.383,298.650 240.120 C 298.760 241.502,298.697 242.727,298.509 242.843 C 298.322 242.959,298.147 242.046,298.122 240.814 C 298.091 239.308,297.911 240.280,297.572 243.780 C 296.394 255.960,296.228 257.716,295.809 262.488 C 295.567 265.246,295.174 269.412,294.936 271.745 L 294.503 275.988 291.803 276.677 C 290.318 277.056,288.322 277.533,287.367 277.738 C 286.413 277.942,284.590 278.350,283.317 278.645 C 282.044 278.940,279.220 279.573,277.040 280.051 C 274.860 280.529,273.167 281.010,273.277 281.120 C 273.387 281.230,274.389 281.103,275.504 280.839 C 276.619 280.574,278.226 280.421,279.074 280.500 L 280.617 280.643 279.074 280.947 C 278.226 281.114,277.184 281.406,276.760 281.595 C 275.379 282.209,272.502 282.230,272.631 281.625 C 272.761 281.015,272.207 281.085,266.924 282.340 C 264.050 283.023,254.183 285.270,249.759 286.249 C 248.910 286.437,246.827 286.934,245.130 287.353 C 241.977 288.133,241.989 288.134,247.637 287.611 C 248.804 287.503,249.325 287.505,248.795 287.616 C 248.264 287.728,247.665 287.977,247.464 288.172 C 247.262 288.366,246.188 288.525,245.076 288.525 C 243.964 288.525,242.947 288.698,242.816 288.910 C 242.685 289.122,241.937 289.270,241.154 289.238 C 239.989 289.191,239.923 289.151,240.791 289.020 C 241.374 288.931,241.851 288.683,241.851 288.468 C 241.851 288.003,242.189 287.940,231.172 290.449 C 229.714 290.781,229.229 291.052,229.381 291.450 C 229.533 291.846,229.287 291.989,228.489 291.969 C 227.503 291.945,227.468 291.903,228.158 291.576 C 229.730 290.831,225.909 291.594,213.825 294.438 C 210.370 295.251,210.608 296.705,210.608 274.768 C 210.608 252.598,210.141 254.964,214.658 254.218 C 216.143 253.973,219.094 253.438,221.215 253.029 L 225.072 252.287 222.276 252.447 C 217.648 252.712,218.643 251.801,223.513 251.313 C 224.777 251.187,226.209 250.984,226.696 250.861 C 227.182 250.739,227.580 250.810,227.580 251.019 C 227.580 251.228,227.031 251.508,226.361 251.642 C 225.690 251.776,225.236 251.980,225.351 252.094 C 225.465 252.209,228.487 251.775,232.066 251.130 C 235.645 250.484,239.614 249.769,240.887 249.540 C 242.160 249.311,244.417 248.890,245.902 248.603 C 247.387 248.316,250.742 247.684,253.357 247.199 C 256.679 246.582,258.213 246.128,258.446 245.693 C 258.780 245.070,259.627 236.737,259.543 234.908 C 259.472 233.368,258.889 237.176,258.804 239.730 L 258.727 242.044 258.432 240.018 C 258.151 238.097,258.309 235.202,259.184 226.148 C 259.647 221.364,260.448 218.183,260.184 222.179 C 260.093 223.558,259.903 225.575,259.762 226.662 C 259.606 227.871,259.659 228.731,259.900 228.880 C 260.153 229.036,260.382 227.769,260.539 225.362 C 260.673 223.293,260.950 220.545,261.154 219.255 C 261.357 217.965,261.496 215.968,261.462 214.819 C 261.416 213.276,261.359 213.083,261.242 214.079 C 260.870 217.242,260.304 216.109,260.567 212.729 C 260.868 208.856,261.496 207.422,261.572 210.434 C 261.603 211.645,261.794 210.720,262.095 207.907 C 262.959 199.848,263.057 198.225,262.668 198.465 C 262.463 198.592,262.295 199.997,262.295 201.588 C 262.295 203.419,262.153 204.394,261.909 204.243 C 261.697 204.112,261.524 202.804,261.524 201.337 C 261.524 198.720,261.500 198.657,260.270 198.012 L 259.016 197.353 260.752 196.880 C 262.173 196.492,257.837 196.402,236.866 196.381 C 216.517 196.362,211.180 196.255,210.932 195.864 C 210.528 195.227,210.521 81.351,210.925 80.715 C 211.165 80.336,221.766 80.213,260.967 80.135 C 288.322 80.080,310.813 79.993,310.946 79.941 C 311.079 79.888,311.353 80.063,311.555 80.328 M312.713 83.409 C 312.620 83.889,312.541 83.587,312.537 82.739 C 312.533 81.890,312.608 81.497,312.705 81.866 C 312.801 82.235,312.805 82.929,312.713 83.409 M311.176 102.307 C 311.091 103.001,311.019 102.527,311.016 101.254 C 311.014 99.981,311.084 99.413,311.172 99.993 C 311.260 100.573,311.262 101.614,311.176 102.307 M310.868 107.329 C 310.801 111.186,310.225 112.627,310.174 109.065 C 310.145 107.039,310.280 105.689,310.511 105.689 C 310.723 105.689,310.884 106.427,310.868 107.329 M302.168 119.059 C 303.638 119.302,303.647 119.314,302.747 119.813 C 301.602 120.447,300.294 120.480,299.212 119.901 C 297.771 119.130,299.541 118.625,302.168 119.059 M296.818 119.586 C 296.393 119.774,286.434 119.916,274.685 119.902 C 256.011 119.879,253.237 119.950,252.632 120.468 C 251.935 121.065,251.495 120.708,251.495 119.544 C 251.495 119.333,260.783 119.201,274.542 119.217 C 288.293 119.233,297.278 119.382,296.818 119.586 M304.186 169.448 C 304.006 171.102,303.955 172.550,304.071 172.666 C 304.396 172.991,304.800 169.713,304.648 167.985 C 304.540 166.765,304.443 167.073,304.186 169.448 M302.464 189.026 C 302.175 192.113,302.025 194.977,302.130 195.391 C 302.235 195.804,302.341 195.222,302.366 194.096 C 302.391 192.970,302.594 191.321,302.817 190.431 C 303.041 189.542,303.171 187.599,303.106 186.114 C 303.002 183.703,302.933 184.015,302.464 189.026 M256.108 196.943 C 262.005 197.610,256.266 197.862,235.276 197.857 C 215.248 197.851,210.347 197.663,213.211 197.010 C 214.417 196.734,253.724 196.673,256.108 196.943 M302.443 205.431 C 302.213 206.345,302.025 207.883,302.025 208.850 C 302.025 209.895,301.849 210.608,301.591 210.608 C 301.311 210.608,301.243 210.181,301.398 209.402 C 301.531 208.739,301.648 206.439,301.658 204.291 L 301.676 200.386 302.269 202.078 C 302.741 203.427,302.777 204.107,302.443 205.431 M301.140 215.333 C 301.048 215.810,300.973 215.419,300.973 214.465 C 300.973 213.510,301.048 213.120,301.140 213.597 C 301.232 214.074,301.232 214.855,301.140 215.333 M299.176 225.765 C 298.994 227.630,298.940 229.252,299.056 229.368 C 299.397 229.709,299.776 226.395,299.636 224.301 C 299.523 222.616,299.465 222.801,299.176 225.765 M298.464 232.954 C 298.308 234.743,298.265 236.291,298.367 236.394 C 298.832 236.858,298.964 235.927,298.859 232.931 L 298.746 229.701 298.464 232.954 M259.684 232.594 C 259.684 233.337,259.764 233.640,259.861 233.269 C 259.958 232.898,259.958 232.290,259.861 231.919 C 259.764 231.548,259.684 231.851,259.684 232.594 M258.052 245.130 C 258.052 245.837,257.846 246.095,257.281 246.095 C 256.330 246.095,256.267 245.117,257.184 244.582 C 258.086 244.057,258.052 244.035,258.052 245.130 M254.388 246.095 C 254.257 246.307,253.682 246.478,253.111 246.474 C 252.299 246.470,252.199 246.387,252.652 246.095 C 253.414 245.602,254.692 245.602,254.388 246.095 M244.318 248.182 C 244.117 248.706,243.181 248.880,237.994 249.358 L 235.873 249.553 237.223 249.010 C 237.965 248.712,239.441 248.452,240.501 248.432 C 241.562 248.413,242.690 248.229,243.009 248.023 C 243.860 247.473,244.558 247.558,244.318 248.182 M209.836 285.824 C 209.730 286.355,209.556 279.846,209.450 271.360 C 209.344 262.874,209.344 255.670,209.450 255.352 C 209.706 254.586,210.085 284.579,209.836 285.824 M297.083 261.610 C 296.899 264.052,296.834 264.242,296.585 263.072 C 296.428 262.332,296.405 260.510,296.534 259.022 C 296.730 256.774,296.814 256.527,297.032 257.560 C 297.177 258.244,297.200 260.066,297.083 261.610 M296.239 272.494 C 296.239 273.470,295.672 274.124,295.320 273.554 C 295.039 273.099,295.486 271.553,295.898 271.553 C 296.086 271.553,296.239 271.976,296.239 272.494 M287.795 278.741 C 287.299 279.088,286.219 279.372,285.395 279.372 C 284.570 279.372,283.896 279.522,283.896 279.705 C 283.896 279.889,283.419 280.025,282.835 280.008 C 282.252 279.991,282.035 279.892,282.353 279.787 C 282.969 279.584,283.874 279.226,285.439 278.568 C 285.969 278.345,286.919 278.150,287.550 278.136 L 288.696 278.110 287.795 278.741 M259.113 285.535 C 258.902 286.168,257.856 286.351,256.575 285.980 C 255.591 285.694,255.614 285.669,257.088 285.422 C 257.936 285.279,258.775 285.138,258.952 285.108 C 259.129 285.078,259.201 285.270,259.113 285.535 M234.233 290.988 C 231.896 291.735,231.099 291.698,231.614 290.865 C 231.754 290.638,232.509 290.451,233.292 290.447 C 234.075 290.444,234.968 290.282,235.276 290.087 C 235.584 289.892,236.014 289.843,236.232 289.977 C 236.449 290.112,235.550 290.567,234.233 290.988 M209.727 292.666 C 209.638 293.252,209.564 292.864,209.561 291.803 C 209.558 290.743,209.630 290.263,209.722 290.737 C 209.813 291.212,209.816 292.080,209.727 292.666 M222.995 293.598 C 222.106 293.854,221.558 293.843,221.278 293.564 C 220.988 293.274,221.371 293.164,222.584 293.188 L 224.301 293.223 222.995 293.598 M214.862 295.307 C 214.126 295.626,213.239 296.145,212.892 296.459 C 212.334 296.964,212.204 296.962,211.774 296.443 C 211.186 295.735,213.108 294.726,215.043 294.726 L 216.201 294.726 214.862 295.307 " stroke="none" fill="#dec237" fill-rule="evenodd"></path><path id="path3" d="M50.434 18.432 C 47.531 18.508,46.272 18.682,46.236 19.010 C 46.049 20.720,46.424 28.419,46.709 28.717 C 46.901 28.919,47.066 30.655,47.075 32.575 C 47.084 34.495,47.352 38.496,47.670 41.466 C 48.547 49.633,48.951 54.805,48.754 55.320 C 48.656 55.574,48.951 58.636,49.408 62.124 C 49.866 65.613,50.383 71.157,50.558 74.446 C 50.732 77.734,51.148 82.854,51.482 85.824 C 51.816 88.795,52.271 93.394,52.493 96.046 C 52.716 98.698,53.066 101.649,53.271 102.604 C 53.475 103.558,53.813 107.030,54.020 110.318 C 54.228 113.607,54.569 117.772,54.777 119.576 C 55.180 123.059,55.655 129.111,56.291 138.862 C 56.506 142.150,56.953 146.663,57.284 148.891 C 57.854 152.721,58.513 160.304,59.411 173.385 C 59.819 179.321,60.338 184.585,60.952 189.007 C 61.144 190.386,61.491 194.552,61.723 198.264 C 61.956 201.977,62.319 206.316,62.529 207.907 C 62.740 209.499,63.078 213.144,63.280 216.008 C 63.482 218.872,63.825 222.864,64.043 224.879 C 64.261 226.895,64.597 230.540,64.790 232.980 C 65.628 243.563,66.325 250.851,66.922 255.284 C 67.275 257.899,67.473 260.273,67.363 260.559 C 67.169 261.066,67.383 263.452,68.265 270.588 C 68.501 272.498,68.844 276.663,69.027 279.846 C 69.209 283.028,69.635 288.235,69.972 291.418 C 70.602 297.355,70.887 300.603,71.915 313.522 C 72.241 317.618,72.682 322.045,72.895 323.359 C 73.108 324.672,73.284 326.390,73.285 327.175 C 73.295 331.796,74.117 332.955,78.110 333.975 C 78.959 334.191,81.128 334.803,82.932 335.334 C 88.123 336.863,91.104 337.612,92.768 337.805 C 93.616 337.904,94.484 338.117,94.696 338.279 C 95.130 338.610,103.121 341.139,105.497 341.697 C 106.345 341.896,108.689 342.525,110.704 343.095 C 112.719 343.665,115.757 344.470,117.454 344.884 C 122.399 346.091,123.430 346.382,127.097 347.605 C 129.007 348.242,131.697 348.983,133.076 349.253 C 134.455 349.522,136.370 350.014,137.331 350.344 C 138.292 350.675,139.767 351.064,140.609 351.208 C 141.452 351.353,143.480 351.975,145.118 352.592 C 146.755 353.208,148.578 353.715,149.168 353.718 C 149.758 353.720,151.977 354.251,154.098 354.897 C 157.985 356.081,158.803 356.315,165.477 358.148 C 167.493 358.701,170.704 359.589,172.613 360.121 C 174.523 360.653,178.289 361.680,180.983 362.404 C 183.677 363.128,186.888 364.088,188.119 364.537 C 194.337 366.805,199.581 367.691,202.593 366.983 C 206.294 366.112,213.028 364.143,213.829 363.697 C 214.222 363.479,215.605 363.129,216.904 362.920 C 218.202 362.711,221.092 361.959,223.326 361.250 C 229.423 359.313,231.401 358.767,233.944 358.320 C 235.217 358.096,238.255 357.252,240.694 356.444 C 243.134 355.635,246.172 354.756,247.445 354.490 C 248.717 354.224,251.577 353.399,253.799 352.657 C 256.022 351.915,259.146 351.075,260.743 350.791 C 264.449 350.129,269.135 348.876,269.737 348.385 C 270.283 347.939,278.317 345.796,280.754 345.446 C 281.678 345.313,282.970 344.928,283.624 344.589 C 284.279 344.251,286.307 343.661,288.132 343.279 C 289.956 342.897,292.136 342.319,292.976 341.995 C 293.816 341.671,296.821 340.786,299.655 340.029 C 302.488 339.272,305.123 338.483,305.512 338.276 C 305.900 338.068,306.845 337.898,307.612 337.898 C 308.379 337.898,309.491 337.647,310.083 337.341 C 310.675 337.035,312.185 336.528,313.439 336.215 C 314.693 335.901,317.281 335.202,319.190 334.661 C 321.099 334.121,323.042 333.673,323.508 333.666 C 325.546 333.638,326.444 332.128,326.632 328.411 C 326.727 326.521,326.957 324.685,327.142 324.329 C 327.328 323.974,327.652 320.242,327.862 316.036 C 328.073 311.831,328.507 306.827,328.827 304.918 C 329.147 303.009,329.416 299.971,329.425 298.168 C 329.434 296.365,329.850 291.513,330.349 287.387 C 330.848 283.260,331.179 279.682,331.084 279.434 C 330.931 279.036,331.835 270.238,332.290 267.695 C 332.385 267.165,332.639 263.400,332.854 259.329 C 333.070 255.258,333.423 251.179,333.640 250.265 C 333.856 249.350,334.224 245.824,334.457 242.430 C 335.106 232.967,335.471 228.654,336.133 222.620 C 336.467 219.575,336.741 216.146,336.741 215.001 C 336.741 213.857,337.159 209.059,337.670 204.339 C 338.181 199.619,338.622 194.387,338.650 192.713 C 338.678 191.038,338.849 189.389,339.030 189.048 C 339.210 188.707,339.561 185.824,339.808 182.642 C 340.055 179.460,340.522 174.166,340.845 170.878 C 341.169 167.589,341.581 162.382,341.762 159.305 C 341.943 156.229,342.190 153.452,342.312 153.134 C 342.433 152.816,342.721 150.212,342.952 147.348 C 343.183 144.484,343.510 140.492,343.679 138.476 C 343.848 136.461,344.176 132.122,344.407 128.833 C 344.639 125.545,345.001 122.073,345.211 121.119 C 345.422 120.164,345.782 115.998,346.010 111.861 C 346.239 107.724,346.582 103.645,346.774 102.797 C 346.966 101.948,347.309 98.824,347.536 95.853 C 347.763 92.883,348.294 87.242,348.715 83.317 C 349.137 79.392,349.479 74.691,349.476 72.869 C 349.472 71.047,349.714 67.923,350.012 65.926 C 350.311 63.929,350.752 59.257,350.992 55.545 C 351.232 51.832,351.588 47.666,351.783 46.287 C 352.429 41.727,352.941 36.336,352.943 34.063 C 352.945 32.831,353.115 30.788,353.322 29.523 C 354.028 25.212,354.253 19.359,353.736 18.736 C 353.311 18.224,69.116 17.938,50.434 18.432 M352.597 19.560 C 352.905 19.867,352.891 21.605,352.549 25.903 C 352.290 29.159,351.940 33.558,351.772 35.680 C 351.275 41.960,350.694 48.508,349.651 59.577 C 349.111 65.315,348.515 72.006,348.327 74.446 C 347.856 80.568,346.894 90.981,345.993 99.711 C 345.577 103.742,345.060 109.730,344.845 113.018 C 344.630 116.307,344.282 120.473,344.073 122.276 C 343.863 124.079,343.434 128.766,343.119 132.690 C 342.805 136.615,342.378 141.128,342.172 142.719 C 341.966 144.311,341.696 146.914,341.572 148.505 C 341.448 150.096,341.177 153.134,340.968 155.256 C 340.582 159.190,339.661 170.071,339.010 178.399 C 338.811 180.945,338.486 184.503,338.288 186.307 C 338.090 188.110,337.754 192.127,337.543 195.233 C 337.331 198.339,336.984 202.331,336.771 204.105 C 336.426 206.969,335.987 211.729,334.783 225.651 C 334.590 227.878,334.263 232.065,334.056 234.953 C 333.849 237.842,333.405 242.268,333.070 244.789 C 332.735 247.310,332.116 253.799,331.694 259.209 C 331.273 264.619,330.775 270.608,330.589 272.517 C 330.402 274.426,329.885 280.415,329.441 285.824 C 328.996 291.234,328.286 299.045,327.864 303.182 C 327.442 307.319,326.822 314.002,326.485 318.033 C 325.196 333.469,325.764 331.718,321.697 332.805 C 318.850 333.565,314.283 334.876,309.354 336.346 C 307.975 336.757,303.983 337.803,300.482 338.670 C 296.982 339.538,292.469 340.761,290.453 341.388 C 288.438 342.015,286.181 342.639,285.439 342.775 C 284.696 342.910,283.747 343.196,283.330 343.411 C 282.565 343.804,279.889 344.537,273.867 346.003 C 272.064 346.442,270.296 346.962,269.938 347.159 C 269.580 347.356,266.837 348.123,263.842 348.863 C 260.846 349.604,257.146 350.582,255.620 351.036 C 254.094 351.490,252.237 352.015,251.495 352.203 C 249.733 352.649,244.882 353.975,242.396 354.691 C 241.317 355.001,240.168 355.256,239.844 355.256 C 239.520 355.256,238.407 355.584,237.371 355.984 C 236.335 356.385,234.793 356.891,233.944 357.107 C 230.826 357.903,226.124 359.256,222.090 360.518 C 219.813 361.230,217.383 361.812,216.690 361.812 C 215.996 361.811,213.867 362.397,211.958 363.114 C 210.048 363.831,207.445 364.637,206.172 364.906 C 204.899 365.175,203.005 365.659,201.964 365.982 C 199.931 366.614,194.112 365.577,189.192 363.706 C 188.127 363.301,187.086 362.970,186.878 362.970 C 186.293 362.971,176.569 360.269,175.699 359.865 C 175.275 359.667,173.886 359.250,172.613 358.937 C 171.340 358.623,169.344 358.084,168.177 357.737 C 167.011 357.390,165.275 356.963,164.320 356.786 C 163.365 356.610,160.935 355.938,158.920 355.293 C 153.779 353.648,146.556 351.689,143.298 351.056 C 142.449 350.891,140.800 350.364,139.634 349.884 C 138.467 349.404,137.113 348.855,136.626 348.662 C 136.139 348.470,135.130 348.312,134.385 348.312 C 133.640 348.312,131.522 347.809,129.678 347.194 C 127.835 346.579,125.718 345.957,124.976 345.813 C 124.233 345.668,122.584 345.234,121.311 344.847 C 120.039 344.460,118.216 343.932,117.261 343.674 C 116.307 343.415,114.484 342.897,113.211 342.523 C 111.938 342.148,109.508 341.460,107.811 340.993 C 106.114 340.527,103.337 339.738,101.639 339.242 C 96.957 337.871,91.087 336.292,88.717 335.764 C 84.331 334.787,75.935 332.113,75.318 331.496 C 74.889 331.067,74.582 329.821,74.389 327.723 C 74.230 326.000,73.925 322.941,73.712 320.926 C 73.498 318.910,73.146 314.343,72.928 310.776 C 72.710 307.209,72.458 304.170,72.366 304.022 C 72.182 303.723,71.571 297.587,70.940 289.682 C 70.712 286.818,70.378 282.652,70.198 280.424 C 70.018 278.197,69.696 274.104,69.482 271.329 C 69.268 268.554,68.997 265.864,68.879 265.350 C 68.561 263.962,67.011 247.474,65.946 234.137 C 65.328 226.410,64.379 215.541,64.042 212.343 C 63.409 206.333,62.879 200.314,62.479 194.600 C 62.256 191.418,61.907 187.512,61.702 185.921 C 61.289 182.698,60.937 178.551,60.015 166.056 C 59.670 161.389,59.220 156.181,59.013 154.484 C 58.344 148.980,57.826 143.785,57.455 138.862 C 56.920 131.780,55.812 119.351,55.150 113.018 C 54.917 110.791,54.477 105.757,54.173 101.832 C 53.868 97.907,53.453 92.960,53.250 90.839 C 52.835 86.489,52.213 79.486,51.658 72.903 C 51.452 70.463,51.132 66.991,50.947 65.188 C 48.661 42.962,46.944 20.433,47.493 19.865 C 48.363 18.965,351.700 18.662,352.597 19.560 M212.417 79.108 C 213.128 79.821,216.926 80.096,216.702 79.417 C 216.584 79.059,215.767 78.842,214.241 78.764 C 212.470 78.673,212.061 78.750,212.417 79.108 M209.638 134.041 C 209.638 164.166,209.684 176.433,209.740 161.301 C 209.795 146.168,209.795 121.520,209.740 106.527 C 209.684 91.534,209.638 103.915,209.638 134.041 M312.537 82.739 C 312.541 83.587,312.620 83.889,312.713 83.409 C 312.805 82.929,312.801 82.235,312.705 81.866 C 312.608 81.497,312.533 81.890,312.537 82.739 M311.813 90.453 C 311.813 92.787,311.877 93.692,311.954 92.464 C 312.031 91.237,312.030 89.327,311.952 88.221 C 311.875 87.115,311.812 88.120,311.813 90.453 M311.016 101.254 C 311.019 102.527,311.091 103.001,311.176 102.307 C 311.262 101.614,311.260 100.573,311.172 99.993 C 311.084 99.413,311.014 99.981,311.016 101.254 M310.174 109.065 C 310.216 112.026,310.260 112.227,310.531 110.704 C 310.972 108.224,310.962 105.689,310.511 105.689 C 310.280 105.689,310.145 107.039,310.174 109.065 M299.141 119.157 C 298.395 119.448,298.397 119.465,299.212 119.901 C 300.294 120.480,301.602 120.447,302.747 119.813 C 304.101 119.062,300.883 118.476,299.141 119.157 M148.698 119.576 C 148.829 119.788,149.176 119.961,149.470 119.961 C 149.763 119.961,150.110 119.788,150.241 119.576 C 150.377 119.356,150.045 119.190,149.470 119.190 C 148.895 119.190,148.562 119.356,148.698 119.576 M251.495 119.544 C 251.495 120.708,251.935 121.065,252.632 120.468 C 253.237 119.950,256.011 119.879,274.685 119.902 C 286.434 119.916,296.393 119.774,296.818 119.586 C 297.278 119.382,288.293 119.233,274.542 119.217 C 260.783 119.201,251.495 119.333,251.495 119.544 M251.748 153.808 C 251.605 154.038,251.381 155.015,251.249 155.979 L 251.009 157.731 276.806 157.736 C 300.144 157.740,304.473 157.596,303.273 156.854 C 303.065 156.726,291.871 156.610,278.397 156.597 C 251.485 156.571,253.242 156.725,252.350 154.314 C 252.148 153.766,251.901 153.559,251.748 153.808 M305.370 162.295 C 305.276 162.454,305.086 164.233,304.948 166.249 C 304.811 168.264,304.506 170.963,304.271 172.246 C 303.971 173.880,303.960 175.267,304.235 176.875 C 304.594 178.980,304.630 179.041,304.676 177.608 C 304.703 176.749,304.881 175.881,305.072 175.680 C 305.447 175.284,306.111 162.006,305.756 162.006 C 305.639 162.006,305.465 162.136,305.370 162.295 M303.039 186.789 C 302.913 188.963,302.662 192.072,302.483 193.697 C 302.303 195.322,302.266 197.405,302.399 198.326 C 302.688 200.318,303.532 192.428,303.676 186.402 C 303.791 181.580,303.326 181.862,303.039 186.789 M213.211 197.010 C 210.347 197.663,215.248 197.851,235.276 197.857 C 256.266 197.862,262.005 197.610,256.108 196.943 C 253.724 196.673,214.417 196.734,213.211 197.010 M259.981 197.075 L 259.016 197.352 260.270 198.011 C 261.500 198.657,261.524 198.720,261.524 201.337 C 261.524 202.804,261.697 204.112,261.909 204.243 C 262.153 204.394,262.295 203.419,262.295 201.588 C 262.295 199.997,262.469 198.588,262.681 198.457 C 264.397 197.397,262.407 196.378,259.981 197.075 M301.658 204.291 C 301.648 206.439,301.531 208.739,301.398 209.402 C 301.243 210.181,301.311 210.608,301.591 210.608 C 301.849 210.608,302.025 209.895,302.025 208.850 C 302.025 207.883,302.213 206.345,302.443 205.431 C 302.777 204.107,302.741 203.427,302.269 202.078 L 301.676 200.386 301.658 204.291 M261.014 208.968 C 260.601 209.675,260.310 216.188,260.708 215.804 C 260.935 215.587,261.237 213.894,261.379 212.044 C 261.612 209.014,261.506 208.126,261.014 208.968 M300.973 214.465 C 300.973 215.419,301.048 215.810,301.140 215.333 C 301.232 214.855,301.232 214.074,301.140 213.597 C 301.048 213.120,300.973 213.510,300.973 214.465 M127.765 217.551 C 127.765 218.293,127.845 218.597,127.942 218.226 C 128.039 217.854,128.039 217.247,127.942 216.876 C 127.845 216.504,127.765 216.808,127.765 217.551 M259.847 221.215 C 259.516 222.783,259.073 226.912,258.470 234.039 C 258.286 236.212,258.269 238.903,258.432 240.018 L 258.727 242.044 258.775 240.017 C 258.802 238.902,259.089 236.220,259.414 234.057 C 259.739 231.894,259.896 229.398,259.763 228.510 C 259.629 227.621,259.726 225.964,259.978 224.826 C 260.229 223.689,260.376 222.064,260.304 221.215 L 260.173 219.672 259.847 221.215 M300.137 220.251 C 299.980 220.513,299.336 228.074,299.078 232.690 C 298.962 234.759,298.710 236.451,298.517 236.451 C 298.325 236.451,298.168 237.937,298.168 239.753 C 298.168 241.572,298.321 242.959,298.509 242.843 C 298.697 242.727,298.760 241.502,298.650 240.120 C 298.510 238.383,298.583 237.608,298.886 237.608 C 299.181 237.608,299.325 236.481,299.325 234.168 C 299.325 232.276,299.593 229.682,299.920 228.404 C 300.412 226.485,300.598 219.478,300.137 220.251 M130.151 244.302 C 129.765 245.310,130.705 246.098,132.256 246.064 C 133.025 246.047,133.394 245.939,133.076 245.823 C 132.758 245.707,132.025 245.173,131.448 244.635 C 130.528 243.778,130.368 243.737,130.151 244.302 M257.184 244.582 C 256.267 245.117,256.330 246.095,257.281 246.095 C 257.846 246.095,258.052 245.837,258.052 245.130 C 258.052 244.035,258.086 244.057,257.184 244.582 M252.652 246.095 C 252.199 246.387,252.299 246.470,253.111 246.474 C 253.682 246.478,254.257 246.307,254.388 246.095 C 254.692 245.602,253.414 245.602,252.652 246.095 M149.484 247.229 C 149.345 247.453,148.882 247.637,148.455 247.637 C 147.765 247.637,147.743 247.702,148.257 248.216 C 148.847 248.806,150.830 249.031,150.807 248.505 C 150.780 247.849,149.728 246.834,149.484 247.229 M243.009 248.023 C 242.690 248.229,241.562 248.413,240.501 248.432 C 239.441 248.452,237.965 248.712,237.223 249.010 L 235.873 249.553 237.994 249.358 C 243.181 248.880,244.117 248.706,244.318 248.182 C 244.558 247.558,243.860 247.473,243.009 248.023 M223.915 251.196 C 220.081 251.702,219.479 251.847,219.479 252.268 C 219.479 252.719,223.604 252.401,225.940 251.769 C 227.422 251.369,228.277 250.639,227.097 250.781 C 226.832 250.813,225.400 251.000,223.915 251.196 M209.450 255.352 C 209.344 255.670,209.344 262.874,209.450 271.360 C 209.556 279.846,209.730 286.355,209.836 285.824 C 210.085 284.579,209.706 254.586,209.450 255.352 M296.534 259.022 C 296.405 260.510,296.428 262.332,296.585 263.072 C 296.834 264.242,296.899 264.052,297.083 261.610 C 297.200 260.066,297.177 258.244,297.032 257.560 C 296.814 256.527,296.730 256.774,296.534 259.022 M295.338 272.391 C 295.087 273.354,295.355 273.982,295.880 273.658 C 296.337 273.375,296.353 271.553,295.898 271.553 C 295.711 271.553,295.459 271.930,295.338 272.391 M285.439 278.568 C 283.874 279.226,282.969 279.584,282.353 279.787 C 282.035 279.892,282.252 279.991,282.835 280.008 C 283.419 280.025,283.896 279.889,283.896 279.705 C 283.896 279.522,284.570 279.372,285.395 279.372 C 286.219 279.372,287.299 279.088,287.795 278.741 L 288.696 278.110 287.550 278.136 C 286.919 278.150,285.969 278.345,285.439 278.568 M274.831 280.904 C 272.347 281.520,272.264 281.558,272.509 281.955 C 272.777 282.388,276.177 282.047,276.741 281.531 C 276.942 281.347,277.550 281.184,278.091 281.169 C 278.632 281.154,279.421 280.992,279.846 280.810 C 280.948 280.336,276.808 280.414,274.831 280.904 M257.088 285.422 C 255.614 285.669,255.591 285.694,256.575 285.980 C 257.856 286.351,258.902 286.168,259.113 285.535 C 259.201 285.270,259.129 285.078,258.952 285.108 C 258.775 285.138,257.936 285.279,257.088 285.422 M245.902 287.753 C 245.477 287.935,244.392 288.097,243.491 288.112 C 242.589 288.127,241.851 288.301,241.851 288.499 C 241.851 288.697,241.374 288.931,240.791 289.020 C 239.923 289.151,239.989 289.191,241.154 289.238 C 241.937 289.270,242.685 289.122,242.816 288.910 C 242.947 288.698,243.964 288.525,245.076 288.525 C 246.188 288.525,247.262 288.366,247.464 288.172 C 247.665 287.977,248.264 287.741,248.795 287.645 C 249.419 287.533,249.215 287.464,248.216 287.447 C 247.367 287.433,246.326 287.571,245.902 287.753 M235.276 290.087 C 234.968 290.282,234.075 290.444,233.292 290.447 C 232.509 290.451,231.754 290.638,231.614 290.865 C 231.099 291.698,231.896 291.735,234.233 290.988 C 235.550 290.567,236.449 290.112,236.232 289.977 C 236.014 289.843,235.584 289.892,235.276 290.087 M209.561 291.803 C 209.564 292.864,209.638 293.252,209.727 292.666 C 209.816 292.080,209.813 291.212,209.722 290.737 C 209.630 290.263,209.558 290.743,209.561 291.803 M228.158 291.610 C 227.475 291.904,227.507 291.945,228.447 291.969 C 229.031 291.984,229.508 291.823,229.508 291.610 C 229.508 291.158,229.212 291.158,228.158 291.610 M221.278 293.564 C 221.558 293.843,222.106 293.854,222.995 293.598 L 224.301 293.223 222.584 293.188 C 221.371 293.164,220.988 293.274,221.278 293.564 M212.586 295.291 C 211.485 295.769,211.361 295.945,211.774 296.443 C 212.204 296.962,212.334 296.964,212.892 296.459 C 213.239 296.145,214.126 295.626,214.862 295.307 L 216.201 294.726 215.043 294.726 C 214.407 294.726,213.301 294.980,212.586 295.291 " stroke="none" fill="#e3d48b" fill-rule="evenodd"></path><path id="path4" d="M104.918 79.782 C 103.395 79.986,103.348 80.206,103.781 85.074 C 104.545 93.642,104.950 98.153,105.306 102.025 C 105.501 104.147,105.833 107.792,106.045 110.125 C 106.715 117.498,106.882 118.411,107.639 118.815 C 108.067 119.045,116.570 119.190,129.579 119.190 L 150.820 119.190 150.820 184.040 L 150.820 248.890 148.795 248.653 C 144.029 248.094,130.703 246.104,130.377 245.902 C 129.884 245.597,129.177 238.924,127.726 220.867 C 127.506 218.129,127.178 215.741,126.996 215.559 C 126.814 215.378,117.997 215.274,107.402 215.329 L 88.139 215.429 88.224 219.094 C 88.271 221.109,88.489 224.581,88.709 226.808 C 88.929 229.036,89.292 232.854,89.516 235.294 C 89.740 237.734,90.088 241.466,90.289 243.587 C 90.651 247.388,91.067 252.238,91.813 261.331 C 93.026 276.113,93.218 276.953,95.382 276.953 C 95.784 276.953,99.960 277.718,104.662 278.653 C 109.364 279.587,113.645 280.434,114.176 280.533 C 114.706 280.633,116.442 280.985,118.033 281.316 C 119.624 281.647,123.356 282.368,126.326 282.919 C 129.296 283.470,132.334 284.080,133.076 284.274 C 134.337 284.603,144.366 286.610,148.698 287.400 C 149.759 287.594,152.276 288.081,154.291 288.483 C 156.307 288.885,160.683 289.749,164.016 290.403 C 167.350 291.057,170.821 291.759,171.731 291.963 C 172.641 292.168,175.381 292.703,177.821 293.153 C 180.260 293.603,182.951 294.127,183.799 294.318 C 188.496 295.375,189.525 295.491,189.840 294.996 C 190.280 294.302,190.253 80.332,189.812 80.060 C 189.441 79.830,106.579 79.560,104.918 79.782 M260.967 80.135 C 221.766 80.213,211.165 80.336,210.925 80.715 C 210.521 81.351,210.528 195.227,210.932 195.864 C 211.181 196.256,216.453 196.355,236.673 196.349 C 250.659 196.345,262.339 196.493,262.628 196.678 C 263.071 196.961,263.051 198.107,262.504 203.907 C 262.146 207.698,261.697 212.623,261.505 214.851 C 261.314 217.078,260.991 220.723,260.787 222.951 C 260.583 225.178,260.145 229.952,259.815 233.558 C 259.484 237.165,259.109 241.277,258.982 242.696 C 258.670 246.169,258.564 246.253,253.230 247.235 C 250.685 247.704,247.387 248.321,245.902 248.606 C 243.008 249.161,243.003 249.162,229.894 251.507 C 225.121 252.361,219.913 253.302,218.322 253.598 C 216.731 253.894,214.648 254.257,213.693 254.403 C 210.307 254.924,210.608 252.940,210.608 274.768 C 210.608 296.706,210.370 295.253,213.825 294.435 C 215.131 294.126,218.110 293.439,220.444 292.910 C 222.777 292.380,225.728 291.711,227.001 291.422 C 228.274 291.134,230.791 290.556,232.594 290.140 C 235.817 289.395,247.304 286.797,249.952 286.214 C 254.219 285.274,262.452 283.413,264.609 282.900 C 268.843 281.895,271.555 281.271,276.374 280.198 C 278.920 279.630,282.044 278.928,283.317 278.638 C 284.590 278.347,286.413 277.942,287.367 277.738 C 288.322 277.533,290.318 277.056,291.803 276.677 L 294.503 275.988 294.937 271.745 C 295.176 269.412,295.573 265.159,295.820 262.295 C 296.067 259.431,296.440 255.439,296.649 253.423 C 297.112 248.961,299.257 225.157,299.725 219.286 C 299.911 216.953,300.249 213.134,300.476 210.800 C 300.704 208.467,301.056 204.648,301.260 202.314 C 301.967 194.229,302.783 185.323,303.186 181.292 C 303.409 179.065,303.751 175.246,303.945 172.806 C 304.140 170.366,304.500 166.136,304.747 163.405 C 305.120 159.277,305.107 158.383,304.671 158.107 C 304.383 157.924,292.213 157.772,277.628 157.769 L 251.109 157.763 251.109 138.284 C 251.109 127.570,251.152 118.764,251.205 118.714 C 251.258 118.664,264.233 118.534,280.039 118.425 L 308.775 118.226 308.863 117.068 C 308.955 115.865,309.487 109.956,310.130 102.989 C 312.221 80.361,312.254 79.428,310.946 79.941 C 310.813 79.993,288.322 80.080,260.967 80.135 M189.174 80.576 C 189.534 81.158,189.428 294.043,189.068 294.403 C 188.878 294.593,185.319 294.040,180.866 293.128 C 176.539 292.242,172.218 291.383,171.263 291.218 C 166.777 290.444,162.446 289.604,161.063 289.240 C 160.226 289.020,158.750 288.703,157.784 288.535 C 156.818 288.367,154.552 287.931,152.748 287.567 C 149.954 287.001,134.472 283.954,131.533 283.390 C 131.003 283.289,127.445 282.571,123.626 281.795 C 119.807 281.019,115.815 280.242,114.754 280.069 C 112.869 279.760,104.514 278.112,101.061 277.368 C 100.106 277.162,98.717 276.884,97.975 276.749 C 97.232 276.614,96.002 276.345,95.241 276.152 L 93.857 275.800 93.416 272.037 C 93.174 269.967,92.887 267.059,92.778 265.574 C 92.670 264.089,92.404 261.051,92.187 258.824 C 91.797 254.808,90.130 236.138,89.467 228.351 C 89.278 226.123,88.971 222.565,88.787 220.444 C 88.591 218.189,88.595 216.426,88.796 216.201 C 89.226 215.721,113.288 215.432,121.000 215.814 L 126.475 216.086 126.721 217.207 C 126.856 217.824,127.107 220.106,127.277 222.279 C 128.221 234.304,129.326 245.934,129.546 246.160 C 129.891 246.514,146.061 249.056,149.277 249.262 L 151.013 249.373 151.013 183.992 L 151.013 118.611 129.605 118.419 C 117.830 118.312,108.009 118.103,107.779 117.953 C 107.549 117.804,107.154 115.374,106.900 112.553 C 106.646 109.733,106.274 105.776,106.073 103.761 C 104.711 90.088,104.144 83.654,104.146 81.871 L 104.147 80.231 146.554 80.231 C 171.037 80.231,189.051 80.377,189.174 80.576 M212.433 86.489 C 212.352 87.397,212.284 86.750,212.283 85.053 C 212.281 83.356,212.348 82.614,212.431 83.403 C 212.514 84.193,212.515 85.582,212.433 86.489 M307.040 95.420 C 307.040 95.925,306.779 96.554,306.461 96.818 C 305.965 97.230,305.882 97.099,305.882 95.901 C 305.882 94.916,306.053 94.503,306.461 94.503 C 306.813 94.503,307.040 94.862,307.040 95.420 M309.730 94.793 C 309.725 94.952,309.550 95.821,309.342 96.724 C 309.134 97.627,308.861 99.015,308.736 99.810 C 308.611 100.604,308.439 101.326,308.353 101.414 C 308.101 101.674,308.174 95.783,308.431 95.114 C 308.663 94.507,309.748 94.239,309.730 94.793 M305.185 109.736 C 305.095 110.502,304.932 111.039,304.822 110.929 C 304.533 110.641,304.355 108.676,304.584 108.305 C 305.006 107.623,305.339 108.416,305.185 109.736 M306.115 114.791 C 305.630 116.054,303.686 115.431,303.896 114.079 C 304.076 112.915,304.107 112.893,304.322 113.761 C 304.693 115.258,305.497 115.212,305.497 113.693 C 305.497 112.968,305.627 112.243,305.786 112.081 C 306.133 111.729,306.411 114.019,306.115 114.791 M307.811 113.620 C 307.811 114.375,307.666 114.903,307.490 114.794 C 307.186 114.606,307.345 112.247,307.662 112.247 C 307.744 112.247,307.811 112.865,307.811 113.620 M255.738 115.140 C 255.738 115.458,255.574 115.718,255.375 115.718 C 254.888 115.718,254.540 115.116,254.848 114.808 C 255.283 114.373,255.738 114.543,255.738 115.140 M253.024 116.280 C 253.595 116.969,253.221 117.693,252.447 117.396 C 251.844 117.165,251.648 115.718,252.219 115.718 C 252.405 115.718,252.767 115.971,253.024 116.280 M253.809 159.318 C 253.809 159.783,252.219 160.458,251.761 160.188 C 251.383 159.964,252.649 158.949,253.327 158.932 C 253.592 158.925,253.809 159.099,253.809 159.318 M256.704 159.694 C 256.836 159.908,256.665 160.190,256.324 160.320 C 255.586 160.604,255.174 160.291,255.529 159.717 C 255.849 159.199,256.391 159.188,256.704 159.694 M255.643 161.716 C 255.399 162.458,253.809 162.565,253.809 161.840 C 253.809 161.446,254.157 161.234,254.806 161.234 C 255.430 161.234,255.743 161.414,255.643 161.716 M300.833 165.512 C 300.783 167.564,300.610 168.563,300.303 168.563 C 299.822 168.563,299.485 163.068,299.922 162.361 C 300.513 161.405,300.900 162.742,300.833 165.512 M303.568 164.577 C 303.568 165.992,303.499 167.077,303.416 166.988 C 303.139 166.697,302.839 162.478,303.077 162.239 C 303.521 161.795,303.568 162.017,303.568 164.577 M302.467 175.754 C 302.763 176.343,302.763 176.784,302.465 177.296 C 302.104 177.917,302.047 177.845,302.037 176.760 C 302.030 176.070,301.851 175.506,301.639 175.506 C 301.193 175.506,301.113 173.463,301.543 173.026 C 301.702 172.865,301.882 173.226,301.942 173.830 C 302.003 174.434,302.239 175.299,302.467 175.754 M299.648 182.925 C 299.181 184.518,299.161 184.534,299.019 183.425 C 298.938 182.795,299.060 182.216,299.291 182.139 C 299.539 182.057,299.742 180.710,299.787 178.849 L 299.864 175.699 299.997 178.489 C 300.070 180.023,299.913 182.019,299.648 182.925 M299.402 189.084 C 299.042 189.444,298.939 189.341,298.939 188.621 C 298.939 187.901,299.042 187.798,299.402 188.158 C 299.762 188.518,299.762 188.724,299.402 189.084 M269.624 189.737 C 269.624 189.926,269.392 190.170,269.110 190.279 C 268.827 190.387,268.595 190.232,268.595 189.934 C 268.595 189.636,268.827 189.392,269.110 189.392 C 269.392 189.392,269.624 189.547,269.624 189.737 M212.681 192.015 C 212.986 192.508,212.278 193.374,211.808 193.084 C 211.189 192.701,211.280 191.707,211.935 191.707 C 212.241 191.707,212.576 191.845,212.681 192.015 M215.230 191.996 C 215.213 192.842,214.476 193.403,214.471 192.575 C 214.467 192.097,214.638 191.707,214.851 191.707 C 215.063 191.707,215.234 191.837,215.230 191.996 M261.620 192.340 C 262.416 192.472,263.067 192.698,263.067 192.843 C 263.067 193.303,257.775 193.865,256.729 193.516 C 253.877 192.565,257.587 191.673,261.620 192.340 M262.874 195.372 C 263.086 195.444,252.845 195.476,240.116 195.442 L 216.972 195.382 237.030 195.184 C 255.688 194.999,261.915 195.045,262.874 195.372 M265.767 197.288 C 265.767 198.319,265.634 198.575,265.188 198.404 C 264.858 198.277,264.609 197.702,264.609 197.066 C 264.609 196.331,264.807 195.950,265.188 195.950 C 265.591 195.950,265.767 196.356,265.767 197.288 M297.440 200.303 C 297.182 200.561,297.059 199.998,297.070 198.609 C 297.091 195.805,297.560 195.238,297.708 197.837 C 297.773 198.981,297.652 200.091,297.440 200.303 M299.212 197.970 C 299.120 198.450,299.041 198.149,299.037 197.300 C 299.032 196.451,299.108 196.059,299.204 196.428 C 299.301 196.796,299.304 197.491,299.212 197.970 M268.852 196.942 C 268.852 197.275,268.599 197.802,268.288 198.112 C 267.793 198.607,267.734 198.533,267.806 197.507 C 267.889 196.330,268.852 195.810,268.852 196.942 M264.419 202.447 C 264.018 203.493,263.586 202.291,263.784 200.680 L 263.963 199.229 264.309 200.529 C 264.500 201.245,264.549 202.108,264.419 202.447 M299.984 202.213 C 299.891 202.693,299.812 202.392,299.808 201.543 C 299.804 200.694,299.879 200.302,299.976 200.671 C 300.072 201.039,300.076 201.734,299.984 202.213 M298.440 211.475 C 298.348 211.953,298.273 211.562,298.273 210.608 C 298.273 209.653,298.348 209.262,298.440 209.740 C 298.532 210.217,298.532 210.998,298.440 211.475 M298.554 220.636 C 298.554 221.922,298.382 222.951,298.168 222.951 C 297.749 222.951,297.635 219.925,298.016 218.932 C 298.427 217.862,298.554 218.264,298.554 220.636 M261.417 231.526 C 261.332 232.220,261.260 231.745,261.257 230.473 C 261.255 229.200,261.325 228.632,261.414 229.212 C 261.502 229.792,261.503 230.833,261.417 231.526 M297.276 235.583 C 297.179 235.955,297.100 235.651,297.100 234.908 C 297.100 234.166,297.179 233.862,297.276 234.233 C 297.374 234.605,297.374 235.212,297.276 235.583 M261.415 238.442 C 261.248 240.508,260.570 239.925,260.446 237.608 C 260.339 235.608,260.366 235.534,260.926 236.321 C 261.253 236.780,261.473 237.734,261.415 238.442 M296.729 239.634 C 296.453 243.854,296.239 243.924,296.239 239.794 C 296.239 237.956,296.396 236.451,296.588 236.451 C 296.786 236.451,296.847 237.837,296.729 239.634 M262.960 241.948 C 262.874 242.637,262.804 242.073,262.804 240.694 C 262.804 239.315,262.874 238.751,262.960 239.441 C 263.045 240.130,263.045 241.258,262.960 241.948 M261.082 247.451 C 261.582 247.978,262.147 248.409,262.339 248.409 C 262.531 248.409,262.471 248.756,262.206 249.180 C 261.490 250.326,260.752 250.131,260.752 248.795 C 260.752 248.023,260.559 247.637,260.174 247.637 C 259.855 247.637,259.595 247.377,259.595 247.059 C 259.595 246.234,260.038 246.351,261.082 247.451 M295.606 248.851 C 295.954 252.188,295.923 253.263,295.491 252.825 C 294.968 252.298,294.494 246.480,294.974 246.480 C 295.185 246.480,295.469 247.547,295.606 248.851 M258.326 248.795 C 258.423 250.191,257.949 250.300,257.363 249.015 C 257.098 248.432,256.529 248.017,255.855 247.916 C 255.119 247.805,255.328 247.735,256.509 247.696 C 258.177 247.641,258.248 247.684,258.326 248.795 M253.809 248.795 C 253.049 249.286,250.834 249.286,250.530 248.795 C 250.383 248.556,251.071 248.411,252.340 248.415 C 253.804 248.419,254.223 248.527,253.809 248.795 M256.509 249.566 C 256.509 249.778,256.162 249.952,255.738 249.952 C 255.313 249.952,254.966 249.778,254.966 249.566 C 254.966 249.354,255.313 249.180,255.738 249.180 C 256.162 249.180,256.509 249.354,256.509 249.566 M238.959 251.880 C 239.101 252.110,238.634 252.266,237.801 252.266 C 236.969 252.266,236.502 252.110,236.644 251.880 C 236.775 251.668,237.296 251.495,237.801 251.495 C 238.307 251.495,238.827 251.668,238.959 251.880 M234.452 252.079 C 233.881 252.651,229.844 253.378,229.038 253.054 C 228.313 252.763,228.476 252.696,229.968 252.676 C 230.963 252.663,231.884 252.478,232.015 252.266 C 232.147 252.054,232.793 251.880,233.453 251.880 C 234.112 251.880,234.562 251.970,234.452 252.079 M243.186 252.627 C 243.309 252.826,242.929 253.228,242.341 253.521 C 241.754 253.814,241.315 254.256,241.367 254.503 C 241.509 255.180,239.730 255.482,238.737 254.951 L 237.865 254.484 238.797 253.967 C 239.310 253.683,240.046 253.445,240.433 253.437 C 240.819 253.429,241.396 253.163,241.714 252.845 C 242.377 252.181,242.866 252.109,243.186 252.627 M226.615 253.809 C 226.484 254.021,225.856 254.195,225.220 254.195 C 224.546 254.195,224.162 254.033,224.301 253.809 C 224.432 253.597,225.060 253.423,225.696 253.423 C 226.370 253.423,226.754 253.585,226.615 253.809 M236.066 253.809 C 236.066 254.021,235.815 254.195,235.510 254.195 C 235.204 254.195,234.847 254.021,234.716 253.809 C 234.584 253.597,234.835 253.423,235.271 253.423 C 235.708 253.423,236.066 253.597,236.066 253.809 M230.950 254.051 C 232.027 254.340,231.706 254.966,230.482 254.966 C 229.982 254.966,229.504 255.171,229.421 255.421 C 229.336 255.675,228.981 255.766,228.617 255.626 C 226.942 254.983,229.069 253.547,230.950 254.051 M216.216 255.763 C 216.657 256.475,216.170 256.541,214.812 255.952 L 213.500 255.382 214.731 255.367 C 215.408 255.359,216.077 255.537,216.216 255.763 M212.922 256.316 C 212.922 256.635,212.748 256.895,212.536 256.895 C 212.324 256.895,212.150 256.635,212.150 256.316 C 212.150 255.998,212.324 255.738,212.536 255.738 C 212.748 255.738,212.922 255.998,212.922 256.316 M221.794 256.123 C 222.654 256.399,222.602 256.436,221.311 256.471 C 220.516 256.492,219.865 256.336,219.865 256.123 C 219.865 255.682,220.415 255.682,221.794 256.123 M292.949 256.877 C 293.278 257.409,292.750 259.244,292.341 258.991 C 291.881 258.707,291.897 256.509,292.359 256.509 C 292.559 256.509,292.824 256.675,292.949 256.877 M287.258 260.265 C 287.170 260.851,287.095 260.463,287.092 259.402 C 287.089 258.341,287.162 257.862,287.253 258.336 C 287.345 258.810,287.347 259.678,287.258 260.265 M295.041 261.427 L 294.999 264.031 294.624 262.349 C 294.282 260.819,294.437 258.824,294.896 258.824 C 294.998 258.824,295.063 259.995,295.041 261.427 M293.131 263.356 C 293.104 265.094,292.500 268.212,292.402 267.117 C 292.320 266.202,292.279 263.079,292.339 262.392 C 292.444 261.202,293.151 262.062,293.131 263.356 M291.990 269.142 C 291.986 269.914,291.891 270.055,291.640 269.659 C 291.451 269.360,291.385 268.883,291.495 268.598 C 291.808 267.782,291.997 267.990,291.990 269.142 M293.693 273.031 C 293.672 273.279,293.629 273.828,293.597 274.253 C 293.565 274.677,293.347 275.024,293.112 275.024 C 292.877 275.024,292.777 274.785,292.889 274.493 C 293.001 274.200,292.913 273.781,292.694 273.562 C 292.474 273.342,292.417 272.965,292.567 272.723 C 292.901 272.182,293.746 272.413,293.693 273.031 M286.789 275.411 C 286.921 275.623,286.601 275.960,286.078 276.158 C 285.556 276.357,285.014 276.704,284.875 276.929 C 284.736 277.154,283.981 277.315,283.198 277.286 C 282.256 277.251,282.076 277.176,282.666 277.063 C 283.156 276.970,283.664 276.603,283.795 276.248 C 284.226 275.077,286.236 274.515,286.789 275.411 M291.996 275.410 C 291.996 275.622,291.552 275.796,291.009 275.796 C 290.449 275.796,290.125 275.629,290.260 275.410 C 290.391 275.198,290.836 275.024,291.247 275.024 C 291.659 275.024,291.996 275.198,291.996 275.410 M264.995 279.531 C 266.061 279.898,263.820 280.456,262.370 280.184 C 261.123 279.950,261.069 279.886,261.715 279.413 C 262.357 278.944,263.399 278.981,264.995 279.531 M274.809 279.448 C 274.397 279.759,273.419 280.020,272.636 280.026 C 271.853 280.033,271.105 280.212,270.974 280.424 C 270.614 281.007,270.010 280.886,270.010 280.231 C 270.010 279.821,270.430 279.651,271.456 279.647 C 272.252 279.644,273.163 279.473,273.481 279.267 C 274.531 278.589,275.729 278.752,274.809 279.448 M258.052 280.576 C 258.052 281.158,257.115 281.673,256.740 281.298 C 256.232 280.790,256.554 280.039,257.281 280.039 C 257.705 280.039,258.052 280.280,258.052 280.576 M268.370 280.690 C 267.999 280.787,267.392 280.787,267.020 280.690 C 266.649 280.593,266.953 280.514,267.695 280.514 C 268.438 280.514,268.742 280.593,268.370 280.690 M214.936 286.346 L 214.682 288.332 214.429 286.403 C 214.290 285.342,214.272 283.954,214.389 283.317 L 214.601 282.160 214.896 283.260 C 215.058 283.865,215.076 285.254,214.936 286.346 M237.801 283.896 C 237.932 284.108,237.682 284.282,237.246 284.282 C 236.809 284.282,236.451 284.108,236.451 283.896 C 236.451 283.684,236.701 283.510,237.007 283.510 C 237.313 283.510,237.670 283.684,237.801 283.896 M246.287 283.896 C 246.422 284.114,246.106 284.282,245.561 284.282 C 245.031 284.282,244.490 284.455,244.359 284.667 C 244.228 284.879,243.851 285.053,243.522 285.053 C 243.087 285.053,243.172 284.846,243.834 284.294 C 244.828 283.466,245.913 283.290,246.287 283.896 M252.368 284.939 C 251.893 285.030,251.026 285.033,250.439 284.944 C 249.853 284.855,250.241 284.781,251.302 284.778 C 252.363 284.775,252.842 284.847,252.368 284.939 M238.187 285.824 C 237.115 286.285,236.066 286.285,236.066 285.824 C 236.066 285.612,236.716 285.451,237.512 285.466 C 238.672 285.488,238.806 285.559,238.187 285.824 M247.541 285.705 C 247.170 285.802,246.562 285.802,246.191 285.705 C 245.820 285.608,246.123 285.528,246.866 285.528 C 247.608 285.528,247.912 285.608,247.541 285.705 M231.051 286.555 C 231.051 286.744,230.777 287.005,230.441 287.133 C 229.579 287.464,229.508 287.438,229.508 286.789 C 229.508 286.467,229.851 286.210,230.280 286.210 C 230.704 286.210,231.051 286.365,231.051 286.555 M240.116 287.367 C 239.062 287.820,238.766 287.820,238.766 287.367 C 238.766 287.155,239.243 286.994,239.826 287.009 C 240.766 287.033,240.799 287.074,240.116 287.367 M234.908 288.139 C 234.908 288.351,234.474 288.525,233.944 288.525 C 233.414 288.525,232.980 288.351,232.980 288.139 C 232.980 287.927,233.414 287.753,233.944 287.753 C 234.474 287.753,234.908 287.927,234.908 288.139 M214.079 291.610 C 214.079 292.102,212.525 292.102,211.765 291.610 C 211.334 291.332,211.557 291.235,212.633 291.231 C 213.428 291.227,214.079 291.398,214.079 291.610 M220.636 291.610 C 219.878 292.100,218.708 292.100,218.708 291.610 C 218.708 291.398,219.272 291.227,219.961 291.231 C 220.913 291.235,221.076 291.327,220.636 291.610 M217.743 292.382 C 217.612 292.594,217.158 292.768,216.734 292.768 C 216.309 292.768,216.069 292.594,216.201 292.382 C 216.332 292.170,216.786 291.996,217.210 291.996 C 217.635 291.996,217.875 292.170,217.743 292.382 M214.079 293.387 C 214.079 293.471,213.602 293.536,213.018 293.533 C 212.246 293.529,212.106 293.434,212.501 293.183 C 212.992 292.872,214.079 293.013,214.079 293.387 " stroke="none" fill="#75622b" fill-rule="evenodd"></path></g></svg>